<?xml version="1.0" standalone="no"?>
<!DOCTYPE svg PUBLIC "-//W3C//DTD SVG 1.1//EN" "http://www.w3.org/Graphics/SVG/1.1/DTD/svg11.dtd" >
<svg>
<metadata>
Created by FontForge 20090914 at Fri Feb 24 13:10:57 2012
 By root
Created from vector art
</metadata>
<defs>
<font id="WagnerZip-ChangeCondensed" horiz-adv-x="275" >
  <font-face 
    font-family="Wagner Zip-Change Condensed"
    font-weight="400"
    font-stretch="normal"
    units-per-em="1000"
    panose-1="0 0 0 0 0 0 0 0 0 0"
    ascent="750"
    descent="-250"
    x-height="800"
    cap-height="800"
    bbox="50 -80 962 807"
    underline-thickness="50"
    underline-position="-50"
    unicode-range="U+0020-U+2153"
  />
<missing-glyph horiz-adv-x="300" 
 />
    <glyph glyph-name=".notdef" horiz-adv-x="300" 
 />
    <glyph glyph-name=".null" horiz-adv-x="0" 
 />
    <glyph glyph-name="nonmarkingreturn" horiz-adv-x="300" 
 />
    <glyph glyph-name="space" unicode=" " horiz-adv-x="300" 
 />
    <glyph glyph-name="space" unicode="&#xa0;" horiz-adv-x="300" 
 />
    <glyph glyph-name="H" unicode="H" horiz-adv-x="452" 
d="M50 800h149v-321h55v321h148v-800h-148v360l-55 -1v-359h-149v800z" />
    <glyph glyph-name="G" unicode="G" horiz-adv-x="478" 
d="M231 456h197v-448h-63l-19 28q-24 -18 -52 -27t-57 -9q-88 0 -135 56.5t-52 157.5v404q0 38 15.5 71t41 58t59.5 39t70 14q38 0 71.5 -16t58.5 -42t39.5 -60t14.5 -71v-62h-137l1 67q0 21 -10.5 42t-35.5 21q-14 0 -27.5 -9t-13.5 -26v-3v-468q0 -11 2 -22.5t7 -21
t13.5 -15.5t20.5 -6q21 0 32.5 18t11.5 37v179h-53v114z" />
    <glyph glyph-name="I" unicode="I" 
d="M50 0v800h175v-800h-175v0z" />
    <glyph glyph-name="N" unicode="N" horiz-adv-x="501" 
d="M50 0v800h172l84 -322v322h145v-800h-160l-92 363v-363h-149z" />
    <glyph glyph-name="O" unicode="O" horiz-adv-x="462" 
d="M50 197v420q0 36 10 69t31 58.5t54 40.5t79 15q50 0 86 -14.5t58.5 -39.5t33 -59t10.5 -73v-421q0 -37 -12.5 -71.5t-36.5 -61.5t-58 -43.5t-76 -16.5q-44 1 -77.5 18.5t-56 45t-34 62.5t-11.5 71zM194 638v-472q0 -19 7 -33t26 -14q17 0 26.5 11t9.5 37v472q0 7 -1 15
t-4.5 15t-11 11.5t-19.5 4.5t-18.5 -5t-10 -12t-4 -15.5t-0.5 -14.5z" />
    <glyph glyph-name="Q" unicode="Q" horiz-adv-x="479" 
d="M286 5l-7 11q-15 -5 -29 -10.5t-29 -5.5q-34 0 -65 15t-54.5 39.5t-37.5 56.5t-14 66v432q0 36 12 70t35 61t56.5 43.5t77.5 16.5q33 0 65.5 -13.5t58 -36.5t41 -54t15.5 -67v-13v-447q0 -28 -11 -53.5t-28 -44.5l57 -66h-143zM198 654v-500q0 -12 8.5 -22t21.5 -10
l-16 39l38 34l15 -14v472q0 14 -10.5 23t-24.5 9q-11 0 -21.5 -9.5t-10.5 -21.5z" />
    <glyph glyph-name="P" unicode="P" horiz-adv-x="489" 
d="M50 800h209q40 0 68.5 -14t48.5 -37.5t32.5 -53.5t19 -62t9 -63.5t2.5 -57.5q0 -43 -10 -84.5t-35 -73.5t-66 -52t-104 -20h-11t-12 1l1 -283h-152v800zM207 683v-280q33 0 50.5 16.5t25 41.5t8 53t0.5 51q0 18 -2.5 39t-10.5 39t-22 29.5t-38 11.5q-3 0 -6 -0.5t-5 -0.5
z" />
    <glyph glyph-name="R" unicode="R" horiz-adv-x="495" 
d="M50 800h139q43 0 83.5 -11.5t72.5 -41t51.5 -80t19.5 -129.5q0 -33 -3 -66t-11.5 -62.5t-23 -55.5t-37.5 -46l104 -308h-161l-68 267h-26v-267h-140v800zM188 383q32 0 47.5 17.5t21.5 42t6 50v41.5q0 12 1 35.5t-3.5 47t-17 41t-39.5 17.5h-9t-7 -1v-291z" />
    <glyph glyph-name="S" unicode="S" horiz-adv-x="515" 
d="M52 278h148l-1 -36v-7q0 -8 -0.5 -16t-0.5 -15q0 -14 1.5 -30.5t7 -31t17 -24.5t31.5 -10q18 0 29.5 9.5t17.5 23t8 29t2 27.5q0 40 -19 68t-47.5 54l-62 55.5t-63.5 73.5q-20 31 -32.5 62.5t-12.5 71.5t13 79t37.5 70t59.5 50t79 19q42 0 77.5 -16t61.5 -44.5
t40.5 -68.5t14.5 -87v-15.5t-1 -15.5h-138v55q0 12 -2 25.5t-7.5 25t-14.5 19t-24 7.5t-25.5 -7t-17.5 -18t-10 -24t-3 -25q0 -29 11 -52t27.5 -42.5t36.5 -36t38 -33.5l50 -49t44 -53.5t31 -61.5t12 -74t-13.5 -80.5t-39.5 -70.5t-64.5 -50t-88.5 -19q-43 0 -81 16
t-66.5 44t-45 66.5t-16.5 84.5z" />
    <glyph glyph-name="U" unicode="U" horiz-adv-x="453" 
d="M50 800h143v-634q0 -22 9.5 -34t23.5 -12t23 12t9 36v632h145v-618q0 -35 -13 -67.5t-36.5 -58t-55.5 -41t-70 -15.5q-39 0 -72 14t-56.5 38.5t-36.5 58.5t-13 75v614z" />
    <glyph glyph-name="T" unicode="T" horiz-adv-x="514" 
d="M177 0v681h-127v119h414v-119h-127v-681h-160z" />
    <glyph glyph-name="Z" unicode="Z" horiz-adv-x="528" 
d="M78 800h369l31 -94l-250 -584h248v-122h-381l-45 99l251 579h-223v122z" />
    <glyph glyph-name="quoteright" unicode="&#x2019;" horiz-adv-x="273" 
d="M138 800q22 0 38.5 -9t26.5 -24t15 -34t5 -39q0 -26 -8 -50t-22 -44.5t-35 -36t-46 -22.5q18 16 18 40q0 15 -5 23.5t-12.5 13.5t-15.5 9t-14 9q-16 14 -24.5 34.5t-7.5 40.5q0 15 6 31t16.5 29t25.5 21t34 8h5z" />
    <glyph glyph-name="Y" unicode="Y" horiz-adv-x="526" 
d="M50 800l157 1l58 -336l53 334l158 1l-132 -519v-281h-159v278z" />
    <glyph glyph-name="X" unicode="X" horiz-adv-x="525" 
d="M57 800h152l52 -160l53 160h154l-130 -392l137 -408h-158l-54 169l-55 -169h-158l136 404z" />
    <glyph glyph-name="W" unicode="W" horiz-adv-x="687" 
d="M390 0l-49 387l-49 -387h-155l-87 800h151l33 -317l46 317h128l46 -316l31 316h152l-93 -800h-154z" />
    <glyph glyph-name="V" unicode="V" horiz-adv-x="524" 
d="M205 800l56 -466l56 467h157l-111 -801h-195l-118 800h155z" />
    <glyph glyph-name="F" unicode="F" horiz-adv-x="446" 
d="M50 0v800h346v-121h-190v-198h175v-119h-175v-362h-156z" />
    <glyph glyph-name="E" unicode="E" horiz-adv-x="447" 
d="M50 800h337v-118h-185v-202h171v-119h-172v-241h196v-120h-347v800z" />
    <glyph glyph-name="D" unicode="D" horiz-adv-x="479" 
d="M50 800h167q48 0 87 -16.5t67 -45t43 -67.5t15 -83v-383q0 -42 -17 -79.5t-46 -65t-67 -44t-79 -16.5h-170v800zM197 685v-562q13 0 27.5 3t26.5 10t19.5 19.5t7.5 30.5v437q0 35 -24.5 48.5t-56.5 13.5z" />
    <glyph glyph-name="C" unicode="C" horiz-adv-x="483" 
d="M291 282h142v-94q0 -37 -13.5 -71t-38 -60t-58.5 -41.5t-75 -15.5q-39 0 -74.5 11.5t-63 33t-44 52.5t-16.5 70v449q0 34 11.5 67t35 59t58.5 42t82 16q34 0 69 -11.5t63.5 -33t46 -52.5t17.5 -69v-103h-143v101q0 20 -15 35t-35 15q-19 0 -33.5 -13.5t-14.5 -32.5v-6
v-457q0 -27 13 -44.5t38 -17.5q26 0 37 19.5t11 47.5v104z" />
    <glyph glyph-name="B" unicode="B" horiz-adv-x="489" 
d="M50 801h189q36 0 68.5 -11t57.5 -36t39.5 -65t14.5 -98q0 -48 -20.5 -93.5t-65.5 -70.5q24 -11 43.5 -27t33.5 -40t21.5 -57.5t7.5 -79.5q0 -38 -10.5 -76t-34 -69.5t-62 -53t-93.5 -24.5h-189v801zM199 370v-250q4 -1 12 -1q36 0 59.5 28.5t23.5 74.5q0 19 -1.5 41.5
t-6.5 43t-14.5 36.5t-26.5 23q-11 5 -23 4t-23 0zM199 682v-195q2 0 4.5 -0.5t5.5 -0.5q23 0 37 10.5t21.5 26t10 33t2.5 31.5q0 13 -1.5 29.5t-8.5 31.5t-20 25t-35 10q-11 0 -16 -1z" />
    <glyph glyph-name="A" unicode="A" horiz-adv-x="513" 
d="M50 0l109 800h206l98 -800h-144l-16 155h-90l-20 -155h-143v0zM223 277h73l-36 354z" />
    <glyph glyph-name="a" unicode="a" horiz-adv-x="513" 
d="M50 0l109 800h206l98 -800h-144l-16 155h-90l-20 -155h-143v0zM223 277h73l-36 354z" />
    <glyph glyph-name="b" unicode="b" horiz-adv-x="489" 
d="M50 801h189q36 0 68.5 -11t57.5 -36t39.5 -65t14.5 -98q0 -48 -20.5 -93.5t-65.5 -70.5q24 -11 43.5 -27t33.5 -40t21.5 -57.5t7.5 -79.5q0 -38 -10.5 -76t-34 -69.5t-62 -53t-93.5 -24.5h-189v801zM199 370v-250q4 -1 12 -1q36 0 59.5 28.5t23.5 74.5q0 19 -1.5 41.5
t-6.5 43t-14.5 36.5t-26.5 23q-11 5 -23 4t-23 0zM199 682v-195q2 0 4.5 -0.5t5.5 -0.5q23 0 37 10.5t21.5 26t10 33t2.5 31.5q0 13 -1.5 29.5t-8.5 31.5t-20 25t-35 10q-11 0 -16 -1z" />
    <glyph glyph-name="c" unicode="c" horiz-adv-x="483" 
d="M291 282h142v-94q0 -37 -13.5 -71t-38 -60t-58.5 -41.5t-75 -15.5q-39 0 -74.5 11.5t-63 33t-44 52.5t-16.5 70v449q0 34 11.5 67t35 59t58.5 42t82 16q34 0 69 -11.5t63.5 -33t46 -52.5t17.5 -69v-103h-143v101q0 20 -15 35t-35 15q-19 0 -33.5 -13.5t-14.5 -32.5v-6
v-457q0 -27 13 -44.5t38 -17.5q26 0 37 19.5t11 47.5v104z" />
    <glyph glyph-name="d" unicode="d" horiz-adv-x="479" 
d="M50 800h167q48 0 87 -16.5t67 -45t43 -67.5t15 -83v-383q0 -42 -17 -79.5t-46 -65t-67 -44t-79 -16.5h-170v800zM197 685v-562q13 0 27.5 3t26.5 10t19.5 19.5t7.5 30.5v437q0 35 -24.5 48.5t-56.5 13.5z" />
    <glyph glyph-name="e" unicode="e" horiz-adv-x="447" 
d="M50 800h337v-118h-185v-202h171v-119h-172v-241h196v-120h-347v800z" />
    <glyph glyph-name="f" unicode="f" horiz-adv-x="446" 
d="M50 0v800h346v-121h-190v-198h175v-119h-175v-362h-156z" />
    <glyph glyph-name="g" unicode="g" horiz-adv-x="478" 
d="M231 456h197v-448h-63l-19 28q-24 -18 -52 -27t-57 -9q-88 0 -135 56.5t-52 157.5v404q0 38 15.5 71t41 58t59.5 39t70 14q38 0 71.5 -16t58.5 -42t39.5 -60t14.5 -71v-62h-137l1 67q0 21 -10.5 42t-35.5 21q-14 0 -27.5 -9t-13.5 -26v-3v-468q0 -11 2 -22.5t7 -21
t13.5 -15.5t20.5 -6q21 0 32.5 18t11.5 37v179h-53v114z" />
    <glyph glyph-name="h" unicode="h" horiz-adv-x="452" 
d="M50 800h149v-321h55v321h148v-800h-148v360l-55 -1v-359h-149v800z" />
    <glyph glyph-name="i" unicode="i" 
d="M50 0v800h175v-800h-175v0z" />
    <glyph glyph-name="j" unicode="j" horiz-adv-x="483" 
d="M50 292h143v-104q0 -12 1.5 -26t6 -25.5t14 -19t24.5 -7.5q17 0 25.5 8t12.5 20t4 26v26v610h152v-607q0 -40 -14 -76t-39 -63t-59 -43t-74 -16q-44 0 -80 15t-62 41.5t-40.5 61.5t-14.5 75v104z" />
    <glyph glyph-name="k" unicode="k" horiz-adv-x="536" 
d="M327 0l-124 258l-12 -19l1 -239h-142v800h143v-243l114 243h169l-186 -370l196 -430h-159z" />
    <glyph glyph-name="l" unicode="l" horiz-adv-x="443" 
d="M50 800h159v-680h184v-120h-343v800z" />
    <glyph glyph-name="m" unicode="m" horiz-adv-x="615" 
d="M50 0v800h162l88 -344l97 343h168v-799h-155v358l-108 -354l-107 354v-358h-145z" />
    <glyph glyph-name="n" unicode="n" horiz-adv-x="501" 
d="M50 0v800h172l84 -322v322h145v-800h-160l-92 363v-363h-149z" />
    <glyph glyph-name="o" unicode="o" horiz-adv-x="462" 
d="M50 197v420q0 36 10 69t31 58.5t54 40.5t79 15q50 0 86 -14.5t58.5 -39.5t33 -59t10.5 -73v-421q0 -37 -12.5 -71.5t-36.5 -61.5t-58 -43.5t-76 -16.5q-44 1 -77.5 18.5t-56 45t-34 62.5t-11.5 71zM194 638v-472q0 -19 7 -33t26 -14q17 0 26.5 11t9.5 37v472q0 7 -1 15
t-4.5 15t-11 11.5t-19.5 4.5t-18.5 -5t-10 -12t-4 -15.5t-0.5 -14.5z" />
    <glyph glyph-name="p" unicode="p" horiz-adv-x="489" 
d="M50 800h209q40 0 68.5 -14t48.5 -37.5t32.5 -53.5t19 -62t9 -63.5t2.5 -57.5q0 -43 -10 -84.5t-35 -73.5t-66 -52t-104 -20h-11t-12 1l1 -283h-152v800zM207 683v-280q33 0 50.5 16.5t25 41.5t8 53t0.5 51q0 18 -2.5 39t-10.5 39t-22 29.5t-38 11.5q-3 0 -6 -0.5t-5 -0.5
z" />
    <glyph glyph-name="q" unicode="q" horiz-adv-x="479" 
d="M286 5l-7 11q-15 -5 -29 -10.5t-29 -5.5q-34 0 -65 15t-54.5 39.5t-37.5 56.5t-14 66v432q0 36 12 70t35 61t56.5 43.5t77.5 16.5q33 0 65.5 -13.5t58 -36.5t41 -54t15.5 -67v-13v-447q0 -28 -11 -53.5t-28 -44.5l57 -66h-143zM198 654v-500q0 -12 8.5 -22t21.5 -10
l-16 39l38 34l15 -14v472q0 14 -10.5 23t-24.5 9q-11 0 -21.5 -9.5t-10.5 -21.5z" />
    <glyph glyph-name="r" unicode="r" horiz-adv-x="495" 
d="M50 800h139q43 0 83.5 -11.5t72.5 -41t51.5 -80t19.5 -129.5q0 -33 -3 -66t-11.5 -62.5t-23 -55.5t-37.5 -46l104 -308h-161l-68 267h-26v-267h-140v800zM188 383q32 0 47.5 17.5t21.5 42t6 50v41.5q0 12 1 35.5t-3.5 47t-17 41t-39.5 17.5h-9t-7 -1v-291z" />
    <glyph glyph-name="s" unicode="s" horiz-adv-x="515" 
d="M52 278h148l-1 -36v-7q0 -8 -0.5 -16t-0.5 -15q0 -14 1.5 -30.5t7 -31t17 -24.5t31.5 -10q18 0 29.5 9.5t17.5 23t8 29t2 27.5q0 40 -19 68t-47.5 54l-62 55.5t-63.5 73.5q-20 31 -32.5 62.5t-12.5 71.5t13 79t37.5 70t59.5 50t79 19q42 0 77.5 -16t61.5 -44.5
t40.5 -68.5t14.5 -87v-15.5t-1 -15.5h-138v55q0 12 -2 25.5t-7.5 25t-14.5 19t-24 7.5t-25.5 -7t-17.5 -18t-10 -24t-3 -25q0 -29 11 -52t27.5 -42.5t36.5 -36t38 -33.5l50 -49t44 -53.5t31 -61.5t12 -74t-13.5 -80.5t-39.5 -70.5t-64.5 -50t-88.5 -19q-43 0 -81 16
t-66.5 44t-45 66.5t-16.5 84.5z" />
    <glyph glyph-name="t" unicode="t" horiz-adv-x="514" 
d="M177 0v681h-127v119h414v-119h-127v-681h-160z" />
    <glyph glyph-name="u" unicode="u" horiz-adv-x="453" 
d="M50 800h143v-634q0 -22 9.5 -34t23.5 -12t23 12t9 36v632h145v-618q0 -35 -13 -67.5t-36.5 -58t-55.5 -41t-70 -15.5q-39 0 -72 14t-56.5 38.5t-36.5 58.5t-13 75v614z" />
    <glyph glyph-name="v" unicode="v" horiz-adv-x="524" 
d="M205 800l56 -466l56 467h157l-111 -801h-195l-118 800h155z" />
    <glyph glyph-name="w" unicode="w" horiz-adv-x="687" 
d="M390 0l-49 387l-49 -387h-155l-87 800h151l33 -317l46 317h128l46 -316l31 316h152l-93 -800h-154z" />
    <glyph glyph-name="x" unicode="x" horiz-adv-x="525" 
d="M57 800h152l52 -160l53 160h154l-130 -392l137 -408h-158l-54 169l-55 -169h-158l136 404z" />
    <glyph glyph-name="y" unicode="y" horiz-adv-x="526" 
d="M50 800l157 1l58 -336l53 334l158 1l-132 -519v-281h-159v278z" />
    <glyph glyph-name="z" unicode="z" horiz-adv-x="528" 
d="M78 800h369l31 -94l-250 -584h248v-122h-381l-45 99l251 579h-223v122z" />
    <glyph glyph-name="two" unicode="2" horiz-adv-x="522" 
d="M93 0l-43 93l84 128l58.5 96t53.5 99q11 24 23.5 47.5t23 48t17.5 49.5t7 51q0 11 -1.5 23.5t-6 23t-13.5 17.5t-23 7q-25 0 -36 -20.5t-14.5 -47t-2.5 -51t1 -32.5q0 -5 0.5 -9t0.5 -9h-147l-1 93q0 39 16 74t43 61.5t63 42t75 15.5t73 -15t59.5 -41.5t40.5 -61
t15 -73.5q0 -57 -14.5 -110t-37.5 -103t-51 -97.5l-55 -93.5l-27 -43.5l-27 -42.5h225v-119h-379z" />
    <glyph glyph-name="four" unicode="4" horiz-adv-x="535" 
d="M284 0v234h-190l-44 85l232 481l154 -25v-422h49v-119h-49v-234h-152v0zM283 568l-107 -214h107v214z" />
    <glyph glyph-name="one" unicode="1" 
d="M50 0v800h175v-800h-175v0z" />
    <glyph glyph-name="three" unicode="3" horiz-adv-x="513" 
d="M50 286h137v-36q0 -4 -0.5 -7.5t-0.5 -7.5q0 -14 0.5 -34t5.5 -38.5t18 -32t37 -13.5q30 0 45 17.5t21.5 40.5t6.5 46v34q0 19 -3.5 39.5t-13 37.5t-26.5 28t-43 11h-5h-67v119h62q22 0 37.5 10.5t25 27.5t14 38t4.5 41q0 13 -1 27t-5.5 25.5t-14 19t-25.5 7.5
q-21 0 -29.5 -16.5t-8.5 -35.5v-76h-151v65q0 36 15 68.5t41 57t60.5 39t73.5 14.5q38 0 72 -15t59.5 -41.5t40.5 -62.5t15 -78q0 -48 -14.5 -91.5t-57.5 -80.5q44 -37 66 -85t22 -104q0 -50 -14.5 -94t-42 -77.5t-67 -53t-90.5 -19.5q-38 0 -74 13t-64 36.5t-44.5 56.5
t-16.5 74v106z" />
    <glyph glyph-name="five" unicode="5" horiz-adv-x="515" 
d="M230 519q-1 0 11 1t30 1q59 0 96.5 -23.5t59.5 -60t30 -82t8 -88.5q0 -46 -12.5 -93.5t-38 -86t-64.5 -63t-92 -24.5q-44 0 -81.5 16.5t-66 44.5t-44.5 65.5t-16 78.5v82h148v-77l2 -28.5t6 -27.5t16 -22.5t31 -12.5q25 0 37.5 12.5t17.5 31t5 39.5t1 38q1 21 1 38.5
v39.5q0 15 -2.5 31.5t-9.5 30t-18.5 22.5t-30.5 9q-20 0 -34 -14.5t-14 -34.5v-3l-127 57v384h344v-119h-193v-162z" />
    <glyph glyph-name="six" unicode="6" horiz-adv-x="484" 
d="M279 549v80q0 17 -10.5 32t-29.5 15q-14 0 -22 -6t-12.5 -15t-6 -20t-1.5 -20l-1 -126q17 4 32.5 7t32.5 3q56 0 90 -23.5t52.5 -59.5t24.5 -79t6 -81q0 -65 -9 -113t-31.5 -79.5t-60 -47.5t-93.5 -16q-45 0 -80 13.5t-59.5 37.5t-37.5 57.5t-13 74.5v415q0 40 12.5 76.5
t36 64.5t58 44.5t78.5 16.5q34 -2 67.5 -14.5t60.5 -33.5t43.5 -50.5t16.5 -66.5v-86h-144zM284 321q-2 21 -12 36.5t-31 15.5q-19 0 -28.5 -13.5t-13 -33.5t-3 -42.5t0.5 -40.5v-42t4.5 -45.5t14 -36.5t29.5 -15q17 0 25.5 9t12.5 23t4 29.5v29.5v63.5t-3 62.5z" />
    <glyph glyph-name="seven" unicode="7" horiz-adv-x="478" 
d="M386 800l42 -94q-69 -171 -111.5 -347t-65.5 -359h-163q25 177 68 349.5t110 336.5h-216v114h336z" />
    <glyph glyph-name="eight" unicode="8" horiz-adv-x="514" 
d="M260 0q-47 0 -85.5 19t-66.5 52t-43 76.5t-15 93.5q0 60 23 109.5t79 83.5q-37 37 -53 78.5t-16 89.5q1 36 11.5 71.5t32 63.5t54.5 45.5t78 17.5q46 0 78.5 -18.5t53 -48.5t30 -67.5t9.5 -74.5q0 -45 -15 -85t-53 -72q55 -38 78.5 -85t23.5 -109q0 -49 -14.5 -92.5
t-41 -76.5t-64 -52t-84.5 -19zM311 286q0 13 -2.5 27.5t-8.5 27t-16.5 20.5t-26.5 8q-22 0 -33.5 -13t-16.5 -31.5t-5.5 -38t-0.5 -32.5q0 -21 -1 -43.5t3.5 -42t16 -33.5t37.5 -17q23 0 34.5 13.5t16 32t4 39t-0.5 35.5v48zM254 678q-18 0 -26 -13t-8 -28v-37
q0 -18 -1.5 -39t1 -38.5t10.5 -29.5t27 -12q34 0 34 41v44q0 16 1.5 35.5t-1 36.5t-10.5 28.5t-27 11.5z" />
    <glyph glyph-name="nine" unicode="9" horiz-adv-x="484" 
d="M204 250v-79q0 -19 10.5 -33t30.5 -14q13 0 21.5 6t13 15t6 19.5t1.5 19.5v128q-14 -5 -31.5 -7.5t-33.5 -2.5q-57 0 -91 23.5t-52 59.5t-23.5 78.5t-5.5 81.5q0 67 9.5 115.5t32.5 79.5t61.5 45.5t95.5 14.5q43 0 77.5 -14t58.5 -38t36.5 -57.5t12.5 -72.5v-416
q0 -41 -12.5 -77.5t-36.5 -64.5t-58.5 -44t-77.5 -16q-34 0 -67.5 12.5t-60.5 34.5t-43.5 52.5t-16.5 65.5v85h143zM199 480q2 -21 12.5 -36.5t31.5 -15.5q19 0 28 13.5t12 33.5t2 42.5t-1 40.5v41.5t-4 45.5t-13 37t-28 15q-17 0 -26 -9t-12.5 -23t-4 -30t-0.5 -30v-63
t3 -62z" />
    <glyph glyph-name="zero" unicode="0" horiz-adv-x="462" 
d="M50 196v421q0 36 10 69t31 58.5t53 40.5t77 15q51 0 87 -14t59.5 -39t34 -59t10.5 -74v-422q0 -36 -13 -70.5t-36.5 -61.5t-57.5 -43.5t-76 -16.5q-44 0 -77 17.5t-56 45t-34.5 62.5t-11.5 71zM194 638v-472q0 -17 6.5 -32t26.5 -15q17 0 26.5 11t9.5 36v474q0 7 -1 15
t-4.5 14.5t-11 11t-19.5 4.5t-18.5 -5t-10 -12t-4 -15t-0.5 -15z" />
    <glyph glyph-name="ampersand" unicode="&#x26;" horiz-adv-x="535" 
d="M410 566h-130v73q0 12 -4.5 27t-23.5 15q-12 0 -19 -9.5t-10 -22t-4 -26.5t-1 -23q0 -45 18.5 -73.5t64.5 -34.5h57v-111q-5 0 -9.5 0.5t-9.5 0.5q-23 0 -48.5 -5t-47 -20.5t-35.5 -46t-14 -81.5q0 -11 1 -33t6 -44t17 -38t33 -16q14 1 23 11.5t14 24.5t7 29t2 25v8h-60
v112h248v-111h-53q-3 -36 -12.5 -73.5t-29 -68t-51.5 -50.5t-81 -20q-59 0 -99 21.5t-64 56t-34.5 78t-10.5 87.5q0 31 4.5 62.5t17 59.5t34 50.5t56.5 35.5q-26 6 -43 25.5t-26.5 44.5t-13 52t-3.5 49q0 39 12.5 73.5t35 61t54 41.5t68.5 15q35 0 65 -12t52.5 -37.5
t35 -65.5t12.5 -95v-15.5t-1 -6.5z" />
    <glyph glyph-name="dollar" unicode="$" horiz-adv-x="404" 
d="M153 800h109v-118q24 -7 40.5 -23.5t27.5 -38t16 -46t5 -47.5v-15.5t-2 -15.5h-104q0 6 0.5 12.5t0.5 12.5q0 12 -1.5 26t-5.5 26t-11 20t-18 8q-12 0 -19 -6.5t-11 -15.5t-5.5 -18.5t-1.5 -15.5q0 -29 13 -48.5t31.5 -34.5t39 -28t36.5 -29q25 -27 43 -56t18 -73
q0 -25 -6.5 -50.5t-18.5 -47t-30 -38.5t-41 -25v-112h-112l-1 112q-28 13 -46.5 33.5t-29 45t-15 52t-4.5 56.5q0 5 0.5 11t0.5 11h106q-1 -7 -1 -14v-14q0 -10 1 -25.5t5.5 -30.5t13 -25.5t24.5 -10.5q10 0 16.5 5.5t11 14t6.5 18.5t2 18q0 32 -19.5 54.5t-46 43l-53 41.5
t-41.5 50q-10 20 -15.5 41t-5.5 43t5.5 45.5t17.5 44t30.5 36t44.5 22.5v119z" />
    <glyph glyph-name="cent" unicode="&#xa2;" horiz-adv-x="396" 
d="M146 800h112v-123q25 -8 41 -25t25.5 -39t13 -47t3.5 -50v-12.5t-1 -12.5h-101q0 15 -0.5 33t-3.5 33t-10.5 25t-22.5 10q-16 0 -22.5 -13t-8 -32t-0.5 -40.5t0 -38.5q0 -49 -0.5 -97.5t1.5 -97.5q0 -10 1 -20.5t5 -19.5t10.5 -15t17.5 -6q14 0 20.5 10.5t8.5 23.5
t2 25.5v16.5v43h108q1 -8 1 -16.5v-17.5q0 -25 -4 -51t-14 -48.5t-26.5 -41t-41.5 -28.5v-123h-111v123q-33 16 -52.5 42t-29.5 57.5t-13 67t-3 72.5q0 42 -0.5 88t7.5 88t27.5 76t60.5 52v129z" />
    <glyph glyph-name="parenleft" unicode="(" horiz-adv-x="344" 
d="M189 0q-71 91 -105 192.5t-34 202.5q0 104 32 203t105 202l107 -1q-54 -85 -82.5 -185t-28.5 -221q0 -84 14 -150t32.5 -114.5t37 -80.5l27.5 -48h-105z" />
    <glyph glyph-name="parenright" unicode=")" horiz-adv-x="344" 
d="M50 0l28.5 48t36.5 80.5t31.5 114.5t13.5 150q0 121 -28 221t-82 185l106 1q74 -102 106 -202t32 -203q0 -101 -34.5 -202.5t-103.5 -192.5h-106z" />
    <glyph glyph-name="colon" unicode=":" 
d="M138 175q36 0 61.5 -25.5t25.5 -61.5q0 -37 -25.5 -62.5t-61.5 -25.5t-62 25.5t-26 62.5q0 36 26 61.5t62 25.5zM138 465q36 0 61.5 -26t25.5 -62t-25.5 -62t-61.5 -26q-18 0 -34 7t-28 19t-19 28t-7 34t7 34t19 28t28 19t34 7z" />
    <glyph glyph-name="period" unicode="." 
d="M138 175q36 0 61.5 -25.5t25.5 -61.5q0 -37 -25.5 -62.5t-61.5 -25.5t-62 25.5t-26 62.5q0 36 26 61.5t62 25.5z" />
    <glyph glyph-name="asterisk" unicode="*" horiz-adv-x="465" 
d="M125 465l-44 44l77 76h-108v63h108l-77 76l43 44l77 -76v108h61v-110l77 77l44 -43l-77 -76h109v-62h-110l77 -77l-43 -44l-76 77v-109h-63v108z" />
    <glyph glyph-name="equal" unicode="=" horiz-adv-x="395" 
d="M50 431v94h295v-94h-295zM50 275h294v93h-294v-93v0z" />
    <glyph glyph-name="plus" unicode="+" horiz-adv-x="450" 
d="M267 358v-134h-84v134h-133v83h133v134h84v-134h133v-83h-133z" />
    <glyph glyph-name="semicolon" unicode=";" 
d="M137 465q37 0 62.5 -25.5t25.5 -61.5q0 -37 -25.5 -62.5t-62.5 -25.5q-36 0 -61.5 25.5t-25.5 62.5q0 36 25.5 61.5t61.5 25.5zM139 219q23 0 39 -9.5t26 -25.5t14.5 -35.5t4.5 -39.5q0 -25 -8.5 -50t-23.5 -45.5t-35 -35t-44 -18.5q9 8 13.5 18t4.5 21q0 15 -5 23.5
t-12 13.5t-15.5 9t-14.5 10q-16 14 -23.5 33t-7.5 41q0 16 6 32t16.5 29t25.5 21t33 8h6z" />
    <glyph glyph-name="comma" unicode="," horiz-adv-x="271" 
d="M136 180q24 0 40 -9.5t26 -25t14.5 -35.5t4.5 -40q0 -25 -8 -49.5t-23 -44.5t-35.5 -35t-44.5 -21q18 16 18 40q0 15 -5 23t-12 13.5t-15.5 9.5t-14.5 10q-16 14 -23.5 33t-7.5 41q0 37 24.5 63.5t61.5 26.5z" />
    <glyph glyph-name="slash" unicode="/" horiz-adv-x="623" 
d="M51 0h-1l370 800h153l-371 -800h-151z" />
    <glyph glyph-name="hyphen" unicode="-" horiz-adv-x="375" 
d="M50 321v157h275v-157h-275v0z" />
    <glyph glyph-name="question" unicode="?" horiz-adv-x="396" 
d="M130 187l2 92q0 48 15 90.5t33 81.5l33 74.5t15 68.5q0 6 -0.5 12t-0.5 13v16q0 6 -0.5 16t-3.5 20t-9 17.5t-16 7.5q-9 0 -14.5 -5.5t-9 -13t-4.5 -16.5t-1 -16v-86h-119l3 92q1 27 10.5 54t27.5 48t44 34t61 13q29 0 56 -11t48 -33.5t33.5 -57t12.5 -82.5
q0 -55 -10.5 -102t-35.5 -102q-8 -17 -15 -30.5t-13 -29.5t-10.5 -35t-6.5 -46v-84h-125zM192 150q31 0 53 -22t22 -53q0 -32 -22 -53.5t-53 -21.5t-53 21.5t-22 53.5q0 31 22 53t53 22z" />
    <glyph glyph-name="exclam" unicode="!" horiz-adv-x="300" 
d="M96 186l-46 614h200l-51 -614h-103zM150 150q31 0 52.5 -22t21.5 -53t-21.5 -53t-52.5 -22q-32 0 -53.5 22t-21.5 53t21.5 53t53.5 22z" />
    <glyph glyph-name="numbersign" unicode="#" horiz-adv-x="501" 
d="M186 571h71l-21 -82h70l25 80h69l-19 -81h70l-19 -57h-64l-17 -56h62l-17 -57h-57l-27 -91h-68l22 91h-73l-26 -89h-71l23 90h-69l18 58h65l14 56h-61l19 55h58l23 83v0zM208 377h71l14 56h-71z" />
    <glyph glyph-name="perthousand" unicode="&#x2030;" horiz-adv-x="1012" 
d="M113 -3l367 788h141l-361 -788h-147zM580 -9q-21 1 -39.5 9.5t-33 22.5t-23.5 32t-10 39v235q1 20 10 39.5t23.5 34.5t34 24t42.5 9q20 0 38.5 -8t33 -21.5t24 -31t11.5 -37.5l1 -245q-2 -20 -11 -38.5t-23.5 -32.5t-34 -22.5t-43.5 -8.5zM611 95v232q0 12 -9.5 19.5
t-20.5 7.5q-10 0 -17.5 -8t-9.5 -17l2 -231q2 -13 10.5 -18.5t17.5 -5.5q8 0 16.5 5.5t10.5 15.5zM161 799q19 -1 37.5 -8.5t33 -21t24 -32t11.5 -41.5v-235q-1 -21 -10 -40t-23.5 -34t-34 -24t-41.5 -9q-42 0 -72 28.5t-35 70.5l-1 245q5 42 35.5 71.5t75.5 29.5zM131 696
l-1 -233q2 -11 10.5 -19t19.5 -8t18.5 8.5t9.5 17.5l-2 230q-5 24 -28 24q-22 0 -27 -20zM850 -9q-21 1 -39.5 9.5t-33 22.5t-23.5 32t-10 39v235q1 20 10 39.5t23.5 34.5t34 24t42.5 9q20 0 38.5 -8t33 -21.5t24 -31t11.5 -37.5l1 -245q-2 -20 -11 -38.5t-23.5 -32.5
t-34 -22.5t-43.5 -8.5zM881 95v232q0 12 -9.5 19.5t-20.5 7.5q-10 0 -17.5 -8t-9.5 -17l2 -231q2 -13 10.5 -18.5t17.5 -5.5q8 0 16.5 5.5t10.5 15.5z" />
    <glyph glyph-name="percent" horiz-adv-x="742" 
d="M113 -3l367 788h141l-361 -788h-147zM580 -9q-21 1 -39.5 9.5t-33 22.5t-23.5 32t-10 39v235q1 20 10 39.5t23.5 34.5t34 24t42.5 9q20 0 38.5 -8t33 -21.5t24 -31t11.5 -37.5l1 -245q-2 -20 -11 -38.5t-23.5 -32.5t-34 -22.5t-43.5 -8.5zM611 95v232q0 12 -9.5 19.5
t-20.5 7.5q-10 0 -17.5 -8t-9.5 -17l2 -231q2 -13 10.5 -18.5t17.5 -5.5q8 0 16.5 5.5t10.5 15.5zM161 799q19 -1 37.5 -8.5t33 -21t24 -32t11.5 -41.5v-235q-1 -21 -10 -40t-23.5 -34t-34 -24t-41.5 -9q-42 0 -72 28.5t-35 70.5l-1 245q5 42 35.5 71.5t75.5 29.5zM131 696
l-1 -233q2 -11 10.5 -19t19.5 -8t18.5 8.5t9.5 17.5l-2 230q-5 24 -28 24q-22 0 -27 -20z" />
    <glyph glyph-name="quotedblright" unicode="&#x201d;" horiz-adv-x="484" 
d="M137 800q23 -1 39 -10.5t26 -25t14.5 -34.5t4.5 -40q0 -26 -8 -50t-22.5 -44t-35 -34.5t-44.5 -21.5q17 17 17 40q0 15 -5 23t-12 13.5t-15 9.5t-15 10q-16 14 -23.5 33.5t-7.5 40.5q0 17 6 33t17.5 29t27.5 20.5t36 7.5zM350 800q24 -1 40 -10.5t25.5 -24.5t14 -35
t4.5 -41q0 -25 -8 -49t-22.5 -43.5t-34.5 -34.5t-45 -22q8 8 12.5 19t4.5 22q0 13 -5 21.5t-12 14t-15 9.5t-14 10q-15 14 -24 33.5t-8 40.5q0 16 6 32.5t17.5 29t27.5 20.5t36 8z" />
    <glyph glyph-name="quotedblleft" unicode="&#x201c;" horiz-adv-x="484" 
d="M347 540q-23 1 -39 10.5t-26 25t-14.5 34.5t-4.5 40q0 26 8 50t22.5 44t35 34.5t44.5 21.5q-8 -8 -12.5 -18t-4.5 -22q0 -15 5 -23t12 -13.5t15 -9.5t15 -10q16 -14 23.5 -33.5t7.5 -40.5q0 -17 -6 -33t-17.5 -29t-27.5 -20.5t-36 -7.5zM134 540q-24 1 -40 10.5
t-25.5 24.5t-14 35t-4.5 41q0 25 8 49t22.5 43.5t34.5 34.5t45 22q-8 -8 -12.5 -19t-4.5 -22q0 -14 5 -22t12 -13.5t15 -9.5t14 -10q15 -14 24 -33.5t8 -40.5q0 -17 -6 -33t-17.5 -28.5t-27.5 -20.5t-36 -8z" />
    <glyph glyph-name="quoteleft" unicode="&#x2018;" horiz-adv-x="273" 
d="M135 541q-23 0 -39 9t-26 24t-15 34t-5 39q0 25 8 49.5t22 45t34.5 36t46.5 22.5q-18 -16 -18 -40q0 -15 5 -23.5t12.5 -13.5t15.5 -9t14 -9q16 -14 24.5 -34.5t7.5 -40.5q0 -15 -6 -31t-16.5 -29t-25.5 -21t-34 -8h-5z" />
    <glyph glyph-name="bullet" unicode="&#x2022;" 
d="M138 488q36 0 61.5 -25.5t25.5 -61.5q0 -37 -25.5 -62.5t-61.5 -25.5t-62 25.5t-26 62.5q0 36 26 61.5t62 25.5z" />
    <glyph glyph-name="at" unicode="@" horiz-adv-x="543" 
d="M342 505h58l-24 -127q-2 -11 -3.5 -18t-1.5 -11q0 -21 16 -21q10 0 19.5 9t17.5 24t13 34t5 39q0 30 -10.5 56t-30.5 45.5t-49 30.5t-66 11q-38 0 -71 -14t-57 -38.5t-38 -57.5t-14 -72q0 -38 13 -70t35.5 -55t53 -35.5t66.5 -12.5q58 0 105 34l30 -44q-56 -42 -132 -42
q-49 0 -90.5 17t-72 47.5t-47.5 72t-17 89.5q0 49 18 91.5t49.5 74t74 49.5t91.5 18q48 0 86.5 -15.5t66 -42t42.5 -62t15 -75.5q0 -38 -11 -67t-27.5 -48.5t-35.5 -29t-35 -9.5q-20 0 -33.5 10.5t-18.5 26.5q-12 -19 -34 -31t-48 -12q-19 0 -36 7.5t-30 21t-20.5 33
t-7.5 43.5q0 29 10.5 53.5t27 42t37 27.5t41.5 10q23 0 40 -9t25 -23zM280 451q-20 0 -39 -19t-19 -50q0 -23 12.5 -36t30.5 -13q20 0 38.5 19t18.5 51q0 23 -11.5 35t-30.5 13z" />
    <glyph glyph-name="threequarters" unicode="&#xbe;" horiz-adv-x="803" 
d="M166 9l359 791h142l-364 -791h-137zM74 665v15q2 34 12.5 58t26 39.5t35 22.5t39.5 7q34 0 55.5 -12t33.5 -30t16.5 -38t4.5 -36q0 -34 -6 -59.5t-30 -51.5l22 -18t11 -10t5.5 -8.5t4.5 -12.5q12 -32 12 -65q0 -21 -7 -45.5t-23 -45.5t-42 -35t-63 -14q-60 0 -95.5 39.5
t-35.5 122.5h82l5 -41q2 -15 15.5 -29t27.5 -14q13 0 23 6.5t17 17t10.5 23.5t3.5 26q0 19 -4.5 31.5t-16 20t-32.5 10.5t-54 3v74q20 0 37 1.5t29.5 7.5t19.5 17.5t7 32.5q0 55 -31 55q-14 0 -26.5 -15.5t-12.5 -47.5v-2h-76zM617 15v108h-124l-41 65l166 332l95 -17v-292
h40v-87h-36v-109h-100zM616 344l-68 -132h68v132z" />
    <glyph glyph-name="onequarter" unicode="&#xbc;" horiz-adv-x="690" 
d="M53 8l358 792h143l-364 -792h-137zM162 800v-391h-112v391h112zM503 15v108h-124l-41 65l166 332l95 -18v-291h41v-87h-37v-109h-100v0zM503 344l-69 -132h68z" />
    <glyph glyph-name="onehalf" unicode="&#xbd;" horiz-adv-x="695" 
d="M53 8l358 792h143l-364 -792h-137zM645 8h-208l-33 58l33 44l42 57t37 60l15.5 31.5t10 24.5t5.5 21.5t2 23.5q0 22 -8.5 32.5t-19.5 10.5q-31 0 -31 -65h-79v25q0 22 7 43.5t21.5 38t35.5 26.5t48 10q25 0 45.5 -11t35 -28.5t22 -39.5t7.5 -45q0 -32 -10.5 -60
l-22.5 -61q-2 -4 -7.5 -16.5l-13 -29t-17 -34t-18.5 -32.5h101v-84zM162 800v-391h-112v391h112z" />
    <glyph glyph-name="onethird" unicode="&#x2153;" horiz-adv-x="714" 
d="M53 8l358 792h143l-365 -792h-136zM423 338v15q1 33 11.5 57t26 39.5t35 23t40.5 7.5q34 0 55.5 -12t33.5 -30t16.5 -38.5t4.5 -37.5t-1 -31.5t-5 -27t-11 -25t-19 -25.5q15 -12 22 -18.5l11 -10.5t5.5 -8.5t4.5 -11.5q6 -15 8.5 -31t2.5 -32q0 -21 -7 -46t-22.5 -46.5
t-41.5 -35.5t-63 -14q-62 0 -96.5 39.5t-34.5 122.5h82l4 -41q4 -14 16.5 -28.5t27.5 -14.5q13 0 23 7t17 17.5t10.5 23.5t3.5 25q0 18 -4 30.5t-15.5 20t-32.5 11t-55 3.5l-1 73q21 0 38.5 2t30 8t19 18.5t6.5 33.5q0 53 -31 53q-14 0 -26.5 -15.5t-12.5 -47.5v-2h-76z
M162 800v-391h-112v391h112z" />
    <glyph glyph-name="quotesingle" unicode="'" horiz-adv-x="182" 
d="M69 549l-19 251h82l-21 -251h-42z" />
    <glyph glyph-name="quotedbl" unicode="&#x22;" horiz-adv-x="312" 
d="M69 549l-19 251h82l-21 -251h-42zM199 549l-19 251h82l-21 -251h-42z" />
    <glyph glyph-name="backslash" unicode="\" horiz-adv-x="623" 
d="M421 0l-371 800h153l370 -800h-1h-151z" />
    <glyph glyph-name="L" unicode="L" horiz-adv-x="443" 
d="M50 800h159v-680h184v-120h-343v800z" />
    <glyph glyph-name="K" unicode="K" horiz-adv-x="536" 
d="M327 0l-124 258l-12 -19l1 -239h-142v800h143v-243l114 243h169l-186 -370l196 -430h-159z" />
    <glyph glyph-name="J" unicode="J" horiz-adv-x="483" 
d="M50 292h143v-104q0 -12 1.5 -26t6 -25.5t14 -19t24.5 -7.5q17 0 25.5 8t12.5 20t4 26v26v610h152v-607q0 -40 -14 -76t-39 -63t-59 -43t-74 -16q-44 0 -80 15t-62 41.5t-40.5 61.5t-14.5 75v104z" />
    <glyph glyph-name="M" unicode="M" horiz-adv-x="615" 
d="M50 0v800h162l88 -344l97 343h168v-799h-155v358l-108 -354l-107 354v-358h-145z" />
  </font>
</defs>
</svg>
