<svg xmlns="http://www.w3.org/2000/svg" width="57.001" height="91.799" viewBox="0 0 57.001 91.799">
  <g id="menu_4_" data-name="menu (4)" transform="translate(-95.443 -1.618)">
    <path id="Path_693" data-name="Path 693" d="M168.545,19.765v-7.7a3.094,3.094,0,0,0-3.594-3.309l-2.375.57-39.1,10.807Z" transform="translate(-20.851 -7.1)" fill="#ffa800"/>
    <path id="Path_694" data-name="Path 694" d="M163.8,14.758v7.7l-41.012.518,39.793-10.952a3.572,3.572,0,0,1,1.219,2.739Z" transform="translate(-20.851 -9.789)" fill="#ffe100"/>
    <path id="Path_695" data-name="Path 695" d="M139.694,68.254h44.334a3.167,3.167,0,0,1,3.167,3.167v74.418a3.167,3.167,0,0,1-3.167,3.167H139.694a3.167,3.167,0,0,1-3.167-3.167V71.421A3.167,3.167,0,0,1,139.694,68.254Z" transform="translate(-34.75 -55.589)" fill="#ffa800"/>
    <path id="Path_696" data-name="Path 696" d="M105.561,68.254h44.334a3.167,3.167,0,0,1,3.167,3.167v74.418a3.167,3.167,0,0,1-3.167,3.167H105.561a3.167,3.167,0,0,1-3.167-3.167V71.421A3.167,3.167,0,0,1,105.561,68.254Z" transform="translate(-6.951 -55.589)" fill="#fff"/>
    <path id="Path_697" data-name="Path 697" d="M131.161,68.254h41.167a3.167,3.167,0,0,1,3.167,3.167v74.418a3.167,3.167,0,0,1-3.167,3.167H131.161a3.167,3.167,0,0,1-3.167-3.167V71.421A3.167,3.167,0,0,1,131.161,68.254Z" transform="translate(-27.801 -55.589)" fill="#ffe100"/>
    <g id="Group_533" data-name="Group 533" transform="translate(109.693 20.1)">
      <path id="Path_700" data-name="Path 700" d="M291.094,119.52v9.5a1.588,1.588,0,0,1-1.583,1.583h-1.583v20.584a3.167,3.167,0,1,1-6.334,0V108.326l1.567.222C288.624,109.324,291.094,114.01,291.094,119.52Z" transform="translate(-262.594 -108.326)" fill="#63d3fd"/>
      <path id="Path_701" data-name="Path 701" d="M191.86,151.624v4.75a4.7,4.7,0,0,1-3.167,4.465v25.619a3.167,3.167,0,1,1-6.334,0V160.839a4.7,4.7,0,0,1-3.167-4.465v-4.75a3.1,3.1,0,0,0,.934,2.233,3.157,3.157,0,0,0,5.4-2.233,3.1,3.1,0,0,0,.934,2.233,3.157,3.157,0,0,0,5.4-2.233Z" transform="translate(-179.193 -143.59)" fill="#63d3fd"/>
    </g>
    <g id="Group_534" data-name="Group 534" transform="translate(97.026 0)">
      <path id="Path_702" data-name="Path 702" d="M277.811,148.986a4.755,4.755,0,0,1-4.75-4.75V101.373a1.584,1.584,0,0,1,1.805-1.568l1.568.222c5.733.815,9.294,5.62,9.294,12.541v9.5a3.17,3.17,0,0,1-3.167,3.167v19a4.756,4.756,0,0,1-4.75,4.75ZM276.228,103.2v41.035a1.583,1.583,0,0,0,3.167,0V123.652a1.583,1.583,0,0,1,1.583-1.583h1.583v-9.5C282.561,110.056,281.938,104.168,276.228,103.2Z" transform="translate(-242.976 -81.274)"/>
      <path id="Path_703" data-name="Path 703" d="M206.377,111.474a1.583,1.583,0,0,1-1.583-1.583v-7.917a1.583,1.583,0,1,1,3.167,0v7.917A1.583,1.583,0,0,1,206.377,111.474Z" transform="translate(-187.376 -81.764)"/>
      <path id="Path_704" data-name="Path 704" d="M178.577,184.258a4.755,4.755,0,0,1-4.75-4.75V154.9a6.3,6.3,0,0,1-3.167-5.48v-4.75a1.583,1.583,0,0,1,3.167,0,1.517,1.517,0,0,0,.455,1.1,1.575,1.575,0,0,0,2.711-1.1,1.583,1.583,0,0,1,3.167,0,1.517,1.517,0,0,0,.455,1.1,1.575,1.575,0,0,0,2.711-1.1,1.583,1.583,0,0,1,3.167,0v4.75a6.3,6.3,0,0,1-3.167,5.48v24.6a4.755,4.755,0,0,1-4.75,4.75Zm-4.75-35.107v.273a3.122,3.122,0,0,0,2.1,2.967,1.583,1.583,0,0,1,1.072,1.5v25.619a1.583,1.583,0,1,0,3.167,0V153.889a1.583,1.583,0,0,1,1.072-1.5,3.122,3.122,0,0,0,2.1-2.967v-.271a4.858,4.858,0,0,1-4.745-.946A4.875,4.875,0,0,1,173.827,149.152Z" transform="translate(-159.576 -116.54)"/>
      <path id="Path_705" data-name="Path 705" d="M240.511,111.508a1.583,1.583,0,0,1-1.583-1.583v-7.917a1.583,1.583,0,1,1,3.167,0v7.917A1.583,1.583,0,0,1,240.511,111.508Z" transform="translate(-215.177 -81.791)"/>
      <path id="Path_706" data-name="Path 706" d="M172.244,111.508a1.583,1.583,0,0,1-1.583-1.583v-7.917a1.583,1.583,0,0,1,3.167,0v7.917A1.583,1.583,0,0,1,172.244,111.508Z" transform="translate(-159.577 -81.791)"/>
      <path id="Path_707" data-name="Path 707" d="M240.51,163.411a1.61,1.61,0,0,1-1.124-.475,1.559,1.559,0,0,1-.333-.506,1.581,1.581,0,0,1-.126-.6,1.6,1.6,0,0,1,.459-1.124,1.658,1.658,0,0,1,2.248,0,1.608,1.608,0,0,1,.459,1.124,1.645,1.645,0,0,1-.459,1.108,1.543,1.543,0,0,1-.254.206c-.079.048-.174.1-.269.143l-.285.1A2.178,2.178,0,0,1,240.51,163.411Z" transform="translate(-215.176 -130.527)"/>
      <path id="Path_708" data-name="Path 708" d="M185.878,419.292H163.711a1.583,1.583,0,0,1,0-3.167h22.167a1.583,1.583,0,1,1,0,3.167Z" transform="translate(-152.627 -338.913)"/>
      <path id="Path_709" data-name="Path 709" d="M320.477,419.292H317.31a1.583,1.583,0,0,1,0-3.167h3.167a1.583,1.583,0,0,1,0,3.167Z" transform="translate(-277.726 -338.913)"/>
      <path id="Path_710" data-name="Path 710" d="M278.777,453.425H266.11a1.583,1.583,0,0,1,0-3.167h12.667a1.583,1.583,0,1,1,0,3.167Z" transform="translate(-236.026 -366.713)"/>
      <path id="Path_711" data-name="Path 711" d="M225.028,453.425h-1.583a1.583,1.583,0,1,1,0-3.167h1.583a1.583,1.583,0,1,1,0,3.167Z" transform="translate(-201.277 -366.713)"/>
      <path id="Path_712" data-name="Path 712" d="M168.461,453.425h-4.75a1.583,1.583,0,1,1,0-3.167h4.75a1.583,1.583,0,1,1,0,3.167Z" transform="translate(-152.627 -366.713)"/>
    </g>
  </g>
</svg>
