<?xml version="1.0" encoding="utf-8"?>
<!-- Generator: Adobe Illustrator 25.0.0, SVG Export Plug-In . SVG Version: 6.00 Build 0)  -->
<svg version="1.1" id="形状_1_1_" xmlns="http://www.w3.org/2000/svg" xmlns:xlink="http://www.w3.org/1999/xlink" x="0px"
	 y="0px" viewBox="0 0 512 512" style="enable-background:new 0 0 512 512;" xml:space="preserve">
<style type="text/css">
	.st0{fill-rule:evenodd;clip-rule:evenodd;fill:#FFFFFF;}
</style>
<g id="形状_1">
	<g>
		<path class="st0" d="M381.6,270.9c-0.6-58.3,47.5-86.2,49.7-87.6c-27-39.5-69.2-45-84.1-45.6c-35.8-3.6-69.9,21.1-88.1,21.1
			c-18.1,0-46.2-20.6-75.9-20c-39.1,0.6-75.1,22.7-95.2,57.7c-40.6,70.4-10.4,174.7,29.2,231.8c19.3,27.9,42.4,59.3,72.6,58.2
			c29.2-1.2,40.2-18.9,75.4-18.9c35.2,0,45.1,18.9,76,18.3c31.3-0.6,51.2-28.5,70.4-56.5c22.2-32.4,31.3-63.8,31.9-65.4
			C442.7,363.7,382.2,340.5,381.6,270.9z M323.7,99.9c16-19.5,26.9-46.5,24-73.5c-23.2,0.9-51.2,15.4-67.8,34.8
			c-14.9,17.3-27.9,44.7-24.4,71.2C281.2,134.5,307.6,119.3,323.7,99.9z"/>
	</g>
</g>
</svg>
