<svg xmlns="http://www.w3.org/2000/svg" width="47.567" height="31.725" viewBox="0 0 47.567 31.725">
  <path id="Icon_ionic-ios-arrow-round-back" data-name="Icon ionic-ios-arrow-round-back" d="M17.233.607a2.159,2.159,0,0,1,.017,3.04L7.22,13.709H45.436a2.148,2.148,0,0,1,0,4.3H7.22L17.266,28.067a2.174,2.174,0,0,1-.017,3.04,2.139,2.139,0,0,1-3.024-.017L.611,17.377h0A2.412,2.412,0,0,1,.165,16.7,2.05,2.05,0,0,1,0,15.874a2.153,2.153,0,0,1,.611-1.5L14.226.657A2.1,2.1,0,0,1,17.233.607Z" transform="translate(47.567 31.725) rotate(180)" fill="#000846"/>
</svg>
