<?xml version="1.0" encoding="utf-8"?>
<!-- Generator: Adobe Illustrator 25.0.0, SVG Export Plug-In . SVG Version: 6.00 Build 0)  -->
<svg version="1.1" id="Layer_1" xmlns="http://www.w3.org/2000/svg" xmlns:xlink="http://www.w3.org/1999/xlink" x="0px" y="0px"
	 viewBox="0 0 1058.3 707" style="enable-background:new 0 0 1058.3 707;" xml:space="preserve">
<style type="text/css">
	.st0{fill:#DCF6F9;}
	.st1{fill:#BCECF7;}
	.st2{fill:#FFFFFF;}
	.st3{fill:#92BCB5;}
</style>
<g id="Group_357" transform="translate(-1497.958 -612.784)">
	<g id="Group_40" transform="translate(2127.422 956.233)">
		<g id="Group_39" transform="translate(0)">
			<g id="Group_22" transform="translate(0 32.751)">
				<path id="Path_1" class="st0" d="M8.4,9.1C12.2,11.5,14,11,15,9.5s0.6-3.4-3.2-5.7C5-0.5,0,0,0,0S1.5,4.7,8.4,9.1z"/>
			</g>
			<g id="Group_23" transform="translate(2.55 59.252)">
				<path id="Path_2" class="st0" d="M5,11.3c2.8,3.5,4.7,3.6,6,2.5s1.6-3-1.1-6.5C4.9,1.1,0,0,0,0S-0.1,4.9,5,11.3z"/>
			</g>
			<g id="Group_38" transform="translate(6.621)">
				<g id="Group_25" transform="translate(0 43.948)">
					<g id="Group_24">
						<path id="Path_3" class="st0" d="M0,101.4l0.8,0c0-0.1-0.6-13.1,4.4-32C10,52,20.5,25.9,44.3,0.6L43.7,0
							C19.8,25.5,9.2,51.7,4.5,69.2C-0.6,88.1,0,101.3,0,101.4z"/>
					</g>
				</g>
				<g id="Group_27" transform="translate(11.608 18.179)">
					<g id="Group_26">
						<path id="Path_4" class="st0" d="M8.4,58l0.7-0.4C-6.4,31.4,4.6,0.6,4.7,0.3L3.9,0C3.8,0.3-7.3,31.5,8.4,58z"/>
					</g>
				</g>
				<g id="Group_29" transform="translate(29.141 58.577)">
					<g id="Group_28">
						<path id="Path_5" class="st0" d="M4,4.5c5.3,0.1,10.5-1.2,15.2-3.8L18.7,0c-0.1,0.1-8.5,5.2-18.5,3.2L0,4
							C1.3,4.3,2.6,4.4,4,4.5z"/>
					</g>
				</g>
				<g id="Group_31" transform="translate(40.56 31.898)">
					<g id="Group_30">
						<path id="Path_6" class="st0" d="M4.4,8c-4.6,3.8-5,6.1-3.9,7.4s3.4,1.3,8-2.6C16.8,5.8,18.8,0,18.8,0S12.9,0.9,4.4,8z"/>
					</g>
				</g>
				<g id="Group_33" transform="translate(39.996 53.146)">
					<g id="Group_32">
						<path id="Path_7" class="st0" d="M6.1,3.4c-5.5,2.3-6.6,4.3-6,5.9S3,11.4,8.5,9.2C18.6,5,22.3,0.1,22.3,0.1S16.4-0.9,6.1,3.4z
							"/>
					</g>
				</g>
				<g id="Group_35" transform="translate(24.51 38.669)">
					<g id="Group_34">
						<path id="Path_8" class="st0" d="M0.5,10.7C-0.7,15,0.3,16.6,2,17.1s3.4-0.4,4.5-4.7C8.7,4.6,6.7,0,6.7,0S2.7,2.8,0.5,10.7z"
							/>
					</g>
				</g>
				<g id="Group_37" transform="translate(13.069)">
					<g id="Group_36">
						<path id="Path_9" class="st0" d="M0.8,14.7c-1.6,5.8-0.7,7.8,1,8.3s3.5-0.9,5.1-6.6C9.8,5.9,8.2,0,8.2,0S3.8,4.1,0.8,14.7z"/>
					</g>
				</g>
			</g>
		</g>
	</g>
	<g id="Group_41" transform="translate(2053.272 758.747)">
		<path id="Path_10" class="st0" d="M0,200C0,200,112.1-29.8,169.3,3.3S62.2,140.4,31.6,208.4L0,200z"/>
	</g>
	<g id="Group_45" transform="translate(2035.744 815.476)">
		<g id="Group_42">
			<path id="Path_11" class="st1" d="M0,145.5c0,0,176.6-190.2,233.4-135.7S83,108.5,33.6,165.7L0,145.5z"/>
		</g>
		<g id="Group_44" transform="translate(17.216 31.225)">
			<g id="Group_43">
				<path id="Path_12" class="st2" d="M1.5,125.8c33.5-40.1,82.3-71.6,117.3-91C141,22.4,164,11.4,187.6,2L187,0
					c-23.7,9.5-46.7,20.5-69,32.9C82.7,52.3,33.7,84,0,124.4L1.5,125.8z"/>
			</g>
		</g>
	</g>
	<g id="Group_55" transform="translate(2209.953 953.522)">
		<g id="Group_47" transform="translate(0)">
			<g id="Group_46">
				<path id="Path_13" class="st1" d="M268.5,100.3c-32.7,23-5.9,77.9-50.5,84.2c-44.6,6.3-42.2,2.1-54.9,29c0,0-1,21.3-16.1,31
					C87.5,282.9-36.3,219.1,10.2,136.2c3.4-6,9.8-10.4,17.1-14.9c39.5-24.4,60.1-9.4,74-75.7c14-66.3,86.4-9.7,113.6-24.1
					s48.8-33.7,82.3-11.2C330.8,32.9,301.3,77.2,268.5,100.3z"/>
			</g>
		</g>
		<g id="Group_54" transform="translate(54.996 17.207)">
			<g id="Group_49">
				<g id="Group_48">
					<path id="Path_14" class="st2" d="M2.1,183.4L0,181.8C0.6,180.8,67.2,81.6,250.7,0l1,2.5C68.8,83.8,2.8,182.4,2.1,183.4z"/>
				</g>
			</g>
			<g id="Group_51" transform="translate(144.925 55.566)">
				<g id="Group_50">
					<path id="Path_15" class="st2" d="M6.1,5.1C2.3,3.8,0.1,2.7,0,2.7l1.1-2.5C1.5,0.4,47.5,21.9,95.8,0l1,2.5
						C57.9,20.2,20.5,10.2,6.1,5.1z"/>
				</g>
			</g>
			<g id="Group_53" transform="translate(164.006 63.981)">
				<g id="Group_52">
					<path id="Path_16" class="st2" d="M32.5,45.6c-16-8.6-23.9-20.4-27.8-28.9C2.2,11.5,0.6,5.9,0,0.2L2.6,0
						c0,0.3,1.9,27.5,31.1,43.2L32.5,45.6z"/>
				</g>
			</g>
		</g>
	</g>
	<g id="Group_56" transform="translate(1515.612 1167.668)">
		<ellipse id="Ellipse_1" class="st0" cx="520.3" cy="76.1" rx="520.3" ry="76.1"/>
	</g>
	<g id="Group_75" transform="translate(1637.373 763.529)">
		<g id="Group_74" transform="translate(0 0)">
			<g id="Group_57" transform="translate(53.495 32.751)">
				<path id="Path_17" class="st0" d="M7,9.1C3.2,11.5,1.4,11,0.4,9.5s-0.6-3.4,3.2-5.7C10.4-0.5,15.4,0,15.4,0S13.9,4.7,7,9.1z"/>
			</g>
			<g id="Group_58" transform="translate(54.269 59.252)">
				<path id="Path_18" class="st0" d="M7,11.3c-2.8,3.5-4.7,3.6-6,2.5s-1.6-3,1.1-6.5c5-6.3,9.9-7.4,9.9-7.4S12.2,4.9,7,11.3z"/>
			</g>
			<g id="Group_73">
				<g id="Group_60" transform="translate(18 43.948)">
					<g id="Group_59">
						<path id="Path_19" class="st0" d="M44.2,101.4l-0.8,0c0-0.1,0.6-13.1-4.4-32C34.3,52,23.8,25.9,0,0.6L0.6,0
							c23.9,25.5,34.5,51.7,39.2,69.2C44.8,88.2,44.2,101.3,44.2,101.4z"/>
					</g>
				</g>
				<g id="Group_62" transform="translate(41.553 18.179)">
					<g id="Group_61">
						<path id="Path_20" class="st0" d="M0.7,58L0,57.6c15.5-26.2,4.5-57,4.4-57.3L5.2,0C5.3,0.3,16.4,31.5,0.7,58z"/>
					</g>
				</g>
				<g id="Group_64" transform="translate(13.979 58.577)">
					<g id="Group_63">
						<path id="Path_21" class="st0" d="M15.2,4.5C9.9,4.6,4.6,3.3,0,0.7L0.4,0C0.5,0.1,9,5.2,19,3.2L19.1,4
							C17.8,4.3,16.5,4.4,15.2,4.5z"/>
					</g>
				</g>
				<g id="Group_66" transform="translate(2.875 31.898)">
					<g id="Group_65">
						<path id="Path_22" class="st0" d="M14.4,8c4.6,3.8,5,6.1,3.9,7.4s-3.4,1.3-8-2.6C2,5.8,0,0,0,0S5.9,0.9,14.4,8z"/>
					</g>
				</g>
				<g id="Group_68" transform="translate(0 53.146)">
					<g id="Group_67">
						<path id="Path_23" class="st0" d="M16.1,3.4c5.5,2.3,6.6,4.3,6,5.9s-2.8,2.2-8.4-0.1C3.7,5,0,0.1,0,0.1S5.9-0.9,16.1,3.4z"/>
					</g>
				</g>
				<g id="Group_70" transform="translate(30.209 38.669)">
					<g id="Group_69">
						<path id="Path_24" class="st0" d="M7,10.7c1.2,4.3,0.2,5.9-1.5,6.4S2.1,16.7,1,12.4C-1.1,4.6,0.9,0,0.9,0S4.9,2.8,7,10.7z"/>
					</g>
				</g>
				<g id="Group_72" transform="translate(40.545)">
					<g id="Group_71">
						<path id="Path_25" class="st0" d="M7.8,14.7c1.6,5.8,0.7,7.8-1,8.3s-3.5-0.9-5.1-6.6C-1.2,5.9,0.4,0,0.4,0S4.9,4.1,7.8,14.7z"
							/>
					</g>
				</g>
			</g>
		</g>
	</g>
	<g id="Group_76" transform="translate(1711.731 854.291)">
		<path id="Path_26" class="st0" d="M80.3,158.8c0,0-22.3-166.3-67.2-158.5S52.8,108.4,57.7,157L80.3,158.8z"/>
	</g>
	<g id="Group_80" transform="translate(1593.999 843.78)">
		<g id="Group_77">
			<path id="Path_27" class="st3" d="M188.5,178.6c0,0-107.8-206.9-173.8-175.3s108.9,122.5,138,183.7L188.5,178.6z"/>
		</g>
		<g id="Group_79" transform="translate(34.226 28.949)">
			<g id="Group_78">
				<path id="Path_28" class="st2" d="M134.4,154.5c-19.3-42.6-54.8-82-81.2-107.5C36.4,30.8,18.6,15.6,0,1.5L1.1,0
					c18.7,14.1,36.5,29.4,53.4,45.7c26.5,25.6,62.2,65.1,81.6,108L134.4,154.5z"/>
			</g>
		</g>
	</g>
	<g id="Group_94" transform="translate(1497.958 956.494)">
		<g id="Group_82" transform="translate(0 0)">
			<g id="Group_81">
				<path id="Path_29" class="st0" d="M172.8,183.5c-11.5-24.7-13.6-18.5-58-16.7C83,168,83.1,141,72.6,120.1
					c-0.2-0.4-0.4-0.8-0.6-1.1c-4.1-7.8-9.8-14.6-19.3-18.7c-10.3-4.4-20.1-10.1-28.9-17c-0.7-0.6-1.4-1.1-2.1-1.7
					c-17-14.2-27.4-32-18.3-47.8c0.2-0.4,0.4-0.7,0.7-1.1c1.9-2.8,4.1-5.4,6.7-7.6c29.1-25.6,53.1-11.9,81.8-3.6
					C108.5,26,134.4,9,158.5,2.5c0.3-0.1,0.7-0.2,1-0.3c19.1-4.9,36.9-3,47.4,21.9c0,0,0,0,0,0c0.2,0.5,0.4,1,0.6,1.5
					c23.6,54.9,41.3,38.6,83.2,53.7c7.8,2.8,16.8,4.6,18.9,10.5C365.6,245.9,200.3,242.8,172.8,183.5z"/>
			</g>
		</g>
		<g id="Group_93" transform="translate(3.11 2.063)">
			<g id="Group_84" transform="translate(0 30.44)">
				<g id="Group_83">
					<path id="Path_30" class="st2" d="M270.9,122.2l1.8-1.7C271.9,119.6,191.8,42.4,0.6,0L0,2.4
						C190.5,44.6,270.1,121.4,270.9,122.2z"/>
				</g>
			</g>
			<g id="Group_86" transform="translate(165.166 21.495)">
				<g id="Group_85">
					<path id="Path_31" class="st2" d="M1.3,35.5C31.3,18.4,39.4,1.7,39.8,1l-2.3-1C37.4,0.2,29.2,16.7,0,33.4L1.3,35.5z"/>
				</g>
			</g>
			<g id="Group_88" transform="translate(154.013)">
				<g id="Group_87">
					<path id="Path_32" class="st2" d="M2.6,82.2c9.7-10.8,12.7-28.4,8.7-51.1C9.4,20.5,6.4,10,2.4,0L0,0.9
						c0.2,0.5,22.9,54.9,0.7,79.7L2.6,82.2z"/>
				</g>
			</g>
			<g id="Group_90" transform="translate(18.25 62.795)">
				<g id="Group_89">
					<path id="Path_33" class="st2" d="M88.7,5.2c3.5-1.8,5.5-3.1,5.6-3.2l-1.4-2C92.4,0.3,51,26.9,0.6,15.4L0,17.8
						C40.6,27.1,75.5,12.1,88.7,5.2z"/>
				</g>
			</g>
			<g id="Group_92" transform="translate(68.712 73.226)">
				<g id="Group_91">
					<path id="Path_34" class="st2" d="M1.5,45.8c14.2-10.2,20.1-22.1,22.6-30.2c1.6-5,2.3-10.3,2-15.5l-2.5,0.3
						C23.6,0.5,26,25,0,43.8L1.5,45.8z"/>
				</g>
			</g>
		</g>
	</g>
	<g id="Group_95" transform="translate(1594.905 923.098)">
		<path id="Path_35" class="st0" d="M10.1,15.2C0.7,11.7-1,7.7,0.4,4s5.3-5.6,14.7-2.2C32.2,8.2,38,17.9,38,17.9
			S27.5,21.6,10.1,15.2z"/>
	</g>
</g>
</svg>
