<?xml version="1.0" encoding="utf-8"?>
<!-- Generator: Adobe Illustrator 25.0.0, SVG Export Plug-In . SVG Version: 6.00 Build 0)  -->
<svg version="1.1" id="Layer_1" xmlns="http://www.w3.org/2000/svg" xmlns:xlink="http://www.w3.org/1999/xlink" x="0px" y="0px"
	 viewBox="0 0 1058.3 707" style="enable-background:new 0 0 1058.3 707;" xml:space="preserve">
<style type="text/css">
	.st0{fill:#FCBDB6;}
	.st1{fill:#333333;}
	.st2{fill:#FF7B69;}
	.st3{fill:#1C3A3E;}
	.st4{fill:#020202;}
	.st5{fill:#501506;}
	.st6{fill:#E9633E;}
	.st7{fill:#FFFFFF;}
	.st8{fill:#080435;}
	.st9{fill:#49ADB7;}
	.st10{opacity:0.3;}
	.st11{fill:#BCECF7;}
	.st12{opacity:0.5;}
	.st13{fill:#EC865C;}
	.st14{fill:#E9845C;}
	.st15{fill:#8BC0CC;}
	.st16{fill:#24555E;}
	.st17{fill:#356B72;}
	.st18{fill:#DCF6F9;}
	.st19{fill:#92BCB5;}
	.st20{fill:#275D78;}
	.st21{fill:#DAEBE8;}
</style>
<g id="Group_357" transform="translate(-1497.958 -612.784)">
	<g id="Group_259" transform="translate(2276.772 909.893)">
		<g id="Group_201" transform="translate(23.906 56.479)">
			<path id="Path_99" class="st0" d="M20.1,0C19.3,0.3,6.7,3.7,1,22.9s13.2,4,13.2,4L20.1,0z"/>
		</g>
		<g id="Group_202" transform="translate(41.697 320.127)">
			<path id="Path_100" class="st1" d="M19,0c0,0-0.2,6.9-4.8,8.8s-18.1,3.7-13.1,8.1c2.9,2.5,16.5,0.9,20.4,0.9s7.5,1.7,10.3-0.9
				c3.1-2.8,0-16.9,0-16.9c-2,1-4.1,1.6-6.3,1.7C23.2,1.7,21,1.1,19,0z"/>
		</g>
		<g id="Group_203" transform="translate(95.142 320.125)">
			<path id="Path_101" class="st1" d="M19,0c0,0-0.2,6.9-4.8,8.8s-18.1,3.7-13.1,8.1c2.9,2.5,16.5,0.9,20.4,0.9s7.5,1.7,10.3-0.9
				c3.1-2.8,0-16.9,0-16.9c-2,1-4.1,1.6-6.3,1.7C23.2,1.7,21,1.1,19,0z"/>
		</g>
		<g id="Group_204" transform="translate(26.122 131.587)">
			<path id="Path_102" class="st2" d="M0,0c0,0-0.9,28.8,8.3,84c6.6,39.9,14.5,80,18.3,99.3c1.3,6.8,7.1,11.9,14,12.2l3.7,0.1
				c7,0.2,12.8-5.3,12.9-12.3c0-0.5,0-0.9,0-1.4L48,51.7L45.7,8.8L0,0z"/>
		</g>
		<g id="Group_205" transform="translate(22.979 142.182)">
			<path id="Path_103" class="st1" d="M87.2,14.7c-0.4,3.5-20.2,3.1-44.5,0S-0.4,6.4,0,2.9S20-1,44.3,2.1S87.6,11.2,87.2,14.7z"/>
		</g>
		<g id="Group_206" transform="translate(53.978 149.451)">
			<path id="Path_104" class="st2" d="M0,2.7l51.8,166.4c2.1,6.9,8.4,11.7,15.6,11.9l3.1,0.1c6.5,0,11.8-5.3,11.8-11.8
				c0-0.8-0.1-1.5-0.2-2.3L53.8,10.6c-0.4-1.8-1.8-3.3-3.6-3.9C40.5,3.9-0.9-4.2,0,2.7z"/>
		</g>
		<g id="Group_207" transform="translate(22.986 42.605)">
			<path id="Path_105" class="st3" d="M79.1,18.5c0,0-6.9-19.4-31.4-18.5S4.6,33.2,0,102.5c0,0,40.2-8.8,87.3,11.7
				C87.3,114.2,89.9,46.8,79.1,18.5z"/>
		</g>
		<g id="Group_208" transform="translate(31.666 42.496)">
			<path id="Path_106" class="st3" d="M87.7,17.5L70.3,28.6c0,0-44.7,4.5-56.6,2.3S0,20,0,20C8.3,9.9,19.9,3.1,32.8,0.7
				c2.1-0.3,4.1-0.5,6.2-0.6c3.6-0.2,7.3-0.2,10.9,0.2C71.1,2.7,87.7,17.5,87.7,17.5z"/>
		</g>
		<g id="Group_209" transform="translate(51.497 174.002)">
			<path id="Path_107" class="st4" d="M25.6,52.5L14.5,18.6C12.1,11.1,6.9,4.7,0,0.8L0.4,0c7.1,4.1,12.4,10.6,14.9,18.4l11.1,33.9
				L25.6,52.5z"/>
		</g>
		<g id="Group_234" transform="translate(49.223 0)">
			<g id="Group_210" transform="translate(0.104 20.908)">
				<path id="Path_108" class="st5" d="M4.5,17.4c-0.1,0-3.3-0.8-4.2-3.1c-0.5-1.4-0.2-2.9,0.7-4.1c0.4-0.7,0.8-1.3,1.2-1.9
					c2.5-3.9,3.3-5.2,2.6-8.3L5,0c0.7,3.2-0.2,4.6-2.7,8.5C2,9.1,1.6,9.7,1.2,10.4c-0.8,1.1-1.1,2.5-0.6,3.8c0.9,2.1,4,2.9,4,2.9
					L4.5,17.4z"/>
			</g>
			<g id="Group_211" transform="translate(1.53 20.938)">
				<path id="Path_109" class="st5" d="M3.4,0C4,3.5,3.2,7.1,1.3,10.1C-2,15.2,1.6,19,6,17s6.1,3.7,11.8,0.5S3.4,0,3.4,0z"/>
			</g>
			<g id="Group_212" transform="translate(14.211 17.486)">
				<path id="Path_110" class="st0" d="M16.9,25.2c-2.4-0.3-4.6-1.8-5.5-4l-3-7.1l-0.9-2.1L2.2,0l0.9,12.5L3.7,20l0.2,2.1
					c0.1,1.7-1.1,3.3-2.8,3.6l0,0c-0.9,1.5-2.2,4.6,1.6,5.8C7.1,32.9,14.3,29.4,16.9,25.2L16.9,25.2z"/>
			</g>
			<g id="Group_213" transform="translate(17.332 29.308)">
				<path id="Path_111" class="st1" d="M5.2,2.1c0,0.1,0,0.1,0,0.2c-0.3,4-4.6,5.9-4.6,5.9l0,0L0,0.7c1.3-0.5,3.2-1,4.3-0.4
					C5,0.6,5.3,1.3,5.2,2.1z"/>
			</g>
			<g id="Group_214" transform="translate(4.126 5.002)">
				<ellipse id="Ellipse_10" class="st0" cx="11.7" cy="14.5" rx="11.7" ry="14.5"/>
			</g>
			<g id="Group_215" transform="translate(21.315 16.608)">
				<path id="Path_112" class="st0" d="M4.7,5.1C3.4,6.3,1.5,6.5,0.6,5.4s-0.7-3,0.7-4.3s3.2-1.4,4.2-0.3S6.1,3.8,4.7,5.1z"/>
			</g>
			<g id="Group_216" transform="translate(9.543 27.54)">
				<path id="Path_113" class="st6" d="M0,1.3c2.7,0,5.4-0.5,8-1.3c0.2,2.2-1.4,4-3.6,4.2c-0.1,0-0.3,0-0.4,0C1.5,4.4,0,1.3,0,1.3z"
					/>
			</g>
			<g id="Group_217" transform="translate(9.543 27.54)">
				<path id="Path_114" class="st7" d="M0,1.3c1,0.6,2.1,0.9,3.2,0.8C5.5,2.1,8,0,8,0C5.4,0.7,2.7,1.2,0,1.3z"/>
			</g>
			<g id="Group_219" transform="translate(14.532 18.843)">
				<g id="Group_218">
					<path id="Path_115" class="st8" d="M0.2,0.8C0.1,0.7,0,0.6,0,0.5c0-0.1,0.1-0.1,0.2-0.2C1.4-0.3,2.8,0,3.6,1
						c0.1,0.1,0.1,0.3,0,0.4c-0.1,0.1-0.3,0.1-0.4,0C2.4,0.9,1.4,0.7,0.4,0.8C0.3,0.8,0.3,0.8,0.2,0.8z"/>
				</g>
			</g>
			<g id="Group_220" transform="translate(15.168 21.432)">
				<path id="Path_116" class="st8" d="M1.7,1.1c0,0.6-0.3,1.2-0.8,1.2S0,1.8,0,1.2S0.3,0,0.8,0S1.7,0.5,1.7,1.1z"/>
			</g>
			<g id="Group_222" transform="translate(4.898 19.622)">
				<g id="Group_221">
					<path id="Path_117" class="st8" d="M0.3,1.4C0.2,1.4,0,1.3,0,1.2C0,1.1,0,1,0.1,0.9C1,0,2.4-0.3,3.6,0.3
						c0.1,0.1,0.2,0.2,0.1,0.4C3.6,0.8,3.5,0.9,3.4,0.8c-1-0.2-2,0-2.9,0.5C0.4,1.4,0.4,1.4,0.3,1.4z"/>
				</g>
			</g>
			<g id="Group_223" transform="translate(6.608 22.161)">
				<path id="Path_118" class="st8" d="M1.7,0.8C2,1.2,1.8,1.8,1.4,2.2C0.9,2.4,0.4,2,0.1,1.5C-0.2,1,0,0.4,0.4,0.1
					C0.8-0.1,1.4,0.2,1.7,0.8z"/>
			</g>
			<g id="Group_224" transform="translate(2.859)">
				<path id="Path_119" class="st5" d="M8,7.6c0,0,0.3,5,6.5,5.9s10.6,3.5,9.8,8s-11,13.9-3.5,17.5s5.9-3.1,13.9-1.6s9.5-9.2,4-15.4
					S35.4-0.7,14.6,0S1.4,17.4,1.4,17.4S8,13.2,8,7.6z"/>
			</g>
			<g id="Group_225" transform="translate(11.369 5.466)">
				<path id="Path_120" class="st7" d="M14.4,34.5c-1.4-0.4-2.4-1.5-2.9-2.8c-0.9-3.4,3-8.5,6.5-13c0.9-1.2,1.8-2.3,2.5-3.4
					c2.1-3,2.3-6.3,0.5-9.1c-2-3-5.8-4.2-9.9-3.3C8.3,3.9,5.3,3.6,2.6,2.3C1.6,1.8,0.7,1,0,0.1L0.1,0c0,0,3.3,4.7,11,2.9
					c4.2-1,8,0.3,10.1,3.4c1.8,2.9,1.6,6.6-0.5,9.3c-0.8,1.1-1.6,2.2-2.5,3.4c-3.4,4.5-7.3,9.5-6.4,12.8c0.4,1.3,1.5,2.3,2.8,2.7
					L14.4,34.5z"/>
			</g>
			<g id="Group_227" transform="translate(0 13.984)">
				<g id="Group_226">
					<path id="Path_121" class="st9" d="M4.8,16.3c-1.8-0.6-3.3-2.6-4.1-5.2c-1.4-4.3-0.4-9,2.1-10.6c0.9-0.6,2-0.7,3.1-0.3
						c1.8,0.6,3.3,2.6,4.1,5.2l0,0c1.4,4.2,0.4,9-2.1,10.6c-0.5,0.3-1.2,0.5-1.8,0.5C5.6,16.5,5.2,16.4,4.8,16.3z M9.4,5.6
						C8.7,3.1,7.2,1.3,5.6,0.7C4.8,0.4,3.8,0.5,3,1c-2.3,1.4-3.2,5.9-1.9,10c0.8,2.5,2.2,4.3,3.8,4.9c0.9,0.3,1.8,0.2,2.6-0.2
						C9.9,14.1,10.7,9.6,9.4,5.6L9.4,5.6z"/>
				</g>
			</g>
			<g id="Group_228" transform="translate(12.992 11.138)" class="st10">
				
					<ellipse id="Ellipse_11" transform="matrix(0.9999 -1.399863e-02 1.399863e-02 0.9999 -0.1107 7.715783e-02)" class="st7" cx="5.5" cy="7.9" rx="5.3" ry="7.9"/>
			</g>
			<g id="Group_229" transform="translate(0.695 14.363)" class="st10">
				<path id="Path_122" class="st7" d="M9.3,5.4c0.9,4.2-0.3,8.7-2.8,10.1s-5.3-0.8-6.2-5S0.6,1.8,3.1,0.4S8.4,1.2,9.3,5.4z"/>
			</g>
			<g id="Group_231" transform="translate(12.164 10.132)">
				<g id="Group_230">
					<path id="Path_123" class="st9" d="M4.1,16.5c-2-1.2-3.4-3.1-3.8-5.4C-0.7,6.7,0.9,1.9,4,0.4c1.2-0.6,2.6-0.6,3.8,0
						c2,1.2,3.4,3.1,3.8,5.4l0,0c1,4.4-0.6,9.2-3.7,10.6C7.3,16.8,6.7,17,6,17C5.3,16.9,4.7,16.8,4.1,16.5z M4.3,0.9
						c-2.9,1.4-4.4,5.9-3.4,10c0.4,2.1,1.6,4,3.5,5.1c1.1,0.5,2.3,0.5,3.4,0c2.9-1.4,4.4-5.9,3.4-10l0,0c-0.4-2.1-1.6-4-3.5-5.1
						C6.6,0.4,5.3,0.4,4.3,0.9L4.3,0.9z"/>
				</g>
			</g>
			<g id="Group_233" transform="translate(9.005 19.494)">
				<g id="Group_232">
					<path id="Path_124" class="st9" d="M0.5,1.8c0.1,0,0.2,0,0.3-0.1l0,0c1-0.7,2.3-0.9,3.5-0.6c0.3,0,0.5-0.1,0.6-0.4
						c0.1-0.3-0.1-0.5-0.4-0.6c0,0,0,0,0,0C3-0.2,1.4,0.1,0.2,1C0,1.1-0.1,1.4,0.1,1.6C0.2,1.8,0.3,1.8,0.5,1.8z"/>
				</g>
			</g>
		</g>
		<g id="Group_235" transform="translate(97.028 59.284)">
			<path id="Path_125" class="st1" d="M22.6,1.1c0.6,1.8-3.9,5-10.2,7.3s-11.7,2.7-12.3,1s3.9-5,10.2-7.3S22-0.7,22.6,1.1z"/>
		</g>
		<g id="Group_236" transform="translate(26.58 147.069)">
			<path id="Path_126" class="st2" d="M64.1,6.1c0,0-48.4-9.2-64.1-4.9l7.5,11.2l28,1.6L64.1,6.1z"/>
		</g>
		<g id="Group_237" transform="translate(52.286 124.824)">
			<path id="Path_127" class="st1" d="M7.4,3.7c0-2-1.7-3.7-3.7-3.7S0,1.7,0,3.7c0,2,1.7,3.7,3.7,3.7l0,0C5.7,7.4,7.4,5.7,7.4,3.7z"
				/>
		</g>
		<g id="Group_246" transform="translate(0 52.803)">
			<g id="Group_238" transform="translate(4.423 22.61)">
				<path id="Path_128" class="st9" d="M37.7,6.8c0,0-32.6-9.6-37.2,8.6s25.6,54.3,57.9,48S69.3-23.5,37.7,6.8z"/>
			</g>
			<g id="Group_239" transform="translate(9.855 7.697)">
				<path id="Path_129" class="st11" d="M16.1,10.3c0,0-17.8-0.4-16,7.4S24,21.2,24,21.2s-14.7,9.6-5.7,14.1s14.3-11.5,14.3-11.5
					s-0.4,10,8.2,8.4c8.6-1.6,0.3-10.7,0.3-10.7s11.2,8,12.8-0.2S49.1,5.6,37.1,8.9c0,0,2.5-7.1-2.9-8.2
					C16.6-3.1,16.1,10.3,16.1,10.3z"/>
			</g>
			<g id="Group_241">
				<g id="Group_240">
					<path id="Path_130" class="st11" d="M37.5,23.7c-0.5,0-1-0.2-1.3-0.6C23.7,6.1,1.6,3.1,1.4,3.1C0.5,3-0.1,2.2,0,1.3
						C0.2,0.5,0.9-0.1,1.8,0c1,0.1,23.6,3.1,37,21.2c0.5,0.7,0.4,1.7-0.3,2.2C38.2,23.6,37.9,23.7,37.5,23.7L37.5,23.7z"/>
				</g>
			</g>
			<g id="Group_242" transform="translate(51.028 51.98)">
				<path id="Path_131" class="st3" d="M6.5,8.7c0,0-1-10.8-5.2-8.3C-3.5,3.3,6.5,8.7,6.5,8.7z"/>
			</g>
			<g id="Group_243" transform="translate(29.687 47.392)">
				<path id="Path_132" class="st3" d="M6.5,8.7c0,0-1-10.8-5.2-8.3C-3.5,3.3,6.5,8.7,6.5,8.7z"/>
			</g>
			<g id="Group_244" transform="translate(42.513 64.155)">
				<path id="Path_133" class="st3" d="M6.5,8.7c0,0-1-10.8-5.2-8.3C-3.5,3.3,6.5,8.7,6.5,8.7z"/>
			</g>
			<g id="Group_245" transform="translate(59.42 70.737)">
				<path id="Path_134" class="st3" d="M6.5,8.7c0,0-1-10.8-5.2-8.3C-3.5,3.3,6.5,8.7,6.5,8.7z"/>
			</g>
		</g>
		<g id="Group_248" transform="translate(6.117 101.167)">
			<g id="Group_247">
				<path id="Path_135" class="st0" d="M8.1,19.7c0,0,3.1,4.5,6.9,1.8c4.8-3.4,7.2-12.7,4.1-10.6c-2.1,1.7-4.1,3.5-5.9,5.6
					c0,0,7.9-9.5,5.3-10.7s-9.3,7.1-9.3,7.1s6.8-10.1,4.1-10.4S4.4,9.7,4.4,9.7s7.2-9.5,4-9.7S2.6,5.5,0.9,7.6
					c-1.6,2-0.8,3.8,1.3,5.4c0,0,1.3,2.8,2.9,3.5c0.6,0.3,0.7,1.2,1.1,1.5C6.7,18.6,7.4,19.2,8.1,19.7z"/>
			</g>
		</g>
		<g id="Group_258" transform="translate(59.56 61.275)">
			<g id="Group_250" transform="translate(17.161)">
				<g id="Group_249">
					<path id="Path_136" class="st0" d="M0.2,59.7L0,46.9c0-1.7,1.3-3.2,3-3.3c8.8-0.6,15-3.4,18.4-8.1c4.7-6.6,4.2-16.9,2.9-24.1
						c-0.7-3.7,0.5-6.1,5-8.4c2.7-1.4,5.5-2.4,8.5-2.9c1.9-0.3,3.7,0.4,4.2,2.3c1.1,4.1,1.8,8.4,2.2,12.6c1.1,12.5-1.3,23.4-7,31.5
						c-7,9.9-18.2,15.4-33.5,16.4c-1.8,0.1-3.4-1.3-3.5-3.1C0.2,59.8,0.2,59.7,0.2,59.7z"/>
				</g>
			</g>
			<g id="Group_251" transform="translate(47.191 35.046)" class="st12">
				<path id="Path_137" class="st13" d="M2.6,8.2C2,8.2,1.4,8,0.9,7.6C-0.4,6.5-0.3,4,1.3,2s4-2.6,5.4-1.5c0.7,0.6,1.1,1.6,0.9,2.5
					C7.3,5.3,5.8,7.2,3.6,8C3.3,8.1,2.9,8.2,2.6,8.2z M5,0.8C3.8,1,2.7,1.6,1.9,2.6C0.7,4.2,0.5,6.1,1.5,6.9C2,7.3,2.8,7.4,3.4,7.2
					c0.9-0.3,1.7-0.9,2.3-1.6l0,0C6.3,4.8,6.6,4,6.7,3c0.1-0.7-0.1-1.4-0.6-1.8C5.8,1,5.4,0.8,5,0.8L5,0.8z"/>
			</g>
			<g id="Group_257" transform="translate(0 29.885)">
				<g id="Group_253">
					<g id="Group_252">
						<path id="Path_138" class="st0" d="M23.4,12.9c0,0-3.1-9.4-8.4-11.7S1.2,0.1,4.2,2.2C6.6,3.7,9.1,5,11.8,6
							c0,0-9.9-3.1-9.6-0.4s8.9,5.2,8.9,5.2S-1,8,0.1,10.4s10.3,4.4,10.3,4.4s-11.3-2.1-10,0.7s9.4,1.7,9.7,4.3s2.3,13,9.7,13.1
							L23.4,12.9z"/>
					</g>
				</g>
				<g id="Group_254" transform="translate(11.737 5.747)">
					<path id="Path_139" class="st14" d="M3.6,2.4C2.8,0.9,0,0.4,0,0.4L0.1,0c0.1,0,3.1,0.5,3.9,2.2L3.6,2.4z"/>
				</g>
				<g id="Group_255" transform="translate(11.044 10.519)">
					<path id="Path_140" class="st14" d="M4.3,2.8C3.2,1.5,1.7,0.7,0,0.4L0.1,0c1.8,0.3,3.4,1.2,4.6,2.6L4.3,2.8z"/>
				</g>
				<g id="Group_256" transform="translate(10.296 14.591)">
					<path id="Path_141" class="st14" d="M4,2.6C3.4,1,0,0.4,0,0.4L0.1,0c0.1,0,3.6,0.6,4.3,2.5L4,2.6z"/>
				</g>
			</g>
		</g>
	</g>
	<g id="Group_264" transform="translate(2000.384 978.945)">
		<g id="Group_260">
			<path id="Path_142" class="st3" d="M111.1,36.3C86.6,4,69.3-7.5,37.6,4.8C6.2,16.9,6.5,53.9,9,72.8c2.3,17.5-0.5,39.9-5.4,56.9
				C-2,149.4-1,170.4,6.3,189.5C25,238,78.1,258.7,127.2,240.4c49.6-18.5,76.9-69.5,58.6-118.7c-7.2-19.4-20.5-35.8-37.9-46.9
				C133.7,65.8,121.2,49.6,111.1,36.3z"/>
		</g>
		<g id="Group_261" transform="translate(6.027 5.818)">
			<path id="Path_143" class="st15" d="M99.9,33.5C82.3,6.6,65-7.3,35.9,3.9C7.1,15.1,6.1,31.9,9,69.7c1.4,18.2-1.5,35.3-5.9,51.2
				c-5.1,18.4-4.1,38,2.8,55.8c17.4,45.4,68.2,68.5,113.3,51.7c45.6-17,68.6-68,51.6-114c-6.7-18.1-19-33.5-35.2-44
				C122.6,61.8,103.5,38.9,99.9,33.5z"/>
		</g>
		<g id="Group_262" transform="translate(47.998 99.491)">
			<path id="Path_144" class="st16" d="M96.2,34.5c8.9,25.4-6.6,49.6-31.8,58.9c-1.4,0.5-2.7,0.9-4.1,1.3
				C36.2,101.4,10.6,92,1.7,64.7C-3.6,48.6,2.8,9.4,30.4,2C56.5-4.9,86.1,5.8,96.2,34.5z"/>
		</g>
		<g id="Group_263" transform="translate(74.456 112.032)">
			<path id="Path_145" class="st17" d="M38,2.6c0,0-25.6-7.2-35.7,2.3S18,13.3,26.2,17.1S52.7,9,38,2.6z"/>
		</g>
	</g>
	<g id="Group_281" transform="translate(2423.158 1131.903)">
		<g id="Group_272" transform="translate(40.66 0)">
			<g id="Group_265" transform="translate(7.297)">
				<path id="Path_146" class="st18" d="M0.4,59.3c0,0-4.9-34.3,18-45.6S83.9-4.5,84.7,3.4S71.1,45.7,49.6,52.9S0.4,59.3,0.4,59.3z"
					/>
			</g>
			<g id="Group_267" transform="translate(0 6.503)">
				<g id="Group_266">
					<path id="Path_147" class="st19" d="M1.1,63.1C1,63.1,0.9,63,0.8,63c-0.7-0.3-1-1.1-0.7-1.8c0.5-1.2,13.9-30,82.4-61
						c0.7-0.3,1.5,0,1.8,0.7s0,1.5-0.7,1.8l0,0C16.3,33.2,2.8,62,2.7,62.3C2.4,62.9,1.8,63.2,1.1,63.1z"/>
				</g>
			</g>
			<g id="Group_269" transform="translate(48.891 23.481)">
				<g id="Group_268">
					<path id="Path_148" class="st19" d="M25.3,7.2L25.3,7.2L1.1,2.7C0.4,2.6-0.1,1.9,0,1.1C0.2,0.4,0.9-0.1,1.6,0l0,0h0l24.2,4.5
						c0.8,0.1,1.3,0.9,1.1,1.6C26.8,6.9,26.1,7.4,25.3,7.2z"/>
				</g>
			</g>
			<g id="Group_271" transform="translate(22.885 17.453)">
				<g id="Group_270">
					<path id="Path_149" class="st19" d="M1.3,26.7c-0.6-0.1-1-0.6-1.1-1.1c-1.7-10.1,10.1-24.4,10.6-25c0.5-0.6,1.4-0.6,2-0.1
						c0.6,0.5,0.6,1.3,0.2,1.9c-0.1,0.1-11.5,13.9-10,22.8c0.1,0.8-0.4,1.5-1.1,1.6C1.6,26.7,1.4,26.7,1.3,26.7z"/>
				</g>
			</g>
		</g>
		<g id="Group_276" transform="translate(0 30.214)">
			<g id="Group_273" transform="translate(0 0.291)">
				<path id="Path_150" class="st9" d="M19.9,8.8c0,0-20.9,3.3-19.9,17s20.6,32.2,43.3,25.7S67.5,15.4,54.9,6.3S35.2-2.1,19.9,8.8z"
					/>
			</g>
			<g id="Group_274" transform="translate(30.871 5.352)">
				<path id="Path_151" class="st18" d="M1.8,17.3c0,0,13.4-3.5,13.1-11.6S13.6-1,8.4,5S-3.1,16.4,1.8,17.3z"/>
			</g>
			<g id="Group_275" transform="translate(10.699)">
				<path id="Path_152" class="st15" d="M20.5,0.2c0,0-18.7,5.4-20.3,11.6S5.8,12.6,8,12s-0.8,3.8,2.7,2.7s5.4-5.9,5.4-5.9
					c1.3,0.5,2.7,0.8,4.1,0.9C25.6,9.8,32.1-1.7,20.5,0.2z"/>
			</g>
		</g>
		<g id="Group_280" transform="translate(50.694 46.995)">
			<g id="Group_277">
				<path id="Path_153" class="st15" d="M32.2,7c0,0-16.5-13.3-25.9-3.3s-10,36.9,10.1,49.4s42.9-6.4,41.2-21.9S50.6,11,32.2,7z"/>
			</g>
			<g id="Group_278" transform="translate(30.271 22.112)">
				<path id="Path_154" class="st18" d="M0.5,3.4c0,0,11.6,7.6,17.4,1.9S22-0.1,14,0.1S-2.2-0.8,0.5,3.4z"/>
			</g>
			<g id="Group_279" transform="translate(22.283 1.619)">
				<path id="Path_155" class="st9" d="M24.1,7.7c0,0-16.5-10.2-22.2-7.2S5.1,5.2,7,6.4s-3.4,2-0.2,3.9s8,0,8,0
					c0.5,1.3,1.2,2.6,2.1,3.7C20.5,18,33.4,15.1,24.1,7.7z"/>
			</g>
		</g>
	</g>
	<g id="Group_332" transform="translate(1611.57 900.285)">
		<g id="Group_282" transform="translate(90.108 65.093)">
			<path id="Path_156" class="st0" d="M8.9,0c0,0,28.1,31.5,27.3,35.7S8,42.1,8,42.1L0,17.4L8.9,0z"/>
		</g>
		<g id="Group_283" transform="translate(47.331 329.766)">
			<path id="Path_157" class="st1" d="M13.3,0c0,0,0.2,6.5,4.5,8.3s17,3.5,12.3,7.6c-2.7,2.4-15.5,0.8-19.1,0.8s-7,1.6-9.7-0.8
				c-3-2.7,0-15.9,0-15.9c1.8,0.9,3.9,1.5,5.9,1.6C9.4,1.6,11.5,1.1,13.3,0z"/>
		</g>
		<g id="Group_284" transform="translate(43.767 135.809)">
			<path id="Path_158" class="st16" d="M58,0c0,0,0.9,29.2-8.4,85.1c-6.7,40.4-14.7,81.1-18.5,100.6c-1.3,6.9-7.2,12-14.2,12.4
				l-3.7,0.2c-7.1,0.2-12.9-5.4-13.1-12.4c0-0.5,0-0.9,0-1.4l9.4-132l2.3-43.4L58,0z"/>
		</g>
		<g id="Group_285" transform="translate(9.377 330.831)">
			<path id="Path_159" class="st1" d="M13.3,0c0,0,0.2,6.5,4.5,8.3s17,3.5,12.3,7.6c-2.7,2.4-15.5,0.8-19.1,0.8s-7,1.6-9.7-0.8
				c-3-2.7,0-15.9,0-15.9c1.8,0.9,3.9,1.5,5.9,1.6C9.4,1.6,11.5,1.1,13.3,0z"/>
		</g>
		<g id="Group_286" transform="translate(2.353 135.809)">
			<path id="Path_160" class="st16" d="M58,0c0,0,0.9,29.2-8.4,85.1c-6.7,40.4-14.7,81.1-18.5,100.6c-1.3,6.9-7.2,12-14.2,12.4
				l-3.7,0.2c-7.1,0.2-12.9-5.4-13.1-12.4c0-0.5,0-0.9,0-1.4l9.4-132l2.3-43.4L58,0z"/>
		</g>
		<g id="Group_287" transform="translate(9.582 158.944)">
			<path id="Path_161" class="st1" d="M0,8.8c0.1,3.5,21.4,4.9,47.7,4.1s47.3-4.5,47.3-8S73.7-0.6,47.4,0.2S-0.1,5.3,0,8.8z"/>
		</g>
		<g id="Group_288" transform="translate(8.715 49.525)">
			<path id="Path_162" class="st3" d="M7.3,18.6c0,0,4.7-18.4,39-18.6c49.5-0.3,44.9,45.2,49.5,114.4c0,0-48.8-6.9-95,3
				C0.8,117.4-3.4,46.8,7.3,18.6z"/>
		</g>
		<g id="Group_289" transform="translate(3.351 49.372)">
			<path id="Path_163" class="st3" d="M0,16.1l22.4,12.4c0,0,49.1,4.5,62.1,2.3s16.6-11.7,16.6-11.7C90.7,9.5,77.7,3.2,63.7,0.9
				c-2.2-0.4-4.5-0.6-6.9-0.8c-4-0.3-8-0.2-11.9,0.2C15,3.8,0,16.1,0,16.1z"/>
		</g>
		<g id="Group_290" transform="translate(12.354 163.784)">
			<path id="Path_164" class="st16" d="M88,2.9c0,0-28.5-8.4-87.6,3.1L0,14.6l86.6,3.1L88,2.9z"/>
		</g>
		<g id="Group_291" transform="translate(2.289 64.499)">
			<path id="Path_165" class="st1" d="M0.6,1.5c-1.9,2.7,0.9,8,6.3,11.9s11.2,4.8,13.1,2.1s-0.9-8-6.3-11.9S2.5-1.2,0.6,1.5z"/>
		</g>
		<g id="Group_292" transform="translate(89.383 66.462)">
			<path id="Path_166" class="st1" d="M6.6,12.3c-0.1,0-0.2-0.1-0.3-0.2C4.9,7,0.1,0.5,0.1,0.5C0,0.3,0,0.1,0.1,0.1S0.4,0,0.5,0.1
				c0,0.1,4.9,6.6,6.3,11.8C6.9,12.1,6.8,12.2,6.6,12.3C6.6,12.3,6.6,12.3,6.6,12.3C6.6,12.3,6.6,12.3,6.6,12.3z"/>
		</g>
		<g id="Group_293" transform="translate(49.834 190.712)">
			<path id="Path_167" class="st1" d="M0.3,41.8C0.3,41.8,0.3,41.8,0.3,41.8c-0.2,0-0.3-0.2-0.3-0.3c0,0,0,0,0,0
				c0-0.2,3.9-24,6.5-32.5c1.2-3.4,3.2-6.4,5.7-8.9c0.1-0.1,0.3-0.1,0.4,0c0.1,0.1,0.1,0.3,0,0.4C10.1,2.9,8.2,5.9,7,9.2
				c-2.6,8.5-6.5,32.2-6.5,32.4C0.5,41.7,0.4,41.8,0.3,41.8z"/>
		</g>
		<g id="Group_317" transform="translate(32.902 0)">
			<g id="Group_294" transform="translate(13.77 20.992)">
				<path id="Path_168" class="st0" d="M0.7,32.1c-1.9-2.7,0.7-3,1.4-5.9l2.2-8.7L5,14.9L8.8,0l1.3,14.6l0.8,8.8l0.2,2.8
					c0.2,1.9,0.7,2.1,2.2,3.7c0.6,0.6,2.8,3.2,0.1,4.6C11.1,35.8,3.1,35.5,0.7,32.1z"/>
			</g>
			<g id="Group_295" transform="translate(1.769 16.708)">
				<path id="Path_169" class="st5" d="M12.9,18.6c0,0-14.6-4.6-12.8-15.4s13.5,9.3,13.5,9.3l0.8,5.6L12.9,18.6z"/>
			</g>
			<g id="Group_296" transform="translate(17.977 35.345)">
				<path id="Path_170" class="st1" d="M0.1,2.9c0,0.1,0,0.2,0.1,0.2c1.1,4.6,6.6,5.9,6.6,5.9l0,0L5.9,0.3C4.3,0,2-0.2,0.8,0.6
					C0.1,1.1-0.2,2.1,0.1,2.9z"/>
			</g>
			<g id="Group_297" transform="translate(8.527 7.392)">
				
					<ellipse id="Ellipse_12" transform="matrix(0.9868 -0.162 0.162 0.9868 -2.6287 2.7044)" class="st0" cx="15.3" cy="17.5" rx="12.9" ry="15.6"/>
			</g>
			<g id="Group_298" transform="translate(8.533 7.418)">
				
					<ellipse id="Ellipse_13" transform="matrix(0.9868 -0.162 0.162 0.9868 -2.6287 2.7044)" class="st0" cx="15.3" cy="17.5" rx="12.9" ry="15.6"/>
			</g>
			<g id="Group_299" transform="translate(1.524)">
				<path id="Path_171" class="st5" d="M11.1,24.9c0,0,4.3,0.7,6-2.5s2.7-6,10.1-5.9S40.4,11.9,40,8s-4.5-5.1-8.2-3.1
					s-0.1-2.2-4.4-4.5s-9.1,4.6-13.2,4.5S-2.4,9,0.4,19.9L11.1,24.9z"/>
			</g>
			<g id="Group_300" transform="translate(9.661 23.297)">
				<path id="Path_172" class="st0" d="M1.5,4.8c1.3,0.6,2.8,0,3.3-1.3s0-2.8-1.3-3.3C2.4-0.4,1,0.1,0.3,1.2
					C-0.4,2.5,0.2,4.1,1.5,4.8z"/>
			</g>
			<g id="Group_301" transform="translate(26.814 6.96)">
				<path id="Path_173" class="st7" d="M4.8,3.5c-0.5,0-1.1,0-1.6-0.1C2.1,3.3,1,3.1,0,2.8l0-0.2c0.1,0,5.8,1.6,7.9-0.1
					c1-0.8,1.1-1.5,0.8-1.9C8.4,0.1,7.5,0,6.6,0.6c-0.9,0.7-2,1-3.2,1l0-0.2c1.1,0,2.2-0.3,3.1-1c0.7-0.6,1.7-0.6,2.4,0
					C9.2,0.9,9.1,1.7,8,2.6C7.1,3.3,5.9,3.6,4.8,3.5z"/>
			</g>
			<g id="Group_302" transform="translate(8.316 3.191)">
				<path id="Path_174" class="st7" d="M0.1,5.4L0,5.2c1.5-1.2,3.4-1.1,5.6-1.1c1.1,0,2.3,0,3.4-0.1c3.7-0.3,6.5-3.9,6.6-4.1l0.2,0
					C15.6,0.4,12.7,4,9,4.3C7.9,4.4,6.7,4.4,5.6,4.4C3.4,4.3,1.6,4.3,0.1,5.4z"/>
			</g>
			<g id="Group_303" transform="translate(4.042 14.726)">
				<path id="Path_175" class="st7" d="M0.4,3.1C0.3,3.1,0.1,3,0,2.6v0v0C0,2.4,0.4-0.1,1.5,0c0.1,0,0.3,0.1,0.3,0.5
					C1.8,1.4,1,3,0.4,3.1L0.4,3.1z M0.2,2.5c0,0.2,0.1,0.4,0.2,0.4c0.4,0,1.2-1.6,1.2-2.4c0-0.3-0.1-0.3-0.2-0.3h0
					C0.7,0.2,0.3,1.9,0.2,2.5z"/>
			</g>
			<g id="Group_305" transform="translate(22.9 23.842)">
				<g id="Group_304">
					<path id="Path_176" class="st8" d="M3.4,0.6c0.1-0.1,0.2-0.2,0.2-0.3c0-0.1-0.1-0.1-0.2-0.2C2.1-0.3,0.8,0.2,0.1,1.3
						C0,1.4,0,1.6,0.1,1.7c0.1,0.1,0.3,0.1,0.4-0.1c0.8-0.6,1.7-0.9,2.7-1C3.2,0.7,3.3,0.7,3.4,0.6z"/>
				</g>
			</g>
			<g id="Group_306" transform="translate(25.113 26.171)">
				<path id="Path_177" class="st8" d="M0.1,1.3c0.2,0.6,0.7,1,1.1,0.8c0.5-0.3,0.7-0.8,0.5-1.3C1.5,0.3,1-0.1,0.5,0
					C0,0.3-0.2,0.9,0.1,1.3z"/>
			</g>
			<g id="Group_308" transform="translate(33.225 22.114)">
				<g id="Group_307">
					<path id="Path_178" class="st8" d="M2.7,0.8c0.1,0,0.1-0.1,0.1-0.2c0-0.1,0-0.3-0.2-0.3C1.8-0.3,0.6,0,0.1,0.9
						c0,0,0,0.1-0.1,0.1C0,1.1,0,1.2,0.1,1.3c0.1,0.1,0.2,0.1,0.3,0c0,0,0,0,0,0C1,0.9,1.8,0.6,2.5,0.8C2.6,0.8,2.6,0.8,2.7,0.8z"/>
				</g>
			</g>
			<g id="Group_309" transform="translate(33.557 24.741)">
				<path id="Path_179" class="st8" d="M0,1.1c-0.1,0.6,0.3,1.2,0.7,1.2s0.9-0.4,0.9-1.1S1.4,0,0.9,0S0.1,0.4,0,1.1z"/>
			</g>
			<g id="Group_310" transform="translate(31.328 16.173)">
				<path id="Path_180" class="st7" d="M5.9,17.3c-0.4,0-0.8-0.1-1.1-0.2c-2.9-1-5.1-5.5-4.7-10.1c0.2-2.8,1.3-5.2,2.9-6.3
					C3.9,0,5-0.2,6.1,0.2c2.9,1,5.1,5.5,4.7,10.1c-0.2,2.8-1.3,5.2-2.9,6.3C7.3,17,6.6,17.2,5.9,17.3z M5,0.5
					c-0.6,0-1.2,0.2-1.7,0.5C1.8,2.1,0.8,4.3,0.6,7l0,0c-0.3,4.4,1.6,8.7,4.4,9.6c0.9,0.3,1.9,0.2,2.7-0.4c1.5-1,2.5-3.2,2.7-5.9
					c0.3-4.4-1.6-8.7-4.4-9.6C5.6,0.6,5.3,0.5,5,0.5L5,0.5z"/>
			</g>
			<g id="Group_311" transform="translate(16.957 16.756)" class="st10">
				<path id="Path_181" class="st7" d="M0,6.9c0.1,4.4,2.7,8.5,5.8,9.2s5.7-2.4,5.6-6.8S8.8,0.8,5.6,0.1S-0.1,2.5,0,6.9z"/>
			</g>
			<g id="Group_312" transform="translate(31.332 16.767)" class="st10">
				<path id="Path_182" class="st7" d="M0,6.7c0.1,4.4,2.4,8.7,5.3,9.5c2.9,0.8,5.1-2.1,5.1-6.6S7.9,0.9,5.1,0.1S-0.1,2.3,0,6.7z"/>
			</g>
			<g id="Group_313" transform="translate(16.533 15.569)">
				<path id="Path_183" class="st7" d="M7.3,17.4c-0.3,0-0.6,0-1-0.1C2.9,16.6,0,12.2,0,7.5l0,0c-0.2-2.4,0.7-4.7,2.5-6.4
					c1.1-0.9,2.5-1.3,3.8-1c3.5,0.7,6.3,5.1,6.4,9.8c0.2,2.4-0.7,4.7-2.5,6.4C9.4,17,8.4,17.4,7.3,17.4z M0.5,7.5
					c0,4.5,2.7,8.7,5.9,9.3c1.2,0.3,2.5-0.1,3.4-0.8c1.6-1.6,2.4-3.7,2.3-6c0-4.5-2.7-8.7-5.9-9.3C5,0.4,3.8,0.7,2.8,1.5
					C1.2,3,0.4,5.2,0.5,7.5L0.5,7.5z"/>
			</g>
			<g id="Group_314" transform="translate(27.526 23.566)">
				<path id="Path_184" class="st7" d="M0.5,1.6C0.2,1.6,0,1.3,0,1.1c0-0.2,0.1-0.4,0.3-0.5c1.4-0.7,3.1-0.8,4.6-0.2
					c0.3,0.1,0.4,0.4,0.2,0.7S4.7,1.4,4.4,1.3C3.2,0.8,1.9,0.9,0.7,1.5C0.7,1.6,0.6,1.6,0.5,1.6z"/>
			</g>
			<g id="Group_315" transform="translate(0 16.394)">
				<path id="Path_185" class="st5" d="M1.9,3.6C0.5,3-0.2,1.5,0.1,0l0.3,0.1C0.1,1.4,0.7,2.8,2,3.4L1.9,3.6z"/>
			</g>
			<g id="Group_316" transform="translate(0.211 20.782)">
				<path id="Path_186" class="st5" d="M0.2,2.3L0,2.2C0,2.1,1.1,0.3,2.4,0l0.1,0.3C1.3,0.6,0.3,2.3,0.2,2.3z"/>
			</g>
		</g>
		<g id="Group_318" transform="translate(57.217 33.405)">
			<path id="Path_187" class="st7" d="M8.3,0C5.6,0.7,2.8,0.9,0,0.7C0.4,2.8,2.4,4.3,4.6,4c0.1,0,0.3-0.1,0.4-0.1
				C7.6,3.4,8.3,0,8.3,0z"/>
		</g>
		<g id="Group_321" transform="translate(69.464 30.975)">
			<g id="Group_319">
				<path id="Path_188" class="st11" d="M4.3,118.9C-7.3,81.9,4.3,13.3,41.4,1.7S127,40,138.5,77.1c11.8,37-8.7,76.5-45.6,88.3
					c-37,11.8-76.5-8.7-88.3-45.6C4.5,119.5,4.4,119.2,4.3,118.9z"/>
			</g>
			<g id="Group_320" transform="translate(13.302 39.092)">
				<circle id="Ellipse_14" class="st2" cx="57.7" cy="57.7" r="40.8"/>
			</g>
		</g>
		<g id="Group_331" transform="translate(0 68.512)">
			<g id="Group_323">
				<g id="Group_322">
					<path id="Path_189" class="st0" d="M67.9,61.5L70,55c0-1.9-5.6-7-7.3-6.5c-13.1,3.7-25.9,0.9-34.7-7.6
						c-6.2-6-7.9-21.1-6.5-28.7c0.7-3.9-0.6-6.5-5.3-9c-2.9-1.5-5.9-2.5-9.1-3.1c-2-0.3-4,0.5-4.5,2.4C1.5,6.9,0.7,11.5,0.3,16
						c-1.2,13.4,1.4,25,7.5,33.7c7.5,10.6,32.3,21.7,59,20C68.7,69.6,67.9,63.5,67.9,61.5z"/>
				</g>
			</g>
			<g id="Group_324" transform="translate(7.267 37.437)" class="st12">
				<path id="Path_190" class="st13" d="M5.4,8.7c-1.6-0.1-3.1-0.9-4-2.2C-0.3,4.4-0.5,1.8,1,0.6C1.8,0,2.9-0.2,3.9,0.2
					C5,0.6,6,1.3,6.7,2.2c1.7,2.1,1.8,4.7,0.4,5.9C6.6,8.5,6,8.7,5.4,8.7z M2.8,0.9C2.3,0.9,1.9,1,1.6,1.3C0.5,2.2,0.7,4.3,2.1,6
					l0,0c1.3,1.7,3.4,2.3,4.4,1.5s0.8-3-0.5-4.7C5.4,2,4.6,1.4,3.6,1C3.3,1,3,0.9,2.8,0.9L2.8,0.9z"/>
			</g>
			<g id="Group_330" transform="translate(62.689 34.656)">
				<g id="Group_326">
					<g id="Group_325">
						<path id="Path_191" class="st0" d="M0,13.8c0,0,3.3-10,9-12.5s14.7-1.3,11.6,1c-2.5,1.6-5.2,3-8.1,4c0,0,10.6-3.3,10.3-0.5
							s-9.5,5.6-9.5,5.6S26.1,8.6,25,11.1s-11,4.7-11,4.7s12.1-2.2,10.7,0.7s-10,1.8-10.3,4.6S11.9,35,4,35.1L0,13.8z"/>
					</g>
				</g>
				<g id="Group_327" transform="translate(8.282 6.141)">
					<path id="Path_192" class="st14" d="M0.4,2.6L0,2.4C0.9,0.5,4,0,4.1,0l0.1,0.4C4.2,0.5,1.2,0.9,0.4,2.6z"/>
				</g>
				<g id="Group_328" transform="translate(8.278 11.239)">
					<path id="Path_193" class="st14" d="M0.4,3L0,2.7C1.2,1.3,3,0.3,4.9,0L5,0.5C3.2,0.7,1.5,1.6,0.4,3z"/>
				</g>
				<g id="Group_329" transform="translate(9.331 15.591)">
					<path id="Path_194" class="st14" d="M0.4,2.8L0,2.6C0.8,0.6,4.5,0,4.6,0l0.1,0.4C4.7,0.5,1.1,1,0.4,2.8z"/>
				</g>
			</g>
		</g>
	</g>
	<g id="Group_339" transform="translate(1716.972 1067.423)">
		<g id="Group_337" transform="translate(0 0)">
			<g id="Group_333" transform="translate(142.015 22.84)">
				<path id="Path_195" class="st7" d="M34.5,25.9c0,0,4.7-23.9-14-25.8s0.3,17.3,0.3,17.3S4.7,8.6,0.4,17.7s27.4,12.7,27.4,12.7
					L34.5,25.9z"/>
			</g>
			<g id="Group_336">
				<g id="Group_334" transform="translate(0 43.096)">
					<path id="Path_196" class="st3" d="M183.4,1.5c15.6,6.9,30.2,77.6-20.8,114.4c-72.2,52-150,44.1-161-12.1
						c-13.3-67.7,59.3-86.3,110.1-65.9C135,47.3,157.8-9.8,183.4,1.5z"/>
				</g>
				<g id="Group_335" transform="translate(166.568)">
					<path id="Path_197" class="st3" d="M11.7,45.6c-1.3,0-2.4-1.1-2.4-2.4c0-0.3,0.1-0.6,0.2-0.9c2.2-5.8,1.4-14.2-2.4-24.5
						C5.2,12.9,3,8.2,0.3,3.6C-0.3,2.5,0,1,1.2,0.3C2.3-0.3,3.7,0,4.4,1.2c0.6,1.1,15.8,26.6,9.5,42.9C13.5,45,12.6,45.6,11.7,45.6z
						"/>
				</g>
			</g>
		</g>
		<g id="Group_338" transform="translate(20.964 85.545)">
			<path id="Path_198" class="st16" d="M0.7,29.9c0,0,4.3-22.5,25-28.2s23.9,4.2,16.1,13.7S-5.9,44.9,0.7,29.9z"/>
		</g>
	</g>
	<g id="Group_346" transform="translate(1853.698 1116.032)">
		<g id="Group_340" transform="translate(325.366 59.225)">
			<path id="Path_199" class="st1" d="M68.7,0.2c0,0-71.7,16.1-68.6,45.5s59.6,57.2,70.9,51S43.7,59.5,48.5,48.9S82.2-3.5,68.7,0.2z
				"/>
		</g>
		<g id="Group_341" transform="translate(28.721 31.038)">
			<path id="Path_200" class="st9" d="M262.3,113.6C204.2,123.5,13,124.5,13,124.5L0.4,5.4L0,1.5c79.7-12.3,283.9,53.7,283.9,53.7
				c0.6,0.2,1.1,0.4,1.6,0.7C344.9,80.1,319.7,103.8,262.3,113.6z"/>
		</g>
		<g id="Group_342" transform="translate(28.721 31.038)">
			<path id="Path_201" class="st20" d="M285.5,55.9c-11.1,1.9-37.8-9.5-42.4-3.8c-6.1,7.4-79.3-30.3-70.4-19.3
				c8.9,10.9-44.8,1.7-57.2-10.5c-12.3-12.2-40.1-13.9-26.9,5.5c13.1,19.5-38.4,1.7-48.1-10.8c-9.8-12.4-15.1-2.5-19.1,5.1
				C18.8,27.1,8,15,0.4,5.4L0,1.5c79.7-12.3,283.9,53.7,283.9,53.7C284.4,55.4,285,55.6,285.5,55.9z"/>
		</g>
		<g id="Group_343" transform="translate(67.998)">
			<path id="Path_202" class="st20" d="M0,32.6C0,32.6,26.7-4,42,0.4S40.6,36,40.6,36L0,32.6z"/>
		</g>
		<g id="Group_344" transform="translate(0 29.025)">
			
				<ellipse id="Ellipse_15" transform="matrix(0.9904 -0.1382 0.1382 0.9904 -8.6562 5.4319)" class="st2" cx="34.8" cy="65" rx="26.5" ry="62"/>
		</g>
		<g id="Group_345" transform="translate(25.683 53.245)">
			<path id="Path_203" class="st21" d="M11.8,13.3c0.8,7.4-1.1,13.3-4.3,13.3s-6.5-6-7.3-13.3S1.3,0,4.5,0S10.9,6,11.8,13.3z"/>
		</g>
	</g>
	<g id="Group_356" transform="translate(2013.622 1217.066)">
		<g id="Group_347" transform="translate(0 10.05)">
			<path id="Path_204" class="st15" d="M60.3,16c0,0,40.8,5.7,36.8,28.1s-55.4,47.3-88,24.1S40.4-33.3,60.3,16z"/>
		</g>
		<g id="Group_348" transform="translate(36.19)">
			<path id="Path_205" class="st7" d="M47.6,21.4c0,0,19.9,8.4,14,16.2s-28.1-8-28.1-8S44.9,47.5,32.7,48S22.6,28.1,22.6,28.1
				s-4.5,11.3-13.3,5.2s5-12,5-12S-2,24.6,0.2,14.7S13.5-0.1,25.1,9.4c0,0-4.6-14.4,7.3-7.6S47.6,21.4,47.6,21.4z"/>
		</g>
		<g id="Group_349" transform="translate(67.072 10.994)">
			<path id="Path_206" class="st7" d="M1.9,11.2c-1,0-1.9-0.8-1.9-1.9C0,8.6,0.4,8,1,7.6C24.8-5.7,51.4,2.4,52.5,2.7
				c1,0.3,1.6,1.4,1.3,2.4c-0.3,1-1.4,1.6-2.4,1.3c0,0,0,0,0,0C51,6.2,25.2-1.5,2.8,10.9C2.5,11.1,2.2,11.2,1.9,11.2z"/>
		</g>
		<g id="Group_350" transform="translate(39.335 44.775)">
			<path id="Path_207" class="st3" d="M0,8.9c0,0,7.5-13.1,11.3-7.5C15.7,7.9,0,8.9,0,8.9z"/>
		</g>
		<g id="Group_351" transform="translate(68.899 51.161)">
			<path id="Path_208" class="st3" d="M0,8.9c0,0,7.5-13.1,11.3-7.5C15.7,7.9,0,8.9,0,8.9z"/>
		</g>
		<g id="Group_352" transform="translate(43.138 65.008)">
			<path id="Path_209" class="st3" d="M0,8.9c0,0,7.5-13.1,11.3-7.5C15.7,7.9,0,8.9,0,8.9z"/>
		</g>
		<g id="Group_353" transform="translate(22.376 25.414)">
			<path id="Path_210" class="st3" d="M0,8.9c0,0,7.5-13.1,11.3-7.5C15.7,7.9,0,8.9,0,8.9z"/>
		</g>
		<g id="Group_354" transform="translate(18.034 63.669)">
			<path id="Path_211" class="st3" d="M0,8.9c0,0,7.5-13.1,11.3-7.5C15.7,7.9,0,8.9,0,8.9z"/>
		</g>
		<g id="Group_355" transform="translate(11.658 44.485)">
			<path id="Path_212" class="st3" d="M0,8.9c0,0,7.5-13.1,11.3-7.5C15.7,7.9,0,8.9,0,8.9z"/>
		</g>
	</g>
</g>
</svg>
