<?xml version="1.0" encoding="utf-8"?>
<!-- Generator: Adobe Illustrator 25.0.0, SVG Export Plug-In . SVG Version: 6.00 Build 0)  -->
<svg version="1.1" id="Layer_1" xmlns="http://www.w3.org/2000/svg" xmlns:xlink="http://www.w3.org/1999/xlink" x="0px" y="0px"
	 viewBox="0 0 464 401.7" style="enable-background:new 0 0 464 401.7;" xml:space="preserve">
<style type="text/css">
	.st0{fill:#C5251C;}
</style>
<g id="Capa_2">
	<g id="Outline">
		<g id="EggBowl">
			<path class="st0" d="M455.5,186.1h-22.9c10.4-34.1,9.7-89.6-19.9-103.9c-9.3-4.5-20.6-4.5-33.1-0.1c-1.1-5.7-3.1-11.2-5.7-16.3
				c-7.8-15.4-24.7-33.6-42.9-46.2C308,3.9,287.1-0.6,271.9,7.1c-12.1,6.2-20.2,19.8-23.3,39.4c-0.2,1.2-0.4,2.4-0.5,3.6
				C241.6,26,229.1,5.1,210,0.8c-30.8-6.9-62.6,31.4-77,61.7c-6.4-6.8-13.6-11.1-21.4-12.5C94.8,47,76,57.4,58.7,79.1
				C44.9,96.4,34,118.6,31,135.7c-3.2,17.8,1.2,36.1,12.2,50.4H8.5c-4.7,0-8.5,3.8-8.5,8.5c0,4.8,6.3,29,7.5,33.8
				c26.7,102.1,119,173.3,224.5,173.3c60.5,0,118.7-22.9,163.8-64.6c43.3-40,68.2-91.9,68.2-142.4
				C464,189.9,460.2,186.1,455.5,186.1z M105.9,151.4l0.1-1.8c0-0.4,0-0.8,0-1.2c0-0.6,0.1-1.2,0.1-1.8l0.1-1.1
				c0-0.6,0.1-1.3,0.2-1.9c0-0.3,0-0.6,0.1-0.9c0.1-0.8,0.2-1.6,0.3-2.4c0-0.1,0-0.2,0-0.4c0.1-0.9,0.2-1.8,0.4-2.8l0.1-0.7
				c0.1-0.7,0.2-1.3,0.3-2c0.1-0.3,0.1-0.6,0.2-0.9c0.1-0.5,0.2-1.1,0.3-1.6c0.1-0.3,0.2-0.7,0.2-1c0.1-0.5,0.2-1,0.4-1.5
				s0.2-0.7,0.3-1s0.3-0.9,0.4-1.3s0.2-0.7,0.3-1s0.3-0.8,0.4-1.3s0.2-0.7,0.4-1s0.3-0.8,0.5-1.2s0.3-0.6,0.4-0.9s0.3-0.7,0.5-1.1
				l0.4-0.9c0.2-0.3,0.4-0.7,0.6-1s0.3-0.6,0.5-0.8s0.4-0.7,0.6-1l0.5-0.8c0.2-0.3,0.4-0.6,0.7-0.9s0.3-0.5,0.5-0.7s0.5-0.5,0.7-0.8
				s0.4-0.4,0.6-0.6s0.5-0.5,0.8-0.8s0.3-0.3,0.5-0.5s0.6-0.5,0.9-0.7l0.5-0.3c0.5-0.3,1-0.6,1.5-0.9c1.5-0.7,3-1.2,4.6-1.5
				c1.8-0.3,3.7-0.4,5.6-0.3h0.5l0,0c0.4,0,0.8,0.1,1.1,0.1l1.3,0.2c0.4,0.1,0.9,0.2,1.3,0.2l1.2,0.2c0.4,0.1,0.9,0.2,1.4,0.3
				l1.3,0.3c0.5,0.1,0.9,0.3,1.4,0.4l1.3,0.4c0.5,0.2,1,0.3,1.5,0.5l1.3,0.5l1.5,0.6l1.3,0.6l1.6,0.7l1.3,0.7l1.6,0.8
				c0.4,0.2,0.9,0.5,1.3,0.7s1.1,0.6,1.6,0.9s0.9,0.5,1.3,0.8s1.1,0.7,1.7,1s0.9,0.6,1.3,0.8s1.1,0.7,1.7,1.1l1.1,0.8
				c1.2,0.8,2.4,1.7,3.7,2.6c0.4,0.3,0.8,0.6,1.1,0.8l1.6,1.3l1.4,1.1c0.5,0.4,1,0.8,1.6,1.3c0.6,0.4,1,0.8,1.5,1.2s1,0.9,1.5,1.3
				l1,0.9l-0.1,0.3c-0.1,0.3-0.2,0.6-0.3,0.9l-0.7,1.9l-0.4,1.1l-0.6,1.8l-0.4,1.1c-0.2,0.6-0.4,1.1-0.5,1.7l-0.3,1.1
				c-0.2,0.6-0.3,1.1-0.5,1.7l-0.3,1.1c-0.2,0.6-0.3,1.2-0.5,1.8c-0.1,0.3-0.2,0.6-0.2,0.9c-0.2,0.8-0.4,1.5-0.5,2.3
				c0,0.2-0.1,0.3-0.1,0.5c-0.2,0.9-0.4,1.8-0.6,2.7l-0.1,0.8c-0.1,0.6-0.2,1.3-0.4,1.9c-0.1,0.3-0.1,0.7-0.2,1
				c-0.1,0.6-0.2,1.1-0.3,1.6c-0.1,0.4-0.1,0.7-0.2,1l-0.2,1.6c0,0.4-0.1,0.7-0.1,1c-0.1,0.5-0.1,1-0.2,1.5s-0.1,0.7-0.1,1
				c-0.1,0.5-0.1,1-0.1,1.5c0,0.3-0.1,0.6-0.1,1c0,0.5-0.1,1.1-0.1,1.6c0,0.3,0,0.5,0,0.8c0,0.8,0,1.6,0,2.3c0,1.2,0,2.4,0.1,3.6
				c0,0.4,0.1,0.8,0.1,1.2c0.1,0.8,0.1,1.6,0.2,2.4c0.1,0.5,0.1,1,0.2,1.4c0.1,0.7,0.2,1.4,0.3,2.1c0.1,0.5,0.2,1,0.3,1.5
				c0.1,0.7,0.3,1.4,0.4,2c0,0.2,0.1,0.3,0.1,0.5h-59.9c-0.2-1-0.5-1.9-0.7-2.9c-0.1-0.2-0.1-0.4-0.1-0.6c-0.2-0.8-0.3-1.6-0.5-2.4
				c-0.1-0.4-0.1-0.7-0.2-1.1c-0.1-0.6-0.2-1.3-0.3-1.9c-0.1-0.4-0.1-0.8-0.2-1.2c-0.1-0.6-0.2-1.2-0.3-1.8
				c-0.1-0.4-0.1-0.9-0.2-1.3c-0.1-0.6-0.2-1.2-0.2-1.8s-0.1-0.9-0.2-1.3s-0.1-1.2-0.2-1.7s-0.1-0.9-0.1-1.4s-0.1-1.1-0.2-1.7
				s-0.1-0.9-0.1-1.4l-0.1-1.7c0-0.4,0-0.9-0.1-1.4s0-1.1-0.1-1.7s0-0.9,0-1.3s0-1.1,0-1.7s0-0.9,0-1.3s0-1.1,0-1.7
				C105.9,152.2,105.9,151.8,105.9,151.4z M240.8,92.1L240.8,92.1c4.4,2.4,8.3,5.6,11.6,9.5l0,0c1.2,1.4,2.5,2.9,3.7,4.5
				c4,5.4,7.5,11.2,10.5,17.3c7.9,16.1,13,34.9,13,47.9c0,0.8,0,1.5-0.1,2.3c0,0.2,0,0.4,0,0.7c0,0.6-0.1,1.2-0.1,1.7l-0.1,0.6
				c-0.1,0.8-0.2,1.5-0.3,2.3c0,0.1,0,0.2,0,0.2c-0.1,0.7-0.2,1.3-0.4,2c0,0.2-0.1,0.4-0.1,0.7c-0.1,0.6-0.3,1.1-0.4,1.7l-0.1,0.6
				c-0.2,0.7-0.4,1.4-0.6,2h-89.9c-0.2-0.7-0.4-1.4-0.6-2l-0.1-0.6c-0.1-0.6-0.3-1.1-0.4-1.7c-0.1-0.2-0.1-0.4-0.1-0.7
				c-0.1-0.7-0.3-1.3-0.4-2c0-0.1,0-0.2,0-0.2c-0.1-0.8-0.2-1.5-0.3-2.3l-0.1-0.6c-0.1-0.6-0.1-1.1-0.1-1.7c0-0.2,0-0.4,0-0.7
				c0-0.8-0.1-1.5-0.1-2.3c0-2,0.1-4.1,0.3-6.3c0.1-0.9,0.2-1.7,0.3-2.6c1.5-10.3,4.3-20.3,8.2-29.9c10.5-25.9,25.5-42.7,38.4-42.7
				c2.4,0,4.7,0.5,6.9,1.5C239.7,91.6,240.2,91.8,240.8,92.1z M283.8,119.8c0.3-0.5,0.5-0.9,0.8-1.4c0.1-0.2,0.2-0.4,0.4-0.6
				c0.3-0.5,0.5-1,0.8-1.4c0.1-0.2,0.2-0.4,0.3-0.5l0.9-1.4l0.3-0.5l0.9-1.4c0.1-0.2,0.2-0.3,0.3-0.4l0.9-1.4l0.3-0.4l0.9-1.3
				l0.3-0.4c0.3-0.4,0.6-0.9,1-1.3l0.3-0.4l1-1.3c0.1-0.1,0.2-0.2,0.3-0.4l1-1.2l0.3-0.4c0.3-0.4,0.6-0.8,1-1.1
				c0.1-0.1,0.2-0.3,0.3-0.4c0.3-0.4,0.6-0.7,0.9-1.1l0.4-0.5l0.8-0.9c0.3-0.3,0.6-0.7,1-1l0.3-0.3c0.4-0.4,0.9-0.9,1.3-1.3l0.1-0.1
				l1.1-1.2l0.1-0.1c0.4-0.4,0.8-0.7,1.2-1.1l0.1-0.1c0.4-0.4,0.8-0.7,1.2-1h0.1l1.3-1l0,0c0.4-0.3,0.9-0.6,1.3-0.9l0,0
				c5.3-3.7,10.4-5.5,15-5.1l0,0c2.3,0.2,4.5,0.9,6.5,1.9c5.3,2.7,10.7,8,15.6,15.7c1.1,1.8,2.3,3.6,3.4,5.6l0,0
				c1.9,3.6,3.7,7.2,5.2,11c6.4,15.6,10.3,33.9,10,47.5c0,1.1-0.1,2.2-0.2,3.3l0,0c-0.1,0.8-0.1,1.5-0.2,2.3c0,0.2-0.1,0.5-0.1,0.7
				c-0.1,0.6-0.2,1.1-0.3,1.6c0,0.2-0.1,0.5-0.1,0.7c-0.1,0.7-0.3,1.3-0.4,2c0,0.1,0,0.2,0,0.2c-0.2,0.7-0.4,1.5-0.6,2.2l-0.2,0.6
				c-0.2,0.5-0.3,1.1-0.5,1.6l-0.2,0.7c-0.2,0.6-0.4,1.2-0.7,1.8l-0.1,0.4c0,0,0,0.1,0,0.1h-64.4l0.1-0.5c0.2-0.7,0.3-1.4,0.4-2
				c0.1-0.5,0.2-1,0.3-1.5c0.1-0.7,0.2-1.4,0.3-2.1c0.1-0.5,0.1-1,0.2-1.4c0.1-0.8,0.1-1.6,0.2-2.4c0-0.4,0.1-0.8,0.1-1.2
				c0.1-1.2,0.1-2.4,0.1-3.6c0-0.9,0-1.9-0.1-2.9c0-0.3,0-0.7-0.1-1c0-0.7-0.1-1.3-0.1-2l-0.1-1.2c-0.1-0.6-0.1-1.2-0.2-1.9
				c0-0.4-0.1-0.9-0.2-1.3c-0.1-0.6-0.2-1.2-0.2-1.9c-0.1-0.5-0.1-0.9-0.2-1.4c-0.1-0.6-0.2-1.2-0.3-1.9c-0.1-0.5-0.2-1-0.3-1.4
				s-0.2-1.3-0.4-1.9s-0.2-1-0.3-1.5s-0.3-1.3-0.4-1.9l-0.4-1.5c-0.2-0.6-0.3-1.3-0.5-2c-0.1-0.5-0.3-1-0.4-1.5
				c-0.2-0.7-0.4-1.3-0.6-2l-0.4-1.5l-0.6-2.1l-0.5-1.4l-0.7-2.2c-0.1-0.4-0.3-0.9-0.5-1.4c-0.3-0.8-0.6-1.6-0.9-2.4
				c-0.1-0.4-0.3-0.7-0.4-1.1c-0.9-2.3-1.8-4.7-2.8-7c-0.1-0.3-0.3-0.7-0.5-1.1c-0.3-0.7-0.6-1.4-0.9-2.1L283.8,119.8z M405.3,97.6
				c9.2,4.5,15.1,18.9,16.2,39.6c0.8,16.8-1.8,35.7-6.8,49h-37.3c0.2-0.7,0.4-1.4,0.6-2.1c0.1-0.4,0.2-0.8,0.3-1.2
				c0.2-0.8,0.3-1.5,0.5-2.3c0.1-0.3,0.1-0.7,0.2-1c0.2-0.9,0.3-1.9,0.5-2.8c0-0.2,0.1-0.4,0.1-0.6c0.1-1.1,0.3-2.3,0.4-3.4
				s0.2-2.5,0.2-3.8c0-0.4,0-0.9,0-1.3c0-0.9,0-1.7,0-2.6c0-0.5,0-1,0-1.6c0-0.8-0.1-1.6-0.1-2.5c0-0.6-0.1-1.1-0.1-1.7
				c-0.1-0.8-0.1-1.6-0.2-2.5c-0.1-0.6-0.1-1.2-0.2-1.8c-0.1-0.8-0.2-1.7-0.3-2.5c-0.1-0.6-0.2-1.2-0.3-1.8
				c-0.1-0.9-0.3-1.7-0.4-2.6c-0.1-0.6-0.2-1.2-0.3-1.8c-0.2-0.9-0.3-1.8-0.5-2.7c-0.1-0.6-0.2-1.1-0.3-1.7c-0.2-1-0.5-2-0.7-3.1
				c-0.1-0.5-0.2-0.9-0.3-1.4c-0.4-1.5-0.8-3-1.2-4.5c0,0,0,0,0-0.1c-0.4-1.5-0.8-2.9-1.3-4.4c-0.1-0.5-0.3-1-0.5-1.4
				c-0.3-1-0.6-2-1-3l-0.6-1.7c-0.3-0.9-0.6-1.8-1-2.7c-0.2-0.6-0.5-1.2-0.7-1.8c-0.3-0.9-0.7-1.7-1-2.6c-0.2-0.6-0.5-1.2-0.7-1.8
				c-0.4-0.8-0.7-1.7-1.1-2.5l-0.8-1.7c-0.1-0.3-0.3-0.6-0.4-0.9l0.2-0.1c0.7-0.5,1.5-1,2.2-1.5l0.8-0.5l1.5-0.9l1-0.6l1.3-0.8
				l1-0.6c0.4-0.2,0.8-0.5,1.2-0.7l0.9-0.5l0,0C384.7,97.7,396.5,93.3,405.3,97.6z M279.6,22.3c9.2-4.7,24.4-0.6,41.6,11.3
				c15.8,10.9,30.9,27,37.4,39.9c2.6,5,4.2,10.5,4.8,16.1l-0.3,0.2c-0.8,0.4-1.5,0.9-2.2,1.4l-0.8,0.5c-0.6,0.4-1.2,0.8-1.9,1.2
				l-0.5,0.3l-0.1-0.2c-0.5-0.8-1-1.5-1.5-2.2l-0.4-0.6c-0.5-0.7-1-1.4-1.6-2.1c-0.1-0.2-0.3-0.3-0.4-0.5c-0.5-0.6-0.9-1.1-1.4-1.7
				l-0.4-0.5c-0.5-0.6-1-1.2-1.6-1.7l-0.5-0.6c-0.5-0.6-1-1.1-1.6-1.6l-0.5-0.5c-0.5-0.4-0.9-0.9-1.4-1.3l-0.5-0.4
				c-0.5-0.4-1-0.9-1.6-1.3l-0.5-0.4c-0.6-0.4-1.1-0.8-1.7-1.2l-0.5-0.4c-0.6-0.4-1.2-0.8-1.8-1.2l-0.3-0.2c-0.6-0.3-1.1-0.7-1.7-1
				l-0.4-0.2c-0.6-0.3-1.2-0.6-1.9-0.9l-0.4-0.2c-0.6-0.3-1.3-0.6-1.9-0.8l-0.3-0.1c-0.7-0.2-1.3-0.5-2-0.7h-0.1
				c-0.7-0.2-1.4-0.4-2.1-0.6l-0.2-0.1c-0.7-0.2-1.4-0.3-2.2-0.4H326c-0.8-0.1-1.5-0.2-2.3-0.3c-8.4-0.7-16.7,1.8-25,7.3
				c-2.9,2-5.7,4.2-8.3,6.6l-0.6,0.5l-1.2,1.2l-0.9,0.9l-1,1l-0.9,0.9l-1,1.1c-0.3,0.3-0.5,0.6-0.8,0.9c-0.5,0.6-1.1,1.3-1.6,1.9
				c-0.3,0.3-0.6,0.7-0.9,1l-1,1.2l-0.9,1.1l-0.9,1.2l-0.8,1.1c-0.5,0.6-0.9,1.3-1.4,1.9l-0.9,1.3c-0.3,0.5-0.6,0.9-0.9,1.4
				l-0.3,0.5l-0.3-0.5l-0.6-0.9c-0.5-0.7-0.9-1.4-1.4-2.1l-0.7-1c-0.4-0.6-0.9-1.2-1.3-1.8l-0.8-1.1c-0.4-0.5-0.8-1.1-1.2-1.6
				s-0.6-0.8-0.9-1.1l-0.4-0.4C261.2,63.4,264.4,30,279.6,22.3z M170.7,36.5c13.1-14.2,26.1-21.2,35.6-19c7.7,1.7,15,9.9,20.5,23
				c4.2,10.4,7,21.4,8.3,32.5h-0.8h-0.3c-0.6,0-1.3-0.1-1.9-0.1s-1.3,0-1.9,0.1h-0.1c-0.6,0-1.1,0.1-1.7,0.2l-0.4,0.1l-1.4,0.2
				l-0.5,0.1c-0.5,0.1-0.9,0.2-1.4,0.3l-0.5,0.1l-1.4,0.4l-0.4,0.1c-0.5,0.2-1,0.3-1.5,0.5l-0.3,0.1c-1.9,0.7-3.7,1.5-5.5,2.5
				l-0.1,0.1c-0.6,0.3-1.1,0.6-1.7,1l-0.3,0.2c-0.5,0.3-1,0.6-1.5,1l-0.3,0.2c-0.5,0.3-1,0.7-1.4,1l-0.3,0.2c-0.5,0.4-1,0.7-1.5,1.1
				l-0.2,0.2c-0.6,0.4-1.1,0.9-1.7,1.4v0.1c-1.8,1.6-3.6,3.2-5.2,5l0,0c-0.6,0.6-1.1,1.2-1.6,1.8l-0.2,0.2c-0.5,0.6-1,1.1-1.5,1.7
				c-0.1,0.1-0.2,0.2-0.2,0.3c-0.5,0.6-0.9,1.2-1.4,1.7l-0.2,0.3c-0.5,0.6-1,1.3-1.5,1.9c0,0.1-0.1,0.1-0.1,0.2
				c-2.2,3-4.3,6.2-6.2,9.4v0.1c-0.5,0.8-0.9,1.6-1.4,2.4c0,0.1-0.1,0.2-0.2,0.3c-0.4,0.8-0.8,1.5-1.2,2.3l-0.2,0.4
				c-0.4,0.8-0.8,1.6-1.2,2.3c-0.1,0.1-0.1,0.2-0.2,0.4c-0.1,0.3-0.3,0.5-0.4,0.8l-0.6-0.5l-1.8-1.5l-1.1-0.9
				c-0.9-0.7-1.8-1.3-2.7-2c-0.3-0.3-0.7-0.5-1-0.8l-1.8-1.3l-1.2-0.8l-1.6-1.1l-1.1-0.8c-0.7-0.5-1.4-0.9-2.2-1.4l-1.2-0.8l-1.6-1
				L164,102l-1.4-0.8l-1.1-0.6l-1.6-0.8c-0.5-0.2-0.9-0.5-1.4-0.7s-1-0.5-1.5-0.7l-1-0.5l-1.2-0.5l-1-0.4c-0.4-0.2-0.9-0.4-1.3-0.5
				l-1.5-0.7l-1.4-0.5l-1-0.3l-1-0.3l-1-0.3l-0.9-0.3l-1.4-0.4l-0.9-0.3l-0.9-0.2l-0.7-0.2l-0.5-0.1c0.1-0.7,0.1-1.4,0.2-2
				c0-0.3,0.1-0.6,0.1-1c0.1-0.5,0.2-1,0.3-1.5s0.2-1.1,0.3-1.6s0.3-1.3,0.5-1.9v-0.1c0.2-0.6,0.4-1.3,0.6-2l0,0
				C147.8,67.7,158.5,49.7,170.7,36.5z M47.7,138.7c5.1-28.8,37.8-76,60.9-71.9c7.4,1.3,13.4,8.1,17.4,14.4c-0.1,0.5-0.2,1-0.4,1.5
				v0.1c-0.3,1.2-0.5,2.4-0.7,3.7c0,0.2-0.1,0.4-0.1,0.7s0,0.4-0.1,0.6c-0.1,0.6-0.2,1.1-0.2,1.7l0,0c-0.1,0.7-0.2,1.5-0.2,2.2l0,0
				c-0.2,0-0.4,0.1-0.7,0.1c-0.5,0.1-1,0.2-1.6,0.3l-1.1,0.2c-0.5,0.1-1,0.3-1.5,0.4c-0.3,0.1-0.7,0.2-1,0.3
				c-0.6,0.2-1.1,0.4-1.7,0.6l-0.8,0.3c-0.8,0.3-1.6,0.7-2.4,1.1s-1.5,0.8-2.2,1.2l-0.3,0.2c-0.7,0.4-1.3,0.9-2,1.3l-0.3,0.2
				c-0.6,0.5-1.2,1-1.8,1.5l-0.3,0.3c-0.6,0.5-1.2,1.1-1.8,1.6l-0.2,0.2c-0.6,0.6-1.1,1.2-1.7,1.8l-0.1,0.1c-0.5,0.6-1,1.3-1.6,2
				l-0.2,0.3c-0.5,0.6-0.9,1.3-1.4,2l-0.2,0.4c-0.4,0.7-0.9,1.4-1.3,2.1l-0.2,0.4c-0.4,0.7-0.8,1.5-1.2,2.3c0,0.1-0.1,0.1-0.1,0.2
				c-0.4,0.8-0.7,1.6-1.1,2.3c0,0.1-0.1,0.2-0.1,0.2c-0.3,0.8-0.7,1.6-1,2.4l-0.2,0.4c-0.3,0.8-0.6,1.6-0.9,2.5
				c0,0.2-0.1,0.3-0.2,0.5c-0.3,0.8-0.5,1.7-0.8,2.6c0,0.1-0.1,0.3-0.1,0.4c-0.2,0.9-0.5,1.8-0.7,2.7v0.2c-0.2,0.9-0.4,1.8-0.6,2.8
				c0,0.1-0.1,0.2-0.1,0.4c-0.2,0.9-0.3,1.8-0.5,2.8l-0.1,0.5c-0.2,0.9-0.3,1.8-0.4,2.8c0,0.2-0.1,0.4-0.1,0.5
				c-0.1,0.9-0.2,1.9-0.3,2.9c0,0.1,0,0.3-0.1,0.4c-0.1,1-0.2,2-0.3,2.9c-0.1,1.5,0,0.1,0,0.1c-0.1,1-0.1,2-0.2,3c0,0.1,0,0.3,0,0.5
				c0,1-0.1,1.9-0.1,2.9c0,0.2,0,0.4,0,0.6c0,1,0,1.9,0,2.9v0.6c0,1,0,2,0,3c0,0.1,0,0.2,0,0.4c0,1,0,2,0.1,2.9c0,0.1,0,0.2,0,0.3
				c0,1,0.1,2,0.2,3v0.5c0.1,1,0.1,1.9,0.2,2.9c0,0.2,0,0.4,0,0.6c0.1,0.9,0.2,1.9,0.3,2.9c0,0.2,0,0.4,0,0.5c0.1,1,0.2,2,0.3,2.9
				c0,0.1,0,0.2,0,0.3c0.1,0.9,0.2,1.9,0.4,2.8c0,0.1,0,0.2,0,0.4c0.1,0.9,0.3,1.9,0.4,2.8c0,0.2,0,0.4,0.1,0.5
				c0.2,0.9,0.3,1.8,0.5,2.7c0,0.2,0.1,0.4,0.1,0.5c0.2,0.9,0.3,1.8,0.5,2.7v0.1H67.7C52.2,175.7,44.4,157.1,47.7,138.7L47.7,138.7z
				 M446.7,203.1c-0.4,6.6-1.3,13.2-2.6,19.6H23.6c-2.2-8.4-3.8-15-4.8-19.6H446.7z M384.3,324.6c-42,38.8-96.1,60.1-152.3,60.1
				c-95.6,0-179.8-63.1-206.5-154.9h417.1C434.2,263.9,414,297.2,384.3,324.6z"/>
			<path class="st0" d="M164.6,341.1c-21.9-9.4-41.3-23.7-56.9-41.8c-1.3-1.4-3.5-1.5-4.9-0.1c-1.3,1.2-1.5,3.3-0.4,4.7
				c16.2,18.9,36.6,33.8,59.4,43.6c0.4,0.2,0.9,0.3,1.4,0.3c1.9,0,3.5-1.5,3.5-3.5C166.7,342.9,165.9,341.7,164.6,341.1L164.6,341.1
				z"/>
			<path class="st0" d="M208.3,134.8c-1.7-0.8-3.8-0.1-4.7,1.6c0,0,0,0,0,0c-5.8,12.2-8.6,25.5-8.3,39c0.1,1.9,1.6,3.4,3.5,3.4h0.1
				c1.9,0,3.5-1.7,3.4-3.6c0,0,0,0,0,0c-0.3-12.4,2.3-24.6,7.6-35.8C210.8,137.8,210,135.7,208.3,134.8
				C208.3,134.8,208.3,134.8,208.3,134.8z"/>
			<path class="st0" d="M162.9,71.4c1.8,0.8,3.8,0,4.6-1.8c0,0,0,0,0,0c6.5-14.7,16.4-27.7,28.8-38c1.5-1.2,1.8-3.4,0.6-4.9
				c-1.2-1.5-3.4-1.8-4.9-0.6c-0.1,0-0.1,0.1-0.1,0.1c-13.3,10.9-23.8,24.8-30.8,40.5C160.3,68.6,161.1,70.6,162.9,71.4z"/>
			<path class="st0" d="M62.6,165.1c1.9-0.5,2.9-2.4,2.4-4.3c-5.4-21,0.5-43.3,15.6-58.9c1.4-1.4,1.3-3.6-0.1-4.9
				c-1.4-1.4-3.6-1.3-4.9,0l0,0c-16.8,17.4-23.3,42.2-17.3,65.6c0.4,1.5,1.8,2.6,3.4,2.6C61.9,165.3,62.2,165.2,62.6,165.1z"/>
			<path class="st0" d="M114.8,167.1c0.4,1.6,1.8,2.7,3.4,2.7c0.3,0,0.5,0,0.8-0.1c1.9-0.4,3-2.3,2.6-4.2c-3.1-13.5-1.3-27.7,5-40
				c0.9-1.7,0.2-3.8-1.5-4.7s-3.8-0.2-4.7,1.5l0,0C113.3,136.1,111.3,152,114.8,167.1z"/>
			<path class="st0" d="M275.7,45.7c1.9,0.5,3.8-0.6,4.3-2.4c0,0,0,0,0-0.1c1.5-5.2,5.9-9.1,11.2-9.9c1.9-0.3,3.2-2.1,2.9-4
				c-0.3-1.8-2-3.1-3.8-2.9c-8.2,1.2-14.9,7.1-17.1,15.1C272.7,43.3,273.9,45.2,275.7,45.7z"/>
			<path class="st0" d="M291.1,122.9c5,6.2,6.2,10.5,6.2,10.5c0.4,1.6,1.8,2.7,3.4,2.7c0.3,0,0.5,0,0.8-0.1c1.9-0.4,3.1-2.3,2.6-4.2
				c0,0,0,0,0,0c-0.1-0.5-1.3-5-6-11.4c5.1-7.9,12.1-14.5,20.3-19c1.7-0.9,2.3-3,1.4-4.7s-3-2.3-4.7-1.4
				c-10.1,5.5-18.5,13.7-24.3,23.7C290.1,120.2,290.2,121.8,291.1,122.9z"/>
		</g>
	</g>
</g>
</svg>
