<svg xmlns="http://www.w3.org/2000/svg" width="98.167" height="95" viewBox="0 0 98.167 95">
  <g id="Group_531" data-name="Group 531" transform="translate(-1199.783 -3773)">
    <g id="call-center_1_" data-name="call-center (1)" transform="translate(1191.783 3757)">
      <g id="Group_529" data-name="Group 529" transform="translate(9.583 17.583)">
        <g id="Group_528" data-name="Group 528" transform="translate(15.833 0)">
          <g id="Group_527" data-name="Group 527" transform="translate(0 25.333)">
            <path id="Path_669" data-name="Path 669" d="M128.033,371.841l4.384,7.307-1.583,4.75H96l5.263-6.333,3.481-4.19,12.6-15.164.821,1.374,7.917,13.231Z" transform="translate(-96 -317.398)" fill="#e0e0e2"/>
            <path id="Path_670" data-name="Path 670" d="M348.417,372.849v8.378H313.781L312,376.477l4.4-7.333,2.042,1,8.944-15.263,9.227,2.658A15.832,15.832,0,0,1,348.417,372.849Z" transform="translate(-269.25 -314.727)" fill="#e0e0e2"/>
            <g id="Group_525" data-name="Group 525" transform="translate(28.5 22.167)">
              <path id="Path_671" data-name="Path 671" d="M262.167,306.42v7.438l-10.992,12.564-.121.069L240,313.858V306.42c3.681,2.678,7.792,4.271,11.083,4.271S258.485,309.1,262.167,306.42Z" transform="translate(-240 -298.024)" fill="#ffdaaa"/>
              <path id="Path_672" data-name="Path 672" d="M281.5,267.167a3.163,3.163,0,0,1-3.167,3.167h-3.167a3.167,3.167,0,1,1,0-6.333h3.167A3.167,3.167,0,0,1,281.5,267.167Z" transform="translate(-265.667 -264)" fill="#e0e0e2"/>
            </g>
            <path id="Path_673" data-name="Path 673" d="M168,152h4.75v17.417H168Z" transform="translate(-153.75 -152)" fill="#e0e0e2"/>
            <path id="Path_674" data-name="Path 674" d="M148.75,152v17.417h-.792A3.957,3.957,0,0,1,144,165.458v-9.5A3.957,3.957,0,0,1,147.958,152Z" transform="translate(-134.5 -152)" fill="#57565c"/>
            <path id="Path_675" data-name="Path 675" d="M400,152h4.75v17.417H400Z" transform="translate(-339.833 -152)" fill="#e0e0e2"/>
            <g id="Group_526" data-name="Group 526" transform="translate(34.833)">
              <path id="Path_676" data-name="Path 676" d="M428.75,155.958v9.5a3.957,3.957,0,0,1-3.958,3.958H424V152h.792A3.957,3.957,0,0,1,428.75,155.958Z" transform="translate(-393.917 -152)" fill="#57565c"/>
              <path id="Path_677" data-name="Path 677" d="M281.5,267.167a3.163,3.163,0,0,1-3.167,3.167h-3.167a3.167,3.167,0,1,1,0-6.333h3.167A3.167,3.167,0,0,1,281.5,267.167Z" transform="translate(-272 -241.833)" fill="#57565c"/>
            </g>
          </g>
          <path id="Path_678" data-name="Path 678" d="M222.088,356.667l-.044.022-7.507,3.754-1.949.974-7.917-13.231-.821-1.374.513-.618.309-.37L211,344l11.054,12.633Z" transform="translate(-182.505 -280.667)" fill="#acabb1"/>
          <path id="Path_679" data-name="Path 679" d="M314.376,346.153l-8.944,15.263-2.042-1-7.61-3.729.044-.022.091-.1L306.907,344l6.9,1.989Z" transform="translate(-256.24 -280.667)" fill="#acabb1"/>
          <path id="Path_680" data-name="Path 680" d="M295.609,407.549l.121-.069-.091.1-.044.022-.046-.022.046-.026Z" transform="translate(-256.056 -331.583)" fill="#e0e0e2"/>
          <path id="Path_681" data-name="Path 681" d="M387.438,354.214l-.568-.164" transform="translate(-329.302 -288.728)" fill="none"/>
          <path id="Path_682" data-name="Path 682" d="M281.7,468.75H272l1.583-4.75h6.333Z" transform="translate(-237.167 -376.917)" fill="#cca400"/>
          <path id="Path_683" data-name="Path 683" d="M256.366,424.61,256,424" transform="translate(-224.333 -344.833)" fill="none"/>
          <path id="Path_684" data-name="Path 684" d="M272.967,411.839l-4.4,7.333h-6.333l-4.384-7.307,7.507-3.754Z" transform="translate(-225.817 -332.088)" fill="#cca400"/>
          <path id="Path_685" data-name="Path 685" d="M334.58,424l-.35.584" transform="translate(-287.08 -344.833)" fill="none"/>
          <path id="Path_686" data-name="Path 686" d="M222.1,128.26a63.485,63.485,0,0,1-30.1,7.667v11.281a16.405,16.405,0,0,0,1.265,6.226,21.122,21.122,0,0,0,2.824,4.857,25.975,25.975,0,0,0,3.234,3.471,27.177,27.177,0,0,0,2.177,1.757c3.681,2.678,7.792,4.271,11.083,4.271s7.4-1.593,11.083-4.271c5.176-3.762,9.5-9.67,9.5-16.312V135.64A17.009,17.009,0,0,1,222.1,128.26Zm-5.69,32.272a3.164,3.164,0,0,1-2.24.926H211a3.167,3.167,0,0,1,0-6.333h3.167a3.168,3.168,0,0,1,2.24,5.407Z" transform="translate(-173 -107.625)" fill="#ffdaaa"/>
          <path id="Path_687" data-name="Path 687" d="M233.167,44.583v7.432a17.009,17.009,0,0,1-11.069-7.38A63.485,63.485,0,0,1,192,52.3V44.583a20.583,20.583,0,0,1,41.167,0Z" transform="translate(-173 -24)" fill="#aa6100"/>
        </g>
        <path id="Path_688" data-name="Path 688" d="M41.509,340.5H51.625A2.375,2.375,0,0,0,54,338.125v-23.75A2.375,2.375,0,0,0,51.625,312H18.375A2.375,2.375,0,0,0,16,314.375v23.75a2.375,2.375,0,0,0,2.375,2.375Z" transform="translate(-16 -255)" fill="#e0e0e2"/>
        <path id="Path_689" data-name="Path 689" d="M87.833,430.25H72L75.167,416h9.5Z" transform="translate(-60.917 -338.417)" fill="#57565c"/>
      </g>
      <g id="Group_530" data-name="Group 530" transform="translate(8 16)">
        <circle id="Ellipse_55" data-name="Ellipse 55" cx="3.228" cy="3.228" r="3.228" transform="translate(44.472 31.82)" fill="none"/>
        <circle id="Ellipse_56" data-name="Ellipse 56" cx="3.228" cy="3.228" r="3.228" transform="translate(62.918 31.82)" fill="none"/>
        <path id="Path_690" data-name="Path 690" d="M93.2,84.2,77.667,79.725V74.257a24.639,24.639,0,0,0,8.827-12.34h4.631a5.548,5.548,0,0,0,5.542-5.542v-9.5a5.548,5.548,0,0,0-5.542-5.542H87.167V38.167a22.167,22.167,0,1,0-44.333,0v3.167H38.875a5.548,5.548,0,0,0-5.542,5.542v9.5a5.548,5.548,0,0,0,5.542,5.542h.792V68.25a1.583,1.583,0,0,0,1.583,1.583h6.513a28.22,28.22,0,0,0,4.57,4.423v5.468l-3.167.912V76.958A3.962,3.962,0,0,0,45.208,73H11.958A3.962,3.962,0,0,0,8,76.958v23.75a3.962,3.962,0,0,0,3.958,3.958H20.1l-.7,3.167H15.917a1.583,1.583,0,1,0,0,3.167h88.667a1.583,1.583,0,0,0,1.583-1.583v-8.378A17.423,17.423,0,0,0,93.2,84.2ZM91.917,44.639A2.378,2.378,0,0,1,93.5,46.875v9.5a2.378,2.378,0,0,1-1.583,2.236Zm-4.75-.139H88.75V58.75H87.167ZM38.083,58.611A2.378,2.378,0,0,1,36.5,56.375v-9.5a2.378,2.378,0,0,1,1.583-2.236Zm42.37,25.213L73.924,96.235l-6.4-3.135,9.086-10.383ZM65,91.179,55.5,80.321V76.384A19.814,19.814,0,0,0,65,79.333a19.814,19.814,0,0,0,9.5-2.949v3.937ZM46,38.167a19,19,0,0,1,38,0v5.405a15.678,15.678,0,0,1-8.174-6.24,1.585,1.585,0,0,0-2.132-.469A62.213,62.213,0,0,1,46,44.28ZM41.25,44.5h1.583V58.75H41.25Zm1.583,22.167v-4.75h.673a20.494,20.494,0,0,0,2.046,4.75Zm9.205,3.167h6.9A4.756,4.756,0,0,0,63.417,73h3.167a4.75,4.75,0,0,0,0-9.5H63.417a4.756,4.756,0,0,0-4.477,3.167h-9.65A16.368,16.368,0,0,1,46,57.167v-9.72a65.8,65.8,0,0,0,28.061-7.165A18.6,18.6,0,0,0,84,46.863v10.3c0,2.721-.883,8.075-6.8,13.375-3.812,3.416-8.6,5.625-12.2,5.625s-8.392-2.209-12.2-5.625c-.263-.236-.515-.473-.758-.709Zm9.795-1.583a1.585,1.585,0,0,1,1.583-1.583h3.167a1.583,1.583,0,1,1,0,3.167H63.417A1.586,1.586,0,0,1,61.833,68.25ZM53.388,82.718l9.071,10.367-6.28,3.139L49.642,83.8ZM22.64,107.833l.986-4.429v0L25.1,96.75h6.959l1.478,6.652v0l.986,4.429ZM36.363,101.5l-1.484-6.678a1.582,1.582,0,0,0-1.546-1.239h-9.5a1.582,1.582,0,0,0-1.546,1.239L20.8,101.5H11.958a.792.792,0,0,1-.792-.792V76.958a.792.792,0,0,1,.792-.792h33.25a.792.792,0,0,1,.792.792v23.75a.792.792,0,0,1-.792.792Zm22.745,6.333H37.771l-.7-3.167h8.142a3.962,3.962,0,0,0,3.958-3.958V89.7L54.1,99.07a1.585,1.585,0,0,0,2.11.681l1.116-.56,2.8,5.6Zm3.339,0,.528-1.583H67.07l.594,1.583Zm4.742-4.75H62.811l-2.654-5.308,4.805-2.4,4.885,2.391ZM103,107.833H95.083v-4.75a1.583,1.583,0,1,0-3.167,0v4.75H71.044l-1.152-3.076,2.8-5.6,1.221.6a1.56,1.56,0,0,0,.695.162,1.583,1.583,0,0,0,1.4-.847l7.551-14.351,8.782,2.531.036.01A14.256,14.256,0,0,1,103,101.039Z" transform="translate(-8 -16)" fill="none"/>
        <path id="Path_691" data-name="Path 691" d="M11.167,480H9.583a1.583,1.583,0,0,0,0,3.167h1.583a1.583,1.583,0,0,0,0-3.167Z" transform="translate(-8 -388.167)" fill="none"/>
      </g>
      <circle id="Ellipse_57" data-name="Ellipse 57" cx="3.5" cy="3.5" r="3.5" transform="translate(52.217 48)" fill="#231f20"/>
      <circle id="Ellipse_58" data-name="Ellipse 58" cx="3.5" cy="3.5" r="3.5" transform="translate(70.217 48)" fill="#231f20"/>
    </g>
    <path id="Path_692" data-name="Path 692" d="M481.277,3811.824v8.464h18.911" transform="translate(753 5)" fill="none" stroke="#231f20" stroke-width="4"/>
  </g>
</svg>
