<svg xmlns="http://www.w3.org/2000/svg" width="74.14" height="95" viewBox="0 0 74.14 95">
  <g id="lunch-bag" transform="translate(-64.795 -11)">
    <path id="Path_582" data-name="Path 582" d="M139.194,131H77.684L72.95,188.388h70.979Z" transform="translate(-6.574 -96.735)" fill="#e1b7a3"/>
    <path id="Path_583" data-name="Path 583" d="M297.482,327.546,294,327.54v19.283h3.49V327.6Z" transform="translate(-184.767 -255.17)" fill="#c9a96b"/>
    <path id="Path_584" data-name="Path 584" d="M190.538,299.808a6.136,6.136,0,0,1-2.061,4.616,6.841,6.841,0,0,0-2.358,5.1v14.934h-3.5V309.386a6.65,6.65,0,0,0-2.29-4.961,6.19,6.19,0,0,1-2.129-4.616v-.048h12.338Z" transform="translate(-91.418 -232.776)" fill="#f3ce7d"/>
    <path id="Path_585" data-name="Path 585" d="M142.582,431.773,142.19,427H71.212l-.392,4.773a7.77,7.77,0,0,0,7.728,8.41h56.306a7.77,7.77,0,0,0,7.728-8.41Z" transform="translate(-4.836 -335.347)" fill="#c99783"/>
    <path id="Path_586" data-name="Path 586" d="M275.277,247.718a6.17,6.17,0,0,1-4.417-5.915v-7.113a6.169,6.169,0,1,1,12.338,0V241.8a6.163,6.163,0,0,1-6.169,6.169A6.092,6.092,0,0,1,275.277,247.718Z" transform="translate(-166.114 -175.348)" fill="#f3ce7d"/>
    <path id="Path_587" data-name="Path 587" d="M77.684,131,72.95,188.388h5.816L83.5,131Z" transform="translate(-6.574 -96.735)" fill="#af8b7d"/>
    <path id="Path_588" data-name="Path 588" d="M76.636,431.773,77.028,427H71.212l-.392,4.773a7.77,7.77,0,0,0,7.728,8.41h5.816a7.77,7.77,0,0,1-7.728-8.41Z" transform="translate(-4.836 -335.347)" fill="#a08177"/>
    <g id="Group_515" data-name="Group 515" transform="translate(64.795 11)">
      <path id="Path_589" data-name="Path 589" d="M133.78,34.128a1.128,1.128,0,0,0-1.159-1.026H119.7v-4.38a17.837,17.837,0,0,0-35.673,0V33.1H71.11a1.128,1.128,0,0,0-1.159,1.026L64.825,96.37A8.9,8.9,0,0,0,73.713,106h56.3a8.916,8.916,0,0,0,8.888-9.63ZM86.355,28.72a15.511,15.511,0,0,1,31.02,0V33.1H86.355ZM72.181,35.429H84.029v8.608a1.163,1.163,0,1,0,2.327,0V35.429h31.02v8.61a1.163,1.163,0,1,0,2.327,0v-8.61h11.847l4.542,55.061H113.886V73.18a7.332,7.332,0,0,0,4.265-6.728V59.341a7.27,7.27,0,0,0-14.541,0v7.112a7.2,7.2,0,0,0,4.459,6.728V90.49H95.855V76.763a5.656,5.656,0,0,1,1.987-4.246,7.355,7.355,0,0,0,2.472-5.484v-12.9a1.163,1.163,0,0,0-2.327,0V65.867H94.3V53.993a1.163,1.163,0,0,0-2.327,0V65.867H87.906V54.129a1.163,1.163,0,0,0-2.327,0V67.043a7.315,7.315,0,0,0,2.55,5.485,5.448,5.448,0,0,1,1.909,4.081V90.49h-22.4Zm38.7,36.061a5,5,0,0,1-4.949-5.036V59.341a4.944,4.944,0,1,1,9.888,0v7.112A5,5,0,0,1,110.886,71.49Zm.673,2.271V90.49H110.4V73.761c.194.016.383.026.582.026S111.365,73.776,111.559,73.761ZM89.674,70.794a5.126,5.126,0,0,1-1.591-2.6h9.752a5.055,5.055,0,0,1-1.543,2.6,7.9,7.9,0,0,0-2.763,5.96V90.49H92.365V76.6a7.693,7.693,0,0,0-2.691-5.8Zm45.192,30.753a6.522,6.522,0,0,1-4.848,2.126h-56.3a6.595,6.595,0,0,1-6.57-7.151l.3-3.706h68.836l.3,3.706a6.561,6.561,0,0,1-1.721,5.025Z" transform="translate(-64.795 -11)" fill="#284268"/>
      <path id="Path_590" data-name="Path 590" d="M104.12,453h-.935a1.163,1.163,0,1,0,0,2.327h.935a1.163,1.163,0,0,0,0-2.327Z" transform="translate(-94.804 -367.306)" fill="#284268"/>
      <path id="Path_591" data-name="Path 591" d="M143.811,453H131.071a1.163,1.163,0,1,0,0,2.327h12.739a1.163,1.163,0,1,0,0-2.327Z" transform="translate(-117.284 -367.306)" fill="#284268"/>
    </g>
  </g>
</svg>
