<svg xmlns="http://www.w3.org/2000/svg" width="105.556" height="95" viewBox="0 0 105.556 95">
  <g id="protein_1_" data-name="protein (1)" transform="translate(-16 -40)">
    <path id="Path_570" data-name="Path 570" d="M209.259,86.074v52.778a7.037,7.037,0,0,1-7.037,7.037H184.63a14.074,14.074,0,0,1-14.074-14.074v-.6a7.037,7.037,0,0,0-2.061-4.976l-6.433-6.433A7.037,7.037,0,0,1,160,114.826V93.111A21.111,21.111,0,0,1,181.111,72h14.074A14.074,14.074,0,0,1,209.259,86.074Z" transform="translate(-112.333 -24.963)" fill="#fc9495"/>
    <path id="Path_571" data-name="Path 571" d="M206.074,104h14.074a7.037,7.037,0,0,1,7.037,7.037V160.3a3.519,3.519,0,0,1-3.519,3.519H209.593a7.037,7.037,0,0,1-7.037-7.037v-4.122a7.037,7.037,0,0,0-2.061-4.976l-6.433-6.433A7.037,7.037,0,0,1,192,136.27v-18.2A14.074,14.074,0,0,1,206.074,104Z" transform="translate(-137.296 -49.926)" fill="#e74444"/>
    <circle id="Ellipse_47" data-name="Ellipse 47" cx="5.5" cy="5.5" r="5.5" transform="translate(72 61)" fill="#fae8d8"/>
    <path id="Path_572" data-name="Path 572" d="M93.111,361.593l-10.556-3.519L72,361.593l5.278-12.315V344H87.833v5.278Z" transform="translate(-43.685 -237.148)" fill="#606669"/>
    <path id="Path_573" data-name="Path 573" d="M45.111,48s21.111,7.037,21.111,24.63c0,16.333-4.549,28.117-13.647,36.76a7.027,7.027,0,0,0-2.186,5.1v3.886H39.833v-3.886a7.027,7.027,0,0,0-2.186-5.1C28.549,100.747,24,88.963,24,72.63,24,55.037,45.111,48,45.111,48" transform="translate(-6.241 -6.241)" fill="#99a2a7"/>
    <path id="Path_574" data-name="Path 574" d="M128,160h10.556v5.278a5.278,5.278,0,0,1-5.278,5.278h0A5.278,5.278,0,0,1,128,165.278Z" transform="translate(-87.37 -93.611)" fill="#606669"/>
    <path id="Path_575" data-name="Path 575" d="M381.907,348.315c0-5.278-5.278-12.315-17.593-12.315S352,348.315,352,348.315s0,12.315,12.315,12.315S381.907,353.593,381.907,348.315Z" transform="translate(-262.111 -230.908)" fill="#deb89a"/>
    <path id="Path_576" data-name="Path 576" d="M292.315,328C287.037,328,280,333.278,280,345.593s12.315,12.315,12.315,12.315,12.315,0,12.315-12.315S297.593,328,292.315,328Z" transform="translate(-205.944 -224.667)" fill="#f5cbaa"/>
    <path id="Path_577" data-name="Path 577" d="M36.315,136v40.714C28.105,168.2,24,156.792,24,141.278A20.707,20.707,0,0,1,24.671,136Z" transform="translate(-6.241 -74.889)" fill="#606669"/>
    <path id="Path_578" data-name="Path 578" d="M66.222,72.63H24C24,55.037,45.111,48,45.111,48S66.222,55.037,66.222,72.63Z" transform="translate(-6.241 -6.241)" fill="#757c80"/>
    <ellipse id="Ellipse_48" data-name="Ellipse 48" cx="4" cy="3" rx="4" ry="3" transform="translate(33 51)" fill="#606669"/>
    <path id="Path_579" data-name="Path 579" d="M271.037,142.074A7.037,7.037,0,1,0,264,135.037,7.037,7.037,0,0,0,271.037,142.074Zm0-10.556a3.519,3.519,0,1,1-3.519,3.519,3.519,3.519,0,0,1,3.519-3.519Z" transform="translate(-193.463 -68.648)"/>
    <path id="Path_580" data-name="Path 580" d="M116.755,107.928c-2.478-2.1-7.012-4.595-14.551-4.595a17.27,17.27,0,0,0-3.519.346V61.111A15.851,15.851,0,0,0,82.852,45.278H68.778a22.818,22.818,0,0,0-13.89,4.706,34.279,34.279,0,0,0-4.407-3.914A43.175,43.175,0,0,0,39.427,40.09a1.761,1.761,0,0,0-1.113,0,43.175,43.175,0,0,0-11.055,5.979C19.893,51.594,16,58.62,16,66.389c0,16.52,4.643,28.962,14.2,38.035a5.29,5.29,0,0,1,1.638,3.819v3.525L26.7,123.751a1.759,1.759,0,0,0,2.174,2.362l10-3.333,10,3.333a1.759,1.759,0,0,0,2.174-2.362l-5.136-11.983v-3.525a5.291,5.291,0,0,1,1.638-3.819,42.93,42.93,0,0,0,4.4-4.874l2.967,2.967a5.313,5.313,0,0,1,1.545,3.73v.6A15.851,15.851,0,0,0,72.3,122.685h.082a12.508,12.508,0,0,0,7.047,10.59A17.119,17.119,0,0,0,86.37,135a17.119,17.119,0,0,0,6.944-1.725,13.1,13.1,0,0,0,3.608-2.629,16.021,16.021,0,0,0,5.281.836c7.538,0,12.073-2.5,14.551-4.595a11.759,11.759,0,0,0,0-18.959ZM68.778,48.8H82.852A12.329,12.329,0,0,1,95.167,61.111v43.813c-.152.08-.3.163-.451.25a13.906,13.906,0,0,0-3.067-2.228V61.111a8.806,8.806,0,0,0-8.8-8.8H68.778a15.89,15.89,0,0,0-9.75,3.362,25.351,25.351,0,0,0-1.887-2.988A19.305,19.305,0,0,1,68.778,48.8ZM64.443,96.51l-6.434-6.434a5.241,5.241,0,0,1-.364-.407c2.743-6.648,4.1-14.37,4.1-23.28A22.3,22.3,0,0,0,60.5,59.033a12.359,12.359,0,0,1,8.274-3.2H82.852a5.284,5.284,0,0,1,5.278,5.278v40.617a10.438,10.438,0,0,0-1.759-.154,12.662,12.662,0,0,0-9.48,4.8,18.1,18.1,0,0,0-3.219,5.755H72.3a5.284,5.284,0,0,1-5.278-5.278v-4.123A8.736,8.736,0,0,0,64.443,96.51ZM29.295,48.941a41.105,41.105,0,0,1,9.577-5.309,40.89,40.89,0,0,1,9.5,5.252c5.959,4.47,9.24,9.76,9.773,15.745H19.6C20.129,58.67,23.383,53.4,29.295,48.941ZM42.389,68.148h7.037v3.519a3.519,3.519,0,1,1-7.037,0Zm-22.85,0h8.776V97.077a39.169,39.169,0,0,1-5.5-10.042A56.608,56.608,0,0,1,19.539,68.148Zm19.888,51.109a1.761,1.761,0,0,0-1.113,0l-6.839,2.28,3.278-7.648h8.235l3.278,7.648Zm5.7-17.384a8.823,8.823,0,0,0-2.733,6.37v2.127H35.352v-2.127a8.822,8.822,0,0,0-2.734-6.37q-.4-.379-.785-.766V68.148H38.87v3.519a7.037,7.037,0,0,0,14.074,0V68.148H58.2a56.608,56.608,0,0,1-3.28,18.887,38.789,38.789,0,0,1-9.8,14.838Zm14.859,4.979v-.6a8.736,8.736,0,0,0-2.576-6.218l-3.394-3.394q1.1-1.709,2.045-3.535l5.9,5.9a5.313,5.313,0,0,1,1.545,3.73v4.123a8.806,8.806,0,0,0,8.8,8.8h.455a28.107,28.107,0,0,0-.407,3.519H72.3a12.329,12.329,0,0,1-12.315-12.315Zm31.858,23.226a13.7,13.7,0,0,1-5.469,1.4c-.431,0-10.556-.12-10.556-10.556,0-11.535,6.475-15.833,10.556-15.833s10.556,4.3,10.556,15.833C96.926,125.269,95.215,128.348,91.839,130.078Zm10.364-2.115a13.4,13.4,0,0,1-3.163-.356,15.063,15.063,0,0,0,1.4-6.681c0-6.17-1.674-10.328-3.431-12.992a11.631,11.631,0,0,1,5.19-1.082c11.535,0,15.833,6.475,15.833,10.556S113.738,127.963,102.2,127.963Z" transform="translate(0 0)" fill="none"/>
    <path id="Path_581" data-name="Path 581" d="M93.278,90.556A5.278,5.278,0,1,0,88,85.278,5.278,5.278,0,0,0,93.278,90.556Zm0-7.037a1.759,1.759,0,1,1-1.759,1.759A1.759,1.759,0,0,1,93.278,83.519Z" transform="translate(-56.167 -31.204)"/>
  </g>
</svg>
