<svg xmlns="http://www.w3.org/2000/svg" width="97.707" height="95" viewBox="0 0 97.707 95">
  <g id="social-media_1_" data-name="social-media (1)" transform="translate(0 -7.094)">
    <g id="Group_517" data-name="Group 517" transform="translate(1.908 35.017)">
      <path id="Path_624" data-name="Path 624" d="M65.625,209.038a32.584,32.584,0,1,0-46.082,0,33.259,33.259,0,0,0,3.348,2.927,19.764,19.764,0,0,1,11.614-17.949,12.882,12.882,0,1,1,16.158,0,19.765,19.765,0,0,1,11.614,17.949,33.237,33.237,0,0,0,3.348-2.927Z" transform="translate(-10 -153.417)" fill="#66e0f7" fill-rule="evenodd"/>
    </g>
    <path id="Path_625" data-name="Path 625" d="M134.176,268.98a12.892,12.892,0,1,0-8.082,2.845A12.862,12.862,0,0,0,134.176,268.98Z" transform="translate(-91.605 -193.36)" fill="#ffdcd5" fill-rule="evenodd"/>
    <path id="Path_626" data-name="Path 626" d="M97.239,390.729a32.494,32.494,0,0,0,19.7-6.621,19.751,19.751,0,0,0-11.614-17.943,12.882,12.882,0,0,1-16.158-.006,19.765,19.765,0,0,0-11.614,17.949,32.49,32.49,0,0,0,19.69,6.621Z" transform="translate(-62.75 -290.544)" fill="#ffcd69" fill-rule="evenodd"/>
    <g id="Group_519" data-name="Group 519" transform="translate(56.527 66.803)">
      <g id="Group_518" data-name="Group 518">
        <path id="Path_627" data-name="Path 627" d="M335.483,335.557V322.466A2.49,2.49,0,0,0,333,319.983H304.99a2.489,2.489,0,0,0-2.477,2.483v2.369l-6.3,4.176,6.3,4.176v2.369a2.489,2.489,0,0,0,2.477,2.483H333A2.49,2.49,0,0,0,335.483,335.557Z" transform="translate(-296.211 -319.983)" fill="#faf7f5" fill-rule="evenodd"/>
      </g>
    </g>
    <g id="Group_520" data-name="Group 520" transform="translate(39.329 9.005)">
      <path id="Path_628" data-name="Path 628" d="M235.469,66.349a24.82,24.82,0,1,0-25.483-11.057c.352,4.257-.341,7.124-2.753,11.219a20.485,20.485,0,0,0,14.854-1.369,24.742,24.742,0,0,0,13.383,1.206Z" transform="translate(-206.089 -17.108)" fill="#ffcd69" fill-rule="evenodd"/>
      <path id="Path_629" data-name="Path 629" d="M260.381,108.519V123.7a1.587,1.587,0,0,0,1.585,1.585h5.344A1.591,1.591,0,0,0,268.9,123.7V108.519a1.592,1.592,0,0,0-1.585-1.59h-5.344a1.588,1.588,0,0,0-1.585,1.59Z" transform="translate(-250.02 -89.788)" fill="#66e0f7" fill-rule="evenodd"/>
      <path id="Path_630" data-name="Path 630" d="M305,78.1v13.21c.974,1.125,3.651,2.056,6.129,2.056h6.724a7,7,0,0,0,6.984-6.978V81.506a4.5,4.5,0,0,0-4.49-4.484h-3.689v-6.01a2.9,2.9,0,0,0-2.889-2.889c-1.59,0-2.326,1.406-2.894,2.889l-1.661,4.355C308.14,78.185,306.425,78.1,305,78.1Z" transform="translate(-286.122 -58.388)" fill="#ffdcd5" fill-rule="evenodd"/>
    </g>
    <g id="Group_521" data-name="Group 521" transform="translate(0 7.093)">
      <path id="Path_631" data-name="Path 631" d="M362.693,357.219a1.925,1.925,0,1,0,1.922,1.928v-.011A1.918,1.918,0,0,0,362.693,357.219Z" transform="translate(-291.924 -290.403)" fill="none"/>
      <path id="Path_632" data-name="Path 632" d="M407.678,357.219a1.925,1.925,0,1,0,1.922,1.928v-.011A1.918,1.918,0,0,0,407.678,357.219Z" transform="translate(-328.324 -290.403)" fill="none"/>
      <path id="Path_633" data-name="Path 633" d="M452.691,357.219a1.925,1.925,0,1,0,1.922,1.928v-.011A1.918,1.918,0,0,0,452.691,357.219Z" transform="translate(-364.747 -290.403)" fill="none"/>
      <path id="Path_634" data-name="Path 634" d="M250.381,84.212a3.5,3.5,0,0,0,3.493,3.493h5.345a3.489,3.489,0,0,0,2.838-1.464,13.651,13.651,0,0,0,4.876.944h6.724a8.9,8.9,0,0,0,8.892-8.887V73.415a6.4,6.4,0,0,0-6.4-6.393h-1.781v-4.1a4.8,4.8,0,0,0-4.8-4.8c-3.1,0-4.245,2.989-4.677,4.117L263.234,66.6a2.67,2.67,0,0,1-.743,1.217,3.5,3.5,0,0,0-3.272-2.285h-5.345a3.5,3.5,0,0,0-3.493,3.5Zm12.331-12.421c1.427-.276,3.063-1.139,4.089-3.836L268.46,63.6c.637-1.663.97-1.663,1.112-1.663a.982.982,0,0,1,.98.981v6.01a1.909,1.909,0,0,0,1.908,1.908h3.689a2.582,2.582,0,0,1,2.581,2.576V78.3a5.078,5.078,0,0,1-5.075,5.07h-6.724a9.057,9.057,0,0,1-4.221-1.038ZM254.2,69.345h4.7V83.889h-4.7Z" transform="translate(-202.6 -48.385)" fill="none"/>
      <path id="Path_635" data-name="Path 635" d="M93.316,64.895H68.873a34.533,34.533,0,0,0-.675-4.628q.431-.066.861-.145A26.736,26.736,0,1,0,53.052,9.512a1.908,1.908,0,0,0,1.585,3.472,22.923,22.923,0,1,1,1.37,42.272,1.907,1.907,0,0,0-1.542.081,18.181,18.181,0,0,1-11.1,1.718,17.8,17.8,0,0,0,1.76-10.023,1.91,1.91,0,0,0-.294-.871,22.934,22.934,0,0,1-1.3-22.319A1.908,1.908,0,1,0,40.1,22.175a26.494,26.494,0,0,0-2.677,11.061c-.977-.083-1.958-.126-2.935-.126A34.492,34.492,0,1,0,58.882,91.987a34.673,34.673,0,0,0,4.564-5.634,4.353,4.353,0,0,0,1.859.415H93.316a4.4,4.4,0,0,0,4.391-4.391V69.286a4.4,4.4,0,0,0-4.391-4.391ZM44.477,61.02A10.979,10.979,0,1,1,34.49,54.6a10.9,10.9,0,0,1,5.185,1.3c-.252.491-.532,1-.847,1.534a1.908,1.908,0,0,0,1.165,2.816,26.161,26.161,0,0,0,4.484.765ZM12.8,89.288a30.672,30.672,0,0,1,24.827-52.2c.068.548.148,1.1.25,1.644a26.536,26.536,0,0,0,3.481,9.07,14.9,14.9,0,0,1-.306,4.519A14.787,14.787,0,0,0,23.226,75.156,21.723,21.723,0,0,0,13.24,89.718c-.148-.142-.3-.285-.44-.43Zm21.69,8.988a30.436,30.436,0,0,1-17.754-5.655A17.865,17.865,0,0,1,26.217,77.84a14.765,14.765,0,0,0,16.547,0,17.865,17.865,0,0,1,9.484,14.784A30.442,30.442,0,0,1,34.49,98.277Zm21.693-8.988c-.145.145-.292.287-.439.429a21.721,21.721,0,0,0-9.989-14.564,14.768,14.768,0,0,0,2.8-14.168,21.459,21.459,0,0,0,6.879-1.879,26.7,26.7,0,0,0,8.92,1.461,30.682,30.682,0,0,1,.7,4.335,4.394,4.394,0,0,0-4.127,4.383v1.345l-5.448,3.61a1.908,1.908,0,0,0,0,3.182l5.448,3.61v1.345a4.413,4.413,0,0,0,.057.7,30.762,30.762,0,0,1-4.795,6.208ZM93.89,82.377a.582.582,0,0,1-.575.575H65.306a.58.58,0,0,1-.569-.575V80.008a1.909,1.909,0,0,0-.854-1.591l-3.9-2.585,3.9-2.585a1.909,1.909,0,0,0,.854-1.591V69.286a.58.58,0,0,1,.569-.575H93.316a.582.582,0,0,1,.575.575Z" transform="translate(0 -7.093)" fill="none"/>
      <path id="Path_636" data-name="Path 636" d="M237.3,47.854a1.909,1.909,0,1,0-1.345-3.259l-.005.005a1.907,1.907,0,0,0,1.351,3.254Z" transform="translate(-190.473 -36.986)" fill="none"/>
    </g>
  </g>
</svg>
