<?xml version="1.0" encoding="utf-8"?>
<!-- Generator: Adobe Illustrator 25.0.0, SVG Export Plug-In . SVG Version: 6.00 Build 0)  -->
<svg version="1.1" id="Layer_1" xmlns:serif="http://www.serif.com/"
	 xmlns="http://www.w3.org/2000/svg" xmlns:xlink="http://www.w3.org/1999/xlink" x="0px" y="0px" viewBox="0 0 612 792"
	 style="enable-background:new 0 0 612 792;" xml:space="preserve">
<style type="text/css">
	.st0{fill:#FFFFFF;}
</style>
<g>
	<path class="st0" d="M306,2.9c-83.1,0-93.5,0.4-126.2,1.8c-32.6,1.5-54.8,6.7-74.3,14.2c-20.1,7.8-37.2,18.3-54.2,35.3
		c-17,17-27.5,34.1-35.3,54.2c-7.6,19.5-12.7,41.7-14.2,74.3C0.4,215.3,0,225.8,0,308.9C0,392,0.4,402.4,1.8,435
		c1.5,32.6,6.7,54.8,14.2,74.3c7.8,20.1,18.3,37.2,35.3,54.2c17,17,34.1,27.5,54.2,35.3c19.5,7.6,41.7,12.7,74.3,14.2
		c32.6,1.5,43.1,1.8,126.2,1.8c83.1,0,93.5-0.4,126.2-1.8c32.6-1.5,54.8-6.7,74.3-14.2c20.1-7.8,37.2-18.3,54.2-35.3
		c17-17,27.5-34.1,35.3-54.2c7.6-19.5,12.7-41.7,14.2-74.3c1.5-32.6,1.8-43.1,1.8-126.2c0-83.1-0.4-93.5-1.8-126.2
		c-1.5-32.6-6.7-54.8-14.2-74.3c-7.8-20.1-18.3-37.2-35.3-54.2c-17-17-34.1-27.5-54.2-35.3C487,11.4,464.7,6.2,432.2,4.7
		C399.5,3.2,389.1,2.9,306,2.9L306,2.9z M306,58c81.7,0,91.4,0.3,123.6,1.8c29.8,1.4,46,6.3,56.8,10.5c14.3,5.6,24.5,12.2,35.2,22.9
		c10.7,10.7,17.3,20.9,22.9,35.2c4.2,10.8,9.2,27,10.5,56.8c1.5,32.3,1.8,41.9,1.8,123.7c0,81.7-0.3,91.4-1.8,123.6
		c-1.4,29.8-6.3,46-10.5,56.8c-5.6,14.3-12.2,24.5-22.9,35.2c-10.7,10.7-20.9,17.3-35.2,22.9c-10.8,4.2-27,9.2-56.8,10.5
		c-32.3,1.5-41.9,1.8-123.6,1.8c-81.7,0-91.4-0.3-123.7-1.8c-29.8-1.4-46-6.3-56.8-10.5c-14.3-5.6-24.5-12.2-35.2-22.9
		c-10.7-10.7-17.3-20.9-22.9-35.2c-4.2-10.8-9.2-27-10.5-56.8c-1.5-32.3-1.8-41.9-1.8-123.6c0-81.7,0.3-91.4,1.8-123.7
		c1.4-29.8,6.3-46,10.5-56.8c5.5-14.3,12.2-24.5,22.9-35.2c10.7-10.7,20.9-17.3,35.2-22.9c10.8-4.2,27-9.2,56.8-10.5
		C214.6,58.3,224.3,58,306,58z"/>
	<path class="st0" d="M306,410.9c-56.3,0-102-45.7-102-102c0-56.3,45.7-102,102-102c56.3,0,102,45.7,102,102
		C408,365.2,362.3,410.9,306,410.9z M306,151.7c-86.8,0-157.1,70.4-157.1,157.1c0,86.8,70.4,157.1,157.1,157.1
		c86.8,0,157.1-70.4,157.1-157.1C463.1,222.1,392.8,151.7,306,151.7z"/>
	<path class="st0" d="M506.1,145.5c0,20.3-16.4,36.7-36.7,36.7c-20.3,0-36.7-16.4-36.7-36.7c0-20.3,16.4-36.7,36.7-36.7
		C489.6,108.8,506.1,125.2,506.1,145.5z"/>
</g>
</svg>
