<svg xmlns="http://www.w3.org/2000/svg" width="91.01" height="95" viewBox="0 0 91.01 95">
  <g id="plan" transform="translate(-10.751)">
    <path id="Path_637" data-name="Path 637" d="M59.227,42.784H73.769A3.721,3.721,0,0,1,77.489,46.5v79.583a3.721,3.721,0,0,1-3.721,3.721h-59.3a3.721,3.721,0,0,1-3.721-3.721V46.5a3.721,3.721,0,0,1,3.721-3.721H29.014" transform="translate(0 -34.846)" fill="#e8834d"/>
    <path id="Path_638" data-name="Path 638" d="M335.251,42.784H331.8a3.721,3.721,0,0,1,3.721,3.721v79.583a3.721,3.721,0,0,1-3.721,3.721h3.448a3.721,3.721,0,0,0,3.721-3.721V46.5a3.721,3.721,0,0,0-3.721-3.721Z" transform="translate(-261.482 -34.846)" fill="#d66e41"/>
    <path id="Path_639" data-name="Path 639" d="M100.571,80.874V152.2a.958.958,0,0,1-.958.958H48.41a.958.958,0,0,1-.958-.958V80.874a.958.958,0,0,1,.958-.958h51.2a.958.958,0,0,1,.958.958Z" transform="translate(-29.891 -65.088)" fill="#f4e9d3"/>
    <path id="Path_640" data-name="Path 640" d="M315.154,79.916v73.245h2.49a.958.958,0,0,0,.958-.958V80.874a.958.958,0,0,0-.958-.958Z" transform="translate(-247.922 -65.088)" fill="#e5d6be"/>
    <path id="Path_641" data-name="Path 641" d="M136.94,5.494h-6.191V1.945A1.945,1.945,0,0,0,128.8,0h-9.039a1.945,1.945,0,0,0-1.945,1.945V5.494h-6.191a2.451,2.451,0,0,0-2.451,2.451v6.746a2.451,2.451,0,0,0,2.451,2.451H136.94a2.451,2.451,0,0,0,2.451-2.451V7.945a2.451,2.451,0,0,0-2.451-2.451Z" transform="translate(-80.164)" fill="#ffe55a"/>
    <path id="Path_642" data-name="Path 642" d="M198.316,1.945V5.494h3.448V1.945A1.945,1.945,0,0,0,199.819,0h-3.448A1.945,1.945,0,0,1,198.316,1.945Z" transform="translate(-151.179)" fill="#ffd91d"/>
    <path id="Path_643" data-name="Path 643" d="M243.667,29.612h-3.448a2.451,2.451,0,0,1,2.451,2.451v6.746a2.451,2.451,0,0,1-2.451,2.451h3.448a2.451,2.451,0,0,0,2.451-2.451V32.063A2.451,2.451,0,0,0,243.667,29.612Z" transform="translate(-186.891 -24.118)" fill="#ffd91d"/>
    <path id="Path_644" data-name="Path 644" d="M182.106,147.828h-24.19a1.439,1.439,0,0,0,0,2.879h24.19a1.439,1.439,0,0,0,0-2.879Z" transform="translate(-118.687 -120.399)" fill="#e8834d"/>
    <path id="Path_645" data-name="Path 645" d="M157.916,178.542h13.6a1.439,1.439,0,0,0,0-2.879h-13.6a1.439,1.439,0,0,0,0,2.879Z" transform="translate(-118.687 -143.069)" fill="#e8834d"/>
    <path id="Path_646" data-name="Path 646" d="M81.155,142.755l-5.3,5.432-2.292-2.229a1.439,1.439,0,1,0-2.007,2.064l3.322,3.231a1.453,1.453,0,0,0,2.034-.027l6.3-6.461a1.439,1.439,0,1,0-2.061-2.01Z" transform="translate(-49.169 -115.913)" fill="#98db7c"/>
    <g id="Group_523" data-name="Group 523" transform="translate(37.79 42.088)">
      <path id="Path_647" data-name="Path 647" d="M182.106,226.831h-24.19a1.439,1.439,0,1,0,0,2.879h24.19a1.439,1.439,0,1,0,0-2.879Z" transform="translate(-156.477 -226.831)" fill="#e8834d"/>
      <path id="Path_648" data-name="Path 648" d="M175.273,308.609H158.107a1.437,1.437,0,1,1,0-2.873h17.166a1.437,1.437,0,1,1,0,2.873Z" transform="translate(-156.634 -291.095)" fill="#e8834d"/>
      <path id="Path_649" data-name="Path 649" d="M173.865,336.389H158.107a1.437,1.437,0,1,1,0-2.873h15.758a1.437,1.437,0,1,1,0,2.873Z" transform="translate(-156.635 -313.721)" fill="#e8834d"/>
      <path id="Path_650" data-name="Path 650" d="M174.692,387.458H158.106a1.436,1.436,0,1,1,0-2.873h16.586a1.436,1.436,0,1,1,0,2.873Z" transform="translate(-156.634 -355.314)" fill="#e8834d"/>
      <path id="Path_651" data-name="Path 651" d="M176.079,415.238H158.107a1.437,1.437,0,1,1,0-2.873h17.972a1.437,1.437,0,1,1,0,2.873Z" transform="translate(-156.634 -377.94)" fill="#e8834d"/>
      <path id="Path_652" data-name="Path 652" d="M171.511,254.665h-13.6a1.439,1.439,0,0,0,0,2.879h13.6a1.439,1.439,0,0,0,0-2.879Z" transform="translate(-156.476 -249.5)" fill="#e8834d"/>
    </g>
    <path id="Path_653" data-name="Path 653" d="M81.155,221.757l-5.3,5.432-2.292-2.229a1.439,1.439,0,1,0-2.007,2.064l3.322,3.231a1.453,1.453,0,0,0,2.034-.027l6.3-6.461a1.439,1.439,0,0,0-2.061-2.01Z" transform="translate(-49.169 -180.257)" fill="#98db7c"/>
    <path id="Path_654" data-name="Path 654" d="M81.155,300.76l-5.3,5.432-2.292-2.229a1.439,1.439,0,1,0-2.007,2.064l3.322,3.231a1.453,1.453,0,0,0,2.034-.027l6.3-6.461a1.439,1.439,0,1,0-2.061-2.01Z" transform="translate(-49.169 -244.601)" fill="#98db7c"/>
    <path id="Path_655" data-name="Path 655" d="M81.155,379.762l-5.3,5.432-2.292-2.229a1.439,1.439,0,1,0-2.007,2.064l3.322,3.231a1.453,1.453,0,0,0,2.034-.027l6.3-6.461a1.439,1.439,0,0,0-2.061-2.01Z" transform="translate(-49.169 -308.945)" fill="#98db7c"/>
    <path id="Path_656" data-name="Path 656" d="M263.9,256.827c12.791,0,25.055,5.4,24.233,18.606-1.287,20.673-15.655,34.938-24.233,26.048-8.578,8.889-22.946-5.375-24.233-26.048C238.84,262.226,251.1,256.827,263.9,256.827Z" transform="translate(-186.406 -209.174)" fill="#ff4755"/>
    <path id="Path_657" data-name="Path 657" d="M362.87,256.827q-.864,0-1.724.033c12.145.469,23.294,5.96,22.509,18.572-.946,15.2-8.963,26.933-16.551,28.55,8.4,1.914,18.907-11.01,20-28.55C387.924,262.226,375.661,256.827,362.87,256.827Z" transform="translate(-285.38 -209.174)" fill="#fc2b3a"/>
    <path id="Path_658" data-name="Path 658" d="M381.251,214.135c-4.087,4.087-11.583,3.217-11.583,3.217s-.869-7.5,3.217-11.583c3.247-3.247,8.645-3.365,10.727-3.277a.956.956,0,0,1,.915.915C384.616,205.49,384.5,210.888,381.251,214.135Z" transform="translate(-292.258 -164.906)" fill="#98db7c"/>
    <path id="Path_659" data-name="Path 659" d="M383.608,202.494c-.317-.013-.709-.022-1.159-.015-.018,2.489-.485,6.909-3.294,9.719-2.752,2.752-7.05,3.257-9.564,3.293a16.851,16.851,0,0,0,.077,1.864s7.5.869,11.583-3.217c3.247-3.247,3.365-8.645,3.277-10.727A.957.957,0,0,0,383.608,202.494Z" transform="translate(-292.258 -164.907)" fill="#82d361"/>
    <path id="Path_660" data-name="Path 660" d="M325.995,224.444a1.459,1.459,0,0,1-.2-.013,1.436,1.436,0,0,1-1.23-1.614,16.791,16.791,0,0,0-.518-5.8,15.458,15.458,0,0,0-7.469-9.7,1.437,1.437,0,0,1,1.444-2.484,18.467,18.467,0,0,1,8.835,11.57,19.321,19.321,0,0,1,.555,6.8A1.438,1.438,0,0,1,325.995,224.444Z" transform="translate(-248.504 -166.669)" fill="#62c136"/>
    <path id="Path_661" data-name="Path 661" d="M334.852,289.517a13.008,13.008,0,0,1-7.561-2.416,1.436,1.436,0,0,1,1.781-2.254,10.19,10.19,0,0,0,11.564,0,1.437,1.437,0,0,1,1.776,2.258A13.007,13.007,0,0,1,334.852,289.517Z" transform="translate(-257.363 -231.743)" fill="#e52940"/>
  </g>
</svg>
