<svg xmlns="http://www.w3.org/2000/svg" viewBox="0 0 173.6 309.92"><defs><style>.cls-1{fill:#fabdb6;}.cls-2{fill:#333;}.cls-3{fill:#26565f;}.cls-4{fill:#030303;}.cls-5{fill:#4aadb7;}.cls-6{fill:#5d315d;}.cls-7{fill:#4e1a0f;}.cls-8{fill:#121134;}.cls-9{fill:#fff;}.cls-10{fill:#e9845c;}.cls-11{fill:#eb955f;}</style></defs><g id="Layer_2" data-name="Layer 2"><g id="Layer_1-2" data-name="Layer 1"><g id="Group_200" data-name="Group 200"><g id="Group_142" data-name="Group 142"><g id="Group_141" data-name="Group 141"><path id="Path_60" data-name="Path 60" class="cls-1" d="M127,115.65l-26.84-14.57C92.43,113,83.72,124,70.5,122.37c-8.56-1-22.77-13.19-28.87-32L27.69,93.18c3.62,1,12,44.29,39.58,48.06C103.89,146.24,121.83,113,127,115.65Z"/></g></g><g id="Group_143" data-name="Group 143"><path id="Path_61" data-name="Path 61" class="cls-2" d="M68.48,280.52s-1.63,10.66-6,16.09c-2.87,3.58-10.77,10.68-5.15,13,4.49,1.89,13.14-6.52,15.95-8.61s7-6.05,6.1-9.42c-2-7-1.3-15.77-1.3-15.77Z"/></g><g id="Group_144" data-name="Group 144"><path id="Path_62" data-name="Path 62" class="cls-2" d="M90.19,272.25s2.18,10.56,0,17.17c-1.44,4.36-6.39,13.76-.3,14,4.87.21,10.05-10.68,12-13.62s4.5-8.12,2.45-10.95c-4.26-5.88-6.7-14.33-6.7-14.33Z"/></g><g id="Group_146" data-name="Group 146"><g id="Group_145" data-name="Group 145"><path id="Path_63" data-name="Path 63" class="cls-3" d="M87.15,279.72c-58.3-38.89-55.42-73-47.34-86.28,9.38-15.47,24.23-27.71,47-33.16a125.37,125.37,0,0,1,16.68-2.78,11.65,11.65,0,0,1,12.77,10.43,12,12,0,0,1,.06,1.47l-.53,19.84h0c-9.73-.2-39.24,2.76-47,18.49C67.26,211,106.51,257.09,105,265.36,103.39,274.72,92.85,283.52,87.15,279.72Z"/></g></g><g id="Group_148" data-name="Group 148"><g id="Group_147" data-name="Group 147"><path id="Path_64" data-name="Path 64" class="cls-3" d="M64.54,285.54A11.61,11.61,0,0,1,52.87,274c0-.25,0-.49,0-.74.88-14.88,3.64-40.2,12.3-59.34,4.92-10.85,12.73-20.71,23.22-29.32a130.45,130.45,0,0,1,28.15-17.24c17.9-8.23,30.8-7.08,30.8-7.08l18.28,15.59c-.13,0,3,21.84-19.72,34.53-23.29,13-41.07,3.33-50.51,21.8-6.74,13.19-9.31,30.67-10.17,42.89a11.2,11.2,0,0,1-11.12,10.41Z"/></g></g><g id="Group_149" data-name="Group 149"><path id="Path_65" data-name="Path 65" class="cls-4" d="M55.1,252.73l-.36,0A163.15,163.15,0,0,1,59.8,224.2C63.6,210.29,71,192,84.54,183.88l.19.31c-13.46,8.06-20.8,26.26-24.58,40.1A163.29,163.29,0,0,0,55.1,252.73Z"/></g><g id="Group_150" data-name="Group 150"><path id="Path_66" data-name="Path 66" class="cls-4" d="M84.81,278h-.36a105.64,105.64,0,0,1,7-36.87l.33.14A105.34,105.34,0,0,0,84.81,278Z"/></g><g id="Group_151" data-name="Group 151"><path id="Path_67" data-name="Path 67" class="cls-5" d="M157.41,105.48s-6.13-16.25-28.86-15-38.44,6.37-41.74,69.83c0,0,19.14,18.91,66.45,21.8,7,.42,15.47,2.83,15.86-4.16C169.89,164,167,137.36,157.41,105.48Z"/></g><g id="Group_152" data-name="Group 152"><path id="Path_68" data-name="Path 68" class="cls-5" d="M173.59,110.94l-16.18,3.65S116,119.44,105,117.67s-14.18-10.49-14.18-10.49a59.62,59.62,0,0,1,31.38-17.26A54.14,54.14,0,0,1,128,89.1a50.6,50.6,0,0,1,9.92-.26C170.29,92.23,173.59,110.94,173.59,110.94Z"/></g><g id="Group_153" data-name="Group 153"><path id="Path_69" data-name="Path 69" class="cls-1" d="M132.12,86l-3.43-6-1-1.75L121.83,67.9l2,11.13L125,85.71l.37,2.11c.26,1.44-.55,1.92-1.33,3.39-.32.6-2.39,4.23,1,4.92,4.25.87,10.91-3.3,12.92-7.3C137.92,88.84,133.22,88,132.12,86Z"/></g><g id="Group_169" data-name="Group 169"><g id="Group_154" data-name="Group 154"><path id="Path_70" data-name="Path 70" class="cls-6" d="M112.08,65.67a15.09,15.09,0,0,0,1.33,6c1.43,3.21,3-5.81,3-5.81Z"/></g><g id="Group_155" data-name="Group 155"><ellipse id="Ellipse_8" data-name="Ellipse 8" class="cls-1" cx="123.26" cy="71.92" rx="10.09" ry="12.16" transform="matrix(1, -0.08, 0.08, 1, -5.65, 10.69)"/></g><g id="Group_156" data-name="Group 156"><path id="Path_71" data-name="Path 71" class="cls-7" d="M132.82,67.61l-4.88.55a3.55,3.55,0,0,1-2.92-1c-1.31-1.32-2.66-1.84-7.07-.7-5.59,1.44-10-1.1-11.3-3.92s1.16-5.54,4.3-4.73,1.16-2.43,3.8-3.4c4.93-1.81,6.74,1.9,10.88.86,5.42-1.36,16.1.65,13.57,11.28Z"/></g><g id="Group_158" data-name="Group 158"><g id="Group_157" data-name="Group 157"><path id="Path_72" data-name="Path 72" class="cls-8" d="M122.64,71.54a.2.2,0,0,1-.14-.25.18.18,0,0,1,.15-.14,2.22,2.22,0,0,1,2.59.81.2.2,0,0,1,0,.28.21.21,0,0,1-.28,0,3.54,3.54,0,0,0-2.15-.67Z"/></g></g><g id="Group_159" data-name="Group 159"><path id="Path_73" data-name="Path 73" class="cls-8" d="M124.06,73.91c0,.49-.33.87-.68.85s-.62-.43-.6-.92.33-.86.68-.85S124.09,73.42,124.06,73.91Z"/></g><g id="Group_161" data-name="Group 161"><g id="Group_160" data-name="Group 160"><path id="Path_74" data-name="Path 74" class="cls-8" d="M115.12,72.56a.13.13,0,0,1-.13-.08.23.23,0,0,1,0-.28,1.43,1.43,0,0,1,2-.28l.07.06a.25.25,0,0,1,.07.28.16.16,0,0,1-.2.09h0a2.14,2.14,0,0,0-1.73.17A.12.12,0,0,1,115.12,72.56Z"/></g></g><g id="Group_162" data-name="Group 162"><path id="Path_75" data-name="Path 75" class="cls-8" d="M117.39,74.21a.68.68,0,1,1-1.21.43.78.78,0,0,1,.31-1C116.82,73.47,117.22,73.75,117.39,74.21Z"/></g><g id="Group_163" data-name="Group 163"><path id="Path_76" data-name="Path 76" class="cls-7" d="M139.21,66.54s-1.74,7.83-6.3,9.38c0,0,2.59-6.25-6.1-7.8C126.82,68.11,133.88,65.36,139.21,66.54Z"/></g><g id="Group_164" data-name="Group 164"><path id="Path_77" data-name="Path 77" class="cls-1" d="M133.48,71.91a2,2,0,1,1,.17-2.94A2.1,2.1,0,0,1,133.48,71.91Z"/></g><g id="Group_165" data-name="Group 165"><path id="Path_78" data-name="Path 78" class="cls-7" d="M126.82,68.11s1.94,5.83,1,7.22-8.88,3.63-12.93,3h0A8,8,0,0,0,123,84.78a12,12,0,0,0,3.83-.85h0c2.51-1,4.82-2.68,5.37-5.34.17-.81-1.78-5.15-1.78-5.15s-.95-2.59.3-4.32A7.79,7.79,0,0,0,126.82,68.11Z"/></g><g id="Group_166" data-name="Group 166"><path id="Path_79" data-name="Path 79" class="cls-9" d="M117.3,80.06a20.72,20.72,0,0,0,6.54-.9,3.18,3.18,0,0,1-3,3.34h-.35C118.44,82.57,117.3,80.06,117.3,80.06Z"/></g><g id="Group_167" data-name="Group 167"><path id="Path_80" data-name="Path 80" class="cls-7" d="M111.37,57.23l-.05-.27a1.27,1.27,0,0,0,1.2-1.33v0l.28,0A1.55,1.55,0,0,1,111.37,57.23Z"/></g><g id="Group_168" data-name="Group 168"><path id="Path_81" data-name="Path 81" class="cls-9" d="M116,65.23a18.59,18.59,0,0,1-3.38-.61c-2.3-.66-3.72-1.7-4.12-3a2.21,2.21,0,0,1,.08-2c.53-.7,1.7-.68,2.74-.67h.45v.14h-.45c-1,0-2.14,0-2.63.61a2.12,2.12,0,0,0-.06,1.87c.93,3,7.31,3.5,7.38,3.5Z"/></g></g><g id="Group_175" data-name="Group 175"><g id="Group_171" data-name="Group 171"><g id="Group_170" data-name="Group 170"><path id="Path_82" data-name="Path 82" class="cls-1" d="M112.69,178.72s-10.14-2.54-15.19.9-8.92,11.66-5.33,10.19a40.19,40.19,0,0,0,7.65-4.61s-8.37,7.12-5.86,8.36,9.73-5,9.73-5-9.28,9.27-6.53,9.67,9.76-6.69,9.76-6.69-8.3,9-5.09,9.35,6.81-7.45,9.32-6.21,12.91,5.3,17.2-1.26Z"/></g></g><g id="Group_172" data-name="Group 172"><path id="Path_83" data-name="Path 83" class="cls-10" d="M100,185.35l-.34-.3c.09-.1,2.18-2.47,4.17-2.23l0,.45C102,183.06,100,185.32,100,185.35Z"/></g><g id="Group_173" data-name="Group 173"><path id="Path_84" data-name="Path 84" class="cls-10" d="M103.87,188.67l-.35-.29a8,8,0,0,1,4.91-2.64l0,.45A7.6,7.6,0,0,0,103.87,188.67Z"/></g><g id="Group_174" data-name="Group 174"><path id="Path_85" data-name="Path 85" class="cls-10" d="M107.09,191.65l-.35-.3c.1-.12,2.58-2.92,4.68-2.48l-.09.44C109.48,188.93,107.11,191.63,107.09,191.65Z"/></g></g><g id="Group_176" data-name="Group 176"><ellipse id="Ellipse_9" data-name="Ellipse 9" class="cls-2" cx="158.67" cy="113" rx="15.07" ry="3.86" transform="translate(-14 22.83) rotate(-7.88)"/></g><g id="Group_178" data-name="Group 178"><g id="Group_177" data-name="Group 177"><path id="Path_86" data-name="Path 86" class="cls-1" d="M126.54,195.32c26.72-13.24,39.74-22.77,43.42-47.87,3-20.4.4-34.5.2-35.22,0,0-1.69-2.09-12.1-.19-9.28,1.69-9.81,3.88-9.81,3.88a57.82,57.82,0,0,1,.41,27.64c-4.47,19.17-13.34,27.67-36,35.16C112.68,178.72,121.1,198,126.54,195.32Z"/></g></g><g id="Group_179" data-name="Group 179"><path id="Path_87" data-name="Path 87" class="cls-2" d="M143.74,115.21a.13.13,0,0,1-.13-.1c0-.07-1.6-6.85-.78-11.75a.13.13,0,0,1,.16-.1.13.13,0,0,1,.11.15c-.81,4.84.76,11.57.77,11.63a.13.13,0,0,1-.1.17Z"/></g><g id="Group_180" data-name="Group 180"><path id="Path_88" data-name="Path 88" class="cls-10" d="M158.36,164.77a1.16,1.16,0,0,1-.6-.15c-1-.58-.87-2.64.31-4.68h0c1.18-2.05,2.89-3.19,3.91-2.61a1.87,1.87,0,0,1,.66,1.9,7.27,7.27,0,0,1-1,2.78C160.7,163.7,159.37,164.77,158.36,164.77Zm.2-4.55c-1.08,1.86-1.14,3.56-.51,3.91s2.06-.54,3.13-2.4a6.5,6.5,0,0,0,.9-2.55c.07-.69-.07-1.18-.38-1.36-.63-.36-2.07.54-3.14,2.4Z"/></g><g id="Group_181" data-name="Group 181"><path id="Path_89" data-name="Path 89" class="cls-1" d="M50.46,91.94l-3.13-.45a2.58,2.58,0,0,1-3.56-.78s-3.26-7.92-6.72-12.31c-4.56-5.76.46-6.13,4.15-2.76C51.17,84.75,49.65,88.16,50.46,91.94Z"/></g><g id="Group_196" data-name="Group 196"><g id="Group_190" data-name="Group 190"><g id="Group_182" data-name="Group 182"><path id="Path_90" data-name="Path 90" class="cls-5" d="M15.42,38.44S6.47,26.92,12.51,18,32.68-2.29,34.61.41s3.86,18.32-2.51,25.46S15.42,38.44,15.42,38.44Z"/></g><g id="Group_189" data-name="Group 189"><g id="Group_184" data-name="Group 184"><g id="Group_183" data-name="Group 183"><path id="Path_91" data-name="Path 91" class="cls-3" d="M15.16,43.6a.32.32,0,0,1-.14,0,.57.57,0,0,1-.63-.52c-.06-.55-1.17-13.88,17.43-39.54a.59.59,0,0,1,1,.67h0C14.47,29.48,15.53,42.86,15.55,43A.6.6,0,0,1,15.16,43.6Z"/></g></g><g id="Group_186" data-name="Group 186"><g id="Group_185" data-name="Group 185"><path id="Path_92" data-name="Path 92" class="cls-3" d="M33.81,14.11h0L24,17.52a.57.57,0,0,1-.74-.36.58.58,0,0,1,.35-.74h0L33.42,13a.6.6,0,0,1,.75.36A.59.59,0,0,1,33.81,14.11Z"/></g></g><g id="Group_188" data-name="Group 188"><g id="Group_187" data-name="Group 187"><path id="Path_93" data-name="Path 93" class="cls-3" d="M18.28,29.47a.58.58,0,0,1-.65-.19c-2.73-3.35-1.39-11-1.33-11.38a.6.6,0,0,1,.7-.45.58.58,0,0,1,.45.66c0,.07-1.31,7.5,1.09,10.44a.59.59,0,0,1-.09.82.56.56,0,0,1-.17.09Z"/></g></g></g></g><g id="Group_192" data-name="Group 192"><g id="Group_191" data-name="Group 191"><path id="Path_94" data-name="Path 94" class="cls-3" d="M27.43,55.26a.42.42,0,0,1-.17.1.71.71,0,0,1-1-.36C21.54,44.25.73,37.12.52,37.05A.73.73,0,0,1,0,36.14a.73.73,0,0,1,.91-.48H1a85.4,85.4,0,0,1,11.37,5c8,4.32,13.16,8.93,15.28,13.7A.72.72,0,0,1,27.43,55.26Z"/></g></g><g id="Group_195" data-name="Group 195"><g id="Group_193" data-name="Group 193"><path id="Path_95" data-name="Path 95" class="cls-3" d="M20.19,87.13A27.45,27.45,0,1,1,62.71,52.4c12.68,15.53,13.68,36.17,1.93,45.76S34.05,104.1,20.19,87.13Z"/></g><g id="Group_194" data-name="Group 194"><path id="Path_96" data-name="Path 96" class="cls-5" d="M50.14,49.17s-11.77-5.23-17.37.91S46,59.41,49.24,57.63,55,50.7,50.14,49.17Z"/></g></g></g><g id="Group_198" data-name="Group 198"><g id="Group_197" data-name="Group 197"><path id="Path_97" data-name="Path 97" class="cls-1" d="M32.71,105.24s3.67,4.5,7.28,1.45c4.6-3.9,5.38-18.67-2.14-7.82-.21.32,3.2-6.89,1.1-8.08-1.57-.89-5.13,4.8-5.13,4.8s3.35-7.48,1.82-8.66-5.32,4.75-5.32,4.75,4.19-6.84.88-7.06c-1.8-.12-5.55,6.07-7.1,8.38s-.46,4,1.86,5.6c0,0,1.58,2.83,3.3,3.48.66.25.87,1.16,1.24,1.51A20.8,20.8,0,0,0,32.71,105.24Z"/></g></g><g id="Group_199" data-name="Group 199"><path id="Path_98" data-name="Path 98" class="cls-11" d="M38,107.87a8.68,8.68,0,0,1-4.2-1.28l.26-.41s3.12,1.95,5.67.87c2.77-1.18,2.88-4.47,2.88-4.5h.48s-.12,3.64-3.17,4.94A4.86,4.86,0,0,1,38,107.87Z"/></g></g></g></g></svg>