<svg xmlns="http://www.w3.org/2000/svg" width="20.208" height="18.187" viewBox="0 0 20.208 18.187">
  <g id="food" transform="translate(-16 -40)">
    <path id="Path_437" data-name="Path 437" d="M128.278,56.674a7.733,7.733,0,0,1,5.164,1.972l.449-.5a8.42,8.42,0,0,0-11.227,0l.449.5A7.732,7.732,0,0,1,128.278,56.674Z" transform="translate(-102.175 -15.327)" fill="#c5251c"/>
    <path id="Path_438" data-name="Path 438" d="M112.315,380.323a7.753,7.753,0,0,1-5.81-2.623l-.505.446a8.42,8.42,0,0,0,12.63,0l-.505-.446A7.753,7.753,0,0,1,112.315,380.323Z" transform="translate(-86.211 -323.483)" fill="#c5251c"/>
    <path id="Path_439" data-name="Path 439" d="M116.045,109.444a5.787,5.787,0,0,1,.079.955,5.705,5.705,0,0,1-.263,1.716,1.363,1.363,0,0,0-.455-.369,6.225,6.225,0,0,0-1.422-.513,3.369,3.369,0,0,0-3.774-5.516,1.515,1.515,0,0,0-2.427.661,1.516,1.516,0,0,0-1.648,2.076l-.06.032a1.19,1.19,0,0,0-.781,1.073,1.966,1.966,0,0,1-.057.266,1.835,1.835,0,0,1-.106.236,1.21,1.21,0,0,0,0,1.35,1.832,1.832,0,0,1,.106.236,1.966,1.966,0,0,1,.057.266,1.19,1.19,0,0,0,.781,1.073,1.91,1.91,0,0,1,.233.134,1.884,1.884,0,0,1,.2.177,1.185,1.185,0,0,0,1.259.414,1.349,1.349,0,0,1,.554,0l.06.009a1.1,1.1,0,0,0-.135.331.853.853,0,0,0,.147.724,1.159,1.159,0,0,0,1.441.257,4.261,4.261,0,0,1,3.833,0l.058.027a5.724,5.724,0,1,1,.149-9.215,5.767,5.767,0,0,1,2.031,2.963l.647-.187a6.446,6.446,0,0,0-2.269-3.312A6.341,6.341,0,0,0,110.4,104a6.4,6.4,0,1,0,4.417,11.025.979.979,0,0,0,.287-.249.808.808,0,0,0,.087-.138A6.373,6.373,0,0,0,116.8,110.4a6.463,6.463,0,0,0-.089-1.067Zm-.62,3.272a.2.2,0,0,1-.023.164.5.5,0,0,1-.605.067,4.939,4.939,0,0,0-3.4-.384h-.006a4.877,4.877,0,0,0-1.029.382.5.5,0,0,1-.607-.067.2.2,0,0,1-.022-.164.59.59,0,0,1,.323-.37,5.611,5.611,0,0,1,5.046,0A.59.59,0,0,1,115.426,112.716Zm-.985-4a2.687,2.687,0,0,1-1.421,2.375,6.307,6.307,0,0,0-2,.18,1.247,1.247,0,0,0,.137-.535,1.478,1.478,0,0,0-.206-.675,1.831,1.831,0,0,1-.106-.236,1.215,1.215,0,0,1-.035-.142,1.347,1.347,0,1,0-.411-.968q0,.008,0,.016a2.05,2.05,0,0,0-.392-.245,1.914,1.914,0,0,1-.233-.134c-.022-.016-.044-.034-.066-.054a1.516,1.516,0,0,0,.907-2.029,2.664,2.664,0,0,1,1.132-.248A2.7,2.7,0,0,1,114.441,108.714Zm-3.368,0a.674.674,0,1,1,.674.674A.674.674,0,0,1,111.073,108.714Zm-1.852-2.694a.842.842,0,1,1-.842.842A.842.842,0,0,1,109.22,106.02Zm-1.684,1.01a.846.846,0,0,1,.18.019,1.517,1.517,0,0,0,.631,1.051.842.842,0,1,1-.811-1.07Zm.505,5.978a2.525,2.525,0,0,0-.376.036.563.563,0,0,1-.687-.227,2.391,2.391,0,0,0-.273-.243,2.428,2.428,0,0,0-.318-.187.567.567,0,0,1-.428-.588,2.487,2.487,0,0,0-.08-.362,2.345,2.345,0,0,0-.145-.33.584.584,0,0,1,0-.745,2.339,2.339,0,0,0,.145-.33,2.486,2.486,0,0,0,.08-.362.567.567,0,0,1,.428-.588c.048-.025.1-.05.144-.077a1.515,1.515,0,0,0,2.391-.521,2.19,2.19,0,0,1,.182.168,2.4,2.4,0,0,0,.273.243,2.431,2.431,0,0,0,.318.187.567.567,0,0,1,.428.588,2.486,2.486,0,0,0,.08.362,2.344,2.344,0,0,0,.145.33.584.584,0,0,1,0,.745,2.339,2.339,0,0,0-.145.33c-.012.036-.022.073-.032.114q-.213.088-.419.193a1.264,1.264,0,0,0-.677.823.951.951,0,0,0-.021.3.777.777,0,0,1-.259.192.973.973,0,0,1-.379-.014,2.525,2.525,0,0,0-.376-.036Zm5.924,1.421a4.935,4.935,0,0,0-4.437,0,.5.5,0,0,1-.607-.067.2.2,0,0,1-.022-.164.59.59,0,0,1,.323-.37c.149-.075.3-.145.459-.207a1.26,1.26,0,0,0,.982-.073,4.214,4.214,0,0,1,.834-.316,5.639,5.639,0,0,1,.566,0,5.555,5.555,0,0,1,2.206.592.59.59,0,0,1,.323.37.277.277,0,0,1,.006.088q-.085.092-.175.181A.59.59,0,0,1,113.966,114.43Z" transform="translate(-84.295 -61.305)" fill="#c5251c"/>
    <path id="Path_440" data-name="Path 440" d="M403.368,40v3.368h-1.01V40h-.674v3.368h-1.01V40H400v5.557a1.181,1.181,0,0,0,.98,1.162l-.3,10.044c0,.025,0,.051,0,.077a1.347,1.347,0,0,0,2.694,0c0-.026,0-.051,0-.077l-.069-2.291-.673.02.07,2.3s0,.007,0,.01,0,.028,0,.041a.674.674,0,1,1-1.347,0c0-.014,0-.028,0-.041s0-.007,0-.01l.3-10.052h.734l.215,7.083.673-.02-.215-7.079a1.181,1.181,0,0,0,.98-1.162V40Zm0,5.557a.506.506,0,0,1-.505.505h-1.684a.506.506,0,0,1-.505-.505V44.042h2.694Z" transform="translate(-367.834)" fill="#c5251c"/>
    <path id="Path_441" data-name="Path 441" d="M19.05,46.346a3.974,3.974,0,0,0,1.088-2.978c0-1.889-.909-3.368-2.069-3.368S16,41.479,16,43.368a4.093,4.093,0,0,0,.994,2.893l-.075,2.486.673.02.064-2.1a1.356,1.356,0,0,0,.732.027l.306,10.09s0,.007,0,.01,0,.028,0,.041a.674.674,0,0,1-1.347,0c0-.014,0-.028,0-.041s0-.007,0-.01l.223-7.348-.673-.02-.223,7.343c0,.025,0,.051,0,.077a1.347,1.347,0,1,0,2.694,0c0-.026,0-.051,0-.077Zm-2.377-2.978c0-1.612.721-2.694,1.4-2.694s1.4,1.083,1.4,2.694-.722,2.694-1.4,2.694S16.674,44.98,16.674,43.368Z" transform="translate(0 0)" fill="#c5251c"/>
    <rect id="Rectangle_53" data-name="Rectangle 53" width="1.065" height="0.674" transform="translate(22.08 49.661) rotate(-71.566)" fill="#c5251c"/>
    <rect id="Rectangle_54" data-name="Rectangle 54" width="1.065" height="0.674" transform="matrix(0.949, -0.316, 0.316, 0.949, 23.303, 50.458)" fill="#c5251c"/>
    <rect id="Rectangle_55" data-name="Rectangle 55" width="0.674" height="1.214" transform="matrix(0.555, -0.832, 0.832, 0.555, 23.896, 49.037)" fill="#c5251c"/>
  </g>
</svg>
