<?xml version="1.0" encoding="utf-8"?>
<!-- Generator: Adobe Illustrator 25.0.0, SVG Export Plug-In . SVG Version: 6.00 Build 0)  -->
<svg version="1.1" id="Layer_1" xmlns="http://www.w3.org/2000/svg" xmlns:xlink="http://www.w3.org/1999/xlink" x="0px" y="0px"
	 viewBox="0 0 32 26.9" style="enable-background:new 0 0 32 26.9;" xml:space="preserve">
<style type="text/css">
	.st0{fill:#C5251C;}
</style>
<g id="food_1_">
	<path class="st0" d="M29.5,15.9h-2.7c0-0.2-0.1-0.5-0.2-0.7l4.8-2.4c0.5-0.2,0.7-0.8,0.4-1.3C31.6,11,31,10.8,30.6,11L26,13.3
		c-1.7-3.8-5.6-6.4-10-6.4c-5.4,0-9.9,3.9-10.8,9H2.5C1.1,15.9,0,17,0,18.4c0,0.5,0.2,1,0.5,1.3L4,23.7v0.7c0,1.4,1.1,2.5,2.5,2.5
		h19c1.4,0,2.5-1.1,2.5-2.5v-0.7l3.5-3.9c0.3-0.4,0.5-0.8,0.5-1.3C32,17,30.9,15.9,29.5,15.9z M25.8,15.9h-0.6l0.5-0.2
		C25.8,15.8,25.8,15.8,25.8,15.9z M16,7.9c4,0,7.5,2.4,9.1,5.8l-0.9,0.4c-1.4-3.1-4.5-5.3-8.2-5.3c-4.3,0-7.9,3-8.8,7h-1
		C7.1,11.4,11.2,7.9,16,7.9z M20.6,15.9c-0.8-1.8-2.5-3-4.6-3s-3.8,1.2-4.6,3h-1.1c0.8-2.3,3-4,5.6-4c2.5,0,4.6,1.5,5.5,3.6
		l-0.7,0.4H20.6z M16,14.9c-0.9,0-1.7,0.4-2.2,1h-1.2c0.7-1.2,2-2,3.4-2c1.5,0,2.8,0.8,3.4,2h-1.2C17.7,15.3,16.9,14.9,16,14.9z
		 M16,10.9c-3.2,0-5.8,2.1-6.7,5h-1c0.9-3.4,4-6,7.7-6c3.2,0,6,1.9,7.3,4.7l-0.9,0.4C21.3,12.6,18.9,10.9,16,10.9z M26.7,23.3v1.2
		c0,0.6-0.7,1.4-1.3,1.4H6.3c-0.3,0-1-0.7-1-1v-1.5l-4.1-4.5c-0.5-0.4,0.3-1.8,1.3-1.8h1.7h1.1h1.1h1.1h1.1h1.1h1.1h1.1h1.1h6.4h1.1
		h1.1h1.1h1.1h1.1h1.1h1.1h1.1h2c1,0,1.3,1.6,0.8,2L26.7,23.3z"/>
	<path class="st0" d="M4.3,12.8C4.3,12.8,4.3,12.8,4.3,12.8C4.3,12.8,4.3,12.8,4.3,12.8c0.1,0.1,0.2,0.2,0.4,0.2
		c0.2,0,0.3-0.2,0.3-0.4c0,0,0-0.1,0-0.1c0,0,0,0,0,0c-0.4-0.6-0.3-1.4-0.1-2.2c0.2-0.9,0.4-1.9-0.2-2.8C4.6,7.2,4.5,7.1,4.3,7.2
		C4.1,7.2,4,7.4,4,7.6c0,0,0,0.1,0,0.1c0,0,0,0,0,0c0,0,0,0,0,0c0,0,0,0,0,0C4.5,8.4,4.3,9.1,4.1,10C3.9,10.9,3.7,11.9,4.3,12.8
		C4.3,12.8,4.3,12.8,4.3,12.8z"/>
	<path class="st0" d="M25.6,10.1C25.6,10.1,25.6,10.1,25.6,10.1L25.6,10.1c0.1,0.1,0.2,0.2,0.4,0.2c0.2,0,0.4-0.2,0.3-0.4
		c0,0,0-0.1,0-0.1c0,0,0,0,0,0c-0.4-0.6-0.2-1.4,0.1-2.3c0.3-0.9,0.5-1.9,0-2.8c-0.1-0.1-0.2-0.2-0.4-0.2c-0.2,0-0.4,0.2-0.3,0.4
		c0,0,0,0.1,0,0.1c0,0,0,0,0,0c0,0,0,0,0,0c0,0,0,0,0,0c0.4,0.7,0.2,1.4-0.1,2.3C25.3,8.1,25,9.1,25.6,10.1
		C25.6,10,25.6,10,25.6,10.1z"/>
	<path class="st0" d="M14.3,5.8C14.3,5.8,14.3,5.8,14.3,5.8C14.3,5.8,14.3,5.8,14.3,5.8c0.1,0.1,0.2,0.2,0.4,0.2
		c0.2,0,0.3-0.2,0.3-0.4c0,0,0-0.1,0-0.1c0,0,0,0,0,0c-0.4-0.6-0.3-1.4-0.1-2.2c0.2-0.9,0.4-1.9-0.2-2.8c-0.1-0.1-0.2-0.2-0.4-0.2
		c-0.2,0-0.3,0.2-0.3,0.4c0,0,0,0.1,0,0.1c0,0,0,0,0,0c0,0,0,0,0,0c0,0,0,0,0,0c0.4,0.6,0.3,1.4,0.1,2.2C14,3.9,13.7,4.9,14.3,5.8
		C14.3,5.8,14.3,5.8,14.3,5.8z"/>
</g>
</svg>
