<svg id="App_Store" data-name="App Store" xmlns="http://www.w3.org/2000/svg" width="200" height="200" viewBox="0 0 200 200">
  <rect id="Rectangle_842" data-name="Rectangle 842" width="200" height="200" fill="#fff"/>
  <rect id="Rectangle_843" data-name="Rectangle 843" width="6" height="6" transform="translate(13 13)"/>
  <rect id="Rectangle_844" data-name="Rectangle 844" width="6" height="6" transform="translate(19 13)"/>
  <rect id="Rectangle_845" data-name="Rectangle 845" width="6" height="6" transform="translate(25 13)"/>
  <rect id="Rectangle_846" data-name="Rectangle 846" width="6" height="6" transform="translate(31 13)"/>
  <rect id="Rectangle_847" data-name="Rectangle 847" width="6" height="6" transform="translate(37 13)"/>
  <rect id="Rectangle_848" data-name="Rectangle 848" width="6" height="6" transform="translate(43 13)"/>
  <rect id="Rectangle_849" data-name="Rectangle 849" width="6" height="6" transform="translate(49 13)"/>
  <rect id="Rectangle_850" data-name="Rectangle 850" width="6" height="6" transform="translate(67 13)"/>
  <rect id="Rectangle_851" data-name="Rectangle 851" width="6" height="6" transform="translate(73 13)"/>
  <rect id="Rectangle_852" data-name="Rectangle 852" width="6" height="6" transform="translate(79 13)"/>
  <rect id="Rectangle_853" data-name="Rectangle 853" width="6" height="6" transform="translate(85 13)"/>
  <rect id="Rectangle_854" data-name="Rectangle 854" width="6" height="6" transform="translate(109 13)"/>
  <rect id="Rectangle_855" data-name="Rectangle 855" width="6" height="6" transform="translate(115 13)"/>
  <rect id="Rectangle_856" data-name="Rectangle 856" width="6" height="6" transform="translate(121 13)"/>
  <rect id="Rectangle_857" data-name="Rectangle 857" width="6" height="6" transform="translate(127 13)"/>
  <rect id="Rectangle_858" data-name="Rectangle 858" width="6" height="6" transform="translate(145 13)"/>
  <rect id="Rectangle_859" data-name="Rectangle 859" width="6" height="6" transform="translate(151 13)"/>
  <rect id="Rectangle_860" data-name="Rectangle 860" width="6" height="6" transform="translate(157 13)"/>
  <rect id="Rectangle_861" data-name="Rectangle 861" width="6" height="6" transform="translate(163 13)"/>
  <rect id="Rectangle_862" data-name="Rectangle 862" width="6" height="6" transform="translate(169 13)"/>
  <rect id="Rectangle_863" data-name="Rectangle 863" width="6" height="6" transform="translate(175 13)"/>
  <rect id="Rectangle_864" data-name="Rectangle 864" width="6" height="6" transform="translate(181 13)"/>
  <rect id="Rectangle_865" data-name="Rectangle 865" width="6" height="6" transform="translate(13 19)"/>
  <rect id="Rectangle_866" data-name="Rectangle 866" width="6" height="6" transform="translate(49 19)"/>
  <rect id="Rectangle_867" data-name="Rectangle 867" width="6" height="6" transform="translate(61 19)"/>
  <rect id="Rectangle_868" data-name="Rectangle 868" width="6" height="6" transform="translate(67 19)"/>
  <rect id="Rectangle_869" data-name="Rectangle 869" width="6" height="6" transform="translate(91 19)"/>
  <rect id="Rectangle_870" data-name="Rectangle 870" width="6" height="6" transform="translate(97 19)"/>
  <rect id="Rectangle_871" data-name="Rectangle 871" width="6" height="6" transform="translate(103 19)"/>
  <rect id="Rectangle_872" data-name="Rectangle 872" width="6" height="6" transform="translate(109 19)"/>
  <rect id="Rectangle_873" data-name="Rectangle 873" width="6" height="6" transform="translate(115 19)"/>
  <rect id="Rectangle_874" data-name="Rectangle 874" width="6" height="6" transform="translate(133 19)"/>
  <rect id="Rectangle_875" data-name="Rectangle 875" width="6" height="6" transform="translate(145 19)"/>
  <rect id="Rectangle_876" data-name="Rectangle 876" width="6" height="6" transform="translate(181 19)"/>
  <rect id="Rectangle_877" data-name="Rectangle 877" width="6" height="6" transform="translate(13 25)"/>
  <rect id="Rectangle_878" data-name="Rectangle 878" width="6" height="6" transform="translate(25 25)"/>
  <rect id="Rectangle_879" data-name="Rectangle 879" width="6" height="6" transform="translate(31 25)"/>
  <rect id="Rectangle_880" data-name="Rectangle 880" width="6" height="6" transform="translate(37 25)"/>
  <rect id="Rectangle_881" data-name="Rectangle 881" width="6" height="6" transform="translate(49 25)"/>
  <rect id="Rectangle_882" data-name="Rectangle 882" width="6" height="6" transform="translate(67 25)"/>
  <rect id="Rectangle_883" data-name="Rectangle 883" width="6" height="6" transform="translate(85 25)"/>
  <rect id="Rectangle_884" data-name="Rectangle 884" width="6" height="6" transform="translate(103 25)"/>
  <rect id="Rectangle_885" data-name="Rectangle 885" width="6" height="6" transform="translate(109 25)"/>
  <rect id="Rectangle_886" data-name="Rectangle 886" width="6" height="6" transform="translate(133 25)"/>
  <rect id="Rectangle_887" data-name="Rectangle 887" width="6" height="6" transform="translate(145 25)"/>
  <rect id="Rectangle_888" data-name="Rectangle 888" width="6" height="6" transform="translate(157 25)"/>
  <rect id="Rectangle_889" data-name="Rectangle 889" width="6" height="6" transform="translate(163 25)"/>
  <rect id="Rectangle_890" data-name="Rectangle 890" width="6" height="6" transform="translate(169 25)"/>
  <rect id="Rectangle_891" data-name="Rectangle 891" width="6" height="6" transform="translate(181 25)"/>
  <rect id="Rectangle_892" data-name="Rectangle 892" width="6" height="6" transform="translate(13 31)"/>
  <rect id="Rectangle_893" data-name="Rectangle 893" width="6" height="6" transform="translate(25 31)"/>
  <rect id="Rectangle_894" data-name="Rectangle 894" width="6" height="6" transform="translate(31 31)"/>
  <rect id="Rectangle_895" data-name="Rectangle 895" width="6" height="6" transform="translate(37 31)"/>
  <rect id="Rectangle_896" data-name="Rectangle 896" width="6" height="6" transform="translate(49 31)"/>
  <rect id="Rectangle_897" data-name="Rectangle 897" width="6" height="6" transform="translate(61 31)"/>
  <rect id="Rectangle_898" data-name="Rectangle 898" width="6" height="6" transform="translate(91 31)"/>
  <rect id="Rectangle_899" data-name="Rectangle 899" width="6" height="6" transform="translate(97 31)"/>
  <rect id="Rectangle_900" data-name="Rectangle 900" width="6" height="6" transform="translate(103 31)"/>
  <rect id="Rectangle_901" data-name="Rectangle 901" width="6" height="6" transform="translate(115 31)"/>
  <rect id="Rectangle_902" data-name="Rectangle 902" width="6" height="6" transform="translate(127 31)"/>
  <rect id="Rectangle_903" data-name="Rectangle 903" width="6" height="6" transform="translate(145 31)"/>
  <rect id="Rectangle_904" data-name="Rectangle 904" width="6" height="6" transform="translate(157 31)"/>
  <rect id="Rectangle_905" data-name="Rectangle 905" width="6" height="6" transform="translate(163 31)"/>
  <rect id="Rectangle_906" data-name="Rectangle 906" width="6" height="6" transform="translate(169 31)"/>
  <rect id="Rectangle_907" data-name="Rectangle 907" width="6" height="6" transform="translate(181 31)"/>
  <rect id="Rectangle_908" data-name="Rectangle 908" width="6" height="6" transform="translate(13 37)"/>
  <rect id="Rectangle_909" data-name="Rectangle 909" width="6" height="6" transform="translate(25 37)"/>
  <rect id="Rectangle_910" data-name="Rectangle 910" width="6" height="6" transform="translate(31 37)"/>
  <rect id="Rectangle_911" data-name="Rectangle 911" width="6" height="6" transform="translate(37 37)"/>
  <rect id="Rectangle_912" data-name="Rectangle 912" width="6" height="6" transform="translate(49 37)"/>
  <rect id="Rectangle_913" data-name="Rectangle 913" width="6" height="6" transform="translate(67 37)"/>
  <rect id="Rectangle_914" data-name="Rectangle 914" width="6" height="6" transform="translate(73 37)"/>
  <rect id="Rectangle_915" data-name="Rectangle 915" width="6" height="6" transform="translate(79 37)"/>
  <rect id="Rectangle_916" data-name="Rectangle 916" width="6" height="6" transform="translate(85 37)"/>
  <rect id="Rectangle_917" data-name="Rectangle 917" width="6" height="6" transform="translate(97 37)"/>
  <rect id="Rectangle_918" data-name="Rectangle 918" width="6" height="6" transform="translate(109 37)"/>
  <rect id="Rectangle_919" data-name="Rectangle 919" width="6" height="6" transform="translate(115 37)"/>
  <rect id="Rectangle_920" data-name="Rectangle 920" width="6" height="6" transform="translate(121 37)"/>
  <rect id="Rectangle_921" data-name="Rectangle 921" width="6" height="6" transform="translate(127 37)"/>
  <rect id="Rectangle_922" data-name="Rectangle 922" width="6" height="6" transform="translate(133 37)"/>
  <rect id="Rectangle_923" data-name="Rectangle 923" width="6" height="6" transform="translate(145 37)"/>
  <rect id="Rectangle_924" data-name="Rectangle 924" width="6" height="6" transform="translate(157 37)"/>
  <rect id="Rectangle_925" data-name="Rectangle 925" width="6" height="6" transform="translate(163 37)"/>
  <rect id="Rectangle_926" data-name="Rectangle 926" width="6" height="6" transform="translate(169 37)"/>
  <rect id="Rectangle_927" data-name="Rectangle 927" width="6" height="6" transform="translate(181 37)"/>
  <rect id="Rectangle_928" data-name="Rectangle 928" width="6" height="6" transform="translate(13 43)"/>
  <rect id="Rectangle_929" data-name="Rectangle 929" width="6" height="6" transform="translate(49 43)"/>
  <rect id="Rectangle_930" data-name="Rectangle 930" width="6" height="6" transform="translate(61 43)"/>
  <rect id="Rectangle_931" data-name="Rectangle 931" width="6" height="6" transform="translate(67 43)"/>
  <rect id="Rectangle_932" data-name="Rectangle 932" width="6" height="6" transform="translate(85 43)"/>
  <rect id="Rectangle_933" data-name="Rectangle 933" width="6" height="6" transform="translate(97 43)"/>
  <rect id="Rectangle_934" data-name="Rectangle 934" width="6" height="6" transform="translate(103 43)"/>
  <rect id="Rectangle_935" data-name="Rectangle 935" width="6" height="6" transform="translate(115 43)"/>
  <rect id="Rectangle_936" data-name="Rectangle 936" width="6" height="6" transform="translate(121 43)"/>
  <rect id="Rectangle_937" data-name="Rectangle 937" width="6" height="6" transform="translate(133 43)"/>
  <rect id="Rectangle_938" data-name="Rectangle 938" width="6" height="6" transform="translate(145 43)"/>
  <rect id="Rectangle_939" data-name="Rectangle 939" width="6" height="6" transform="translate(181 43)"/>
  <rect id="Rectangle_940" data-name="Rectangle 940" width="6" height="6" transform="translate(13 49)"/>
  <rect id="Rectangle_941" data-name="Rectangle 941" width="6" height="6" transform="translate(19 49)"/>
  <rect id="Rectangle_942" data-name="Rectangle 942" width="6" height="6" transform="translate(25 49)"/>
  <rect id="Rectangle_943" data-name="Rectangle 943" width="6" height="6" transform="translate(31 49)"/>
  <rect id="Rectangle_944" data-name="Rectangle 944" width="6" height="6" transform="translate(37 49)"/>
  <rect id="Rectangle_945" data-name="Rectangle 945" width="6" height="6" transform="translate(43 49)"/>
  <rect id="Rectangle_946" data-name="Rectangle 946" width="6" height="6" transform="translate(49 49)"/>
  <rect id="Rectangle_947" data-name="Rectangle 947" width="6" height="6" transform="translate(61 49)"/>
  <rect id="Rectangle_948" data-name="Rectangle 948" width="6" height="6" transform="translate(73 49)"/>
  <rect id="Rectangle_949" data-name="Rectangle 949" width="6" height="6" transform="translate(85 49)"/>
  <rect id="Rectangle_950" data-name="Rectangle 950" width="6" height="6" transform="translate(97 49)"/>
  <rect id="Rectangle_951" data-name="Rectangle 951" width="6" height="6" transform="translate(109 49)"/>
  <rect id="Rectangle_952" data-name="Rectangle 952" width="6" height="6" transform="translate(121 49)"/>
  <rect id="Rectangle_953" data-name="Rectangle 953" width="6" height="6" transform="translate(133 49)"/>
  <rect id="Rectangle_954" data-name="Rectangle 954" width="6" height="6" transform="translate(145 49)"/>
  <rect id="Rectangle_955" data-name="Rectangle 955" width="6" height="6" transform="translate(151 49)"/>
  <rect id="Rectangle_956" data-name="Rectangle 956" width="6" height="6" transform="translate(157 49)"/>
  <rect id="Rectangle_957" data-name="Rectangle 957" width="6" height="6" transform="translate(163 49)"/>
  <rect id="Rectangle_958" data-name="Rectangle 958" width="6" height="6" transform="translate(169 49)"/>
  <rect id="Rectangle_959" data-name="Rectangle 959" width="6" height="6" transform="translate(175 49)"/>
  <rect id="Rectangle_960" data-name="Rectangle 960" width="6" height="6" transform="translate(181 49)"/>
  <rect id="Rectangle_961" data-name="Rectangle 961" width="6" height="6" transform="translate(67 55)"/>
  <rect id="Rectangle_962" data-name="Rectangle 962" width="6" height="6" transform="translate(79 55)"/>
  <rect id="Rectangle_963" data-name="Rectangle 963" width="6" height="6" transform="translate(97 55)"/>
  <rect id="Rectangle_964" data-name="Rectangle 964" width="6" height="6" transform="translate(103 55)"/>
  <rect id="Rectangle_965" data-name="Rectangle 965" width="6" height="6" transform="translate(109 55)"/>
  <rect id="Rectangle_966" data-name="Rectangle 966" width="6" height="6" transform="translate(127 55)"/>
  <rect id="Rectangle_967" data-name="Rectangle 967" width="6" height="6" transform="translate(133 55)"/>
  <rect id="Rectangle_968" data-name="Rectangle 968" width="6" height="6" transform="translate(13 61)"/>
  <rect id="Rectangle_969" data-name="Rectangle 969" width="6" height="6" transform="translate(19 61)"/>
  <rect id="Rectangle_970" data-name="Rectangle 970" width="6" height="6" transform="translate(25 61)"/>
  <rect id="Rectangle_971" data-name="Rectangle 971" width="6" height="6" transform="translate(31 61)"/>
  <rect id="Rectangle_972" data-name="Rectangle 972" width="6" height="6" transform="translate(37 61)"/>
  <rect id="Rectangle_973" data-name="Rectangle 973" width="6" height="6" transform="translate(49 61)"/>
  <rect id="Rectangle_974" data-name="Rectangle 974" width="6" height="6" transform="translate(55 61)"/>
  <rect id="Rectangle_975" data-name="Rectangle 975" width="6" height="6" transform="translate(61 61)"/>
  <rect id="Rectangle_976" data-name="Rectangle 976" width="6" height="6" transform="translate(91 61)"/>
  <rect id="Rectangle_977" data-name="Rectangle 977" width="6" height="6" transform="translate(97 61)"/>
  <rect id="Rectangle_978" data-name="Rectangle 978" width="6" height="6" transform="translate(115 61)"/>
  <rect id="Rectangle_979" data-name="Rectangle 979" width="6" height="6" transform="translate(127 61)"/>
  <rect id="Rectangle_980" data-name="Rectangle 980" width="6" height="6" transform="translate(139 61)"/>
  <rect id="Rectangle_981" data-name="Rectangle 981" width="6" height="6" transform="translate(151 61)"/>
  <rect id="Rectangle_982" data-name="Rectangle 982" width="6" height="6" transform="translate(163 61)"/>
  <rect id="Rectangle_983" data-name="Rectangle 983" width="6" height="6" transform="translate(175 61)"/>
  <rect id="Rectangle_984" data-name="Rectangle 984" width="6" height="6" transform="translate(19 67)"/>
  <rect id="Rectangle_985" data-name="Rectangle 985" width="6" height="6" transform="translate(25 67)"/>
  <rect id="Rectangle_986" data-name="Rectangle 986" width="6" height="6" transform="translate(37 67)"/>
  <rect id="Rectangle_987" data-name="Rectangle 987" width="6" height="6" transform="translate(43 67)"/>
  <rect id="Rectangle_988" data-name="Rectangle 988" width="6" height="6" transform="translate(55 67)"/>
  <rect id="Rectangle_989" data-name="Rectangle 989" width="6" height="6" transform="translate(67 67)"/>
  <rect id="Rectangle_990" data-name="Rectangle 990" width="6" height="6" transform="translate(73 67)"/>
  <rect id="Rectangle_991" data-name="Rectangle 991" width="6" height="6" transform="translate(79 67)"/>
  <rect id="Rectangle_992" data-name="Rectangle 992" width="6" height="6" transform="translate(85 67)"/>
  <rect id="Rectangle_993" data-name="Rectangle 993" width="6" height="6" transform="translate(109 67)"/>
  <rect id="Rectangle_994" data-name="Rectangle 994" width="6" height="6" transform="translate(127 67)"/>
  <rect id="Rectangle_995" data-name="Rectangle 995" width="6" height="6" transform="translate(133 67)"/>
  <rect id="Rectangle_996" data-name="Rectangle 996" width="6" height="6" transform="translate(139 67)"/>
  <rect id="Rectangle_997" data-name="Rectangle 997" width="6" height="6" transform="translate(145 67)"/>
  <rect id="Rectangle_998" data-name="Rectangle 998" width="6" height="6" transform="translate(157 67)"/>
  <rect id="Rectangle_999" data-name="Rectangle 999" width="6" height="6" transform="translate(181 67)"/>
  <rect id="Rectangle_1000" data-name="Rectangle 1000" width="6" height="6" transform="translate(13 73)"/>
  <rect id="Rectangle_1001" data-name="Rectangle 1001" width="6" height="6" transform="translate(19 73)"/>
  <rect id="Rectangle_1002" data-name="Rectangle 1002" width="6" height="6" transform="translate(25 73)"/>
  <rect id="Rectangle_1003" data-name="Rectangle 1003" width="6" height="6" transform="translate(43 73)"/>
  <rect id="Rectangle_1004" data-name="Rectangle 1004" width="6" height="6" transform="translate(49 73)"/>
  <rect id="Rectangle_1005" data-name="Rectangle 1005" width="6" height="6" transform="translate(55 73)"/>
  <rect id="Rectangle_1006" data-name="Rectangle 1006" width="6" height="6" transform="translate(85 73)"/>
  <rect id="Rectangle_1007" data-name="Rectangle 1007" width="6" height="6" transform="translate(97 73)"/>
  <rect id="Rectangle_1008" data-name="Rectangle 1008" width="6" height="6" transform="translate(103 73)"/>
  <rect id="Rectangle_1009" data-name="Rectangle 1009" width="6" height="6" transform="translate(109 73)"/>
  <rect id="Rectangle_1010" data-name="Rectangle 1010" width="6" height="6" transform="translate(115 73)"/>
  <rect id="Rectangle_1011" data-name="Rectangle 1011" width="6" height="6" transform="translate(133 73)"/>
  <rect id="Rectangle_1012" data-name="Rectangle 1012" width="6" height="6" transform="translate(145 73)"/>
  <rect id="Rectangle_1013" data-name="Rectangle 1013" width="6" height="6" transform="translate(151 73)"/>
  <rect id="Rectangle_1014" data-name="Rectangle 1014" width="6" height="6" transform="translate(13 79)"/>
  <rect id="Rectangle_1015" data-name="Rectangle 1015" width="6" height="6" transform="translate(19 79)"/>
  <rect id="Rectangle_1016" data-name="Rectangle 1016" width="6" height="6" transform="translate(31 79)"/>
  <rect id="Rectangle_1017" data-name="Rectangle 1017" width="6" height="6" transform="translate(37 79)"/>
  <rect id="Rectangle_1018" data-name="Rectangle 1018" width="6" height="6" transform="translate(43 79)"/>
  <rect id="Rectangle_1019" data-name="Rectangle 1019" width="6" height="6" transform="translate(67 79)"/>
  <rect id="Rectangle_1020" data-name="Rectangle 1020" width="6" height="6" transform="translate(73 79)"/>
  <rect id="Rectangle_1021" data-name="Rectangle 1021" width="6" height="6" transform="translate(79 79)"/>
  <rect id="Rectangle_1022" data-name="Rectangle 1022" width="6" height="6" transform="translate(97 79)"/>
  <rect id="Rectangle_1023" data-name="Rectangle 1023" width="6" height="6" transform="translate(127 79)"/>
  <rect id="Rectangle_1024" data-name="Rectangle 1024" width="6" height="6" transform="translate(139 79)"/>
  <rect id="Rectangle_1025" data-name="Rectangle 1025" width="6" height="6" transform="translate(145 79)"/>
  <rect id="Rectangle_1026" data-name="Rectangle 1026" width="6" height="6" transform="translate(157 79)"/>
  <rect id="Rectangle_1027" data-name="Rectangle 1027" width="6" height="6" transform="translate(163 79)"/>
  <rect id="Rectangle_1028" data-name="Rectangle 1028" width="6" height="6" transform="translate(175 79)"/>
  <rect id="Rectangle_1029" data-name="Rectangle 1029" width="6" height="6" transform="translate(19 85)"/>
  <rect id="Rectangle_1030" data-name="Rectangle 1030" width="6" height="6" transform="translate(43 85)"/>
  <rect id="Rectangle_1031" data-name="Rectangle 1031" width="6" height="6" transform="translate(49 85)"/>
  <rect id="Rectangle_1032" data-name="Rectangle 1032" width="6" height="6" transform="translate(61 85)"/>
  <rect id="Rectangle_1033" data-name="Rectangle 1033" width="6" height="6" transform="translate(67 85)"/>
  <rect id="Rectangle_1034" data-name="Rectangle 1034" width="6" height="6" transform="translate(91 85)"/>
  <rect id="Rectangle_1035" data-name="Rectangle 1035" width="6" height="6" transform="translate(97 85)"/>
  <rect id="Rectangle_1036" data-name="Rectangle 1036" width="6" height="6" transform="translate(103 85)"/>
  <rect id="Rectangle_1037" data-name="Rectangle 1037" width="6" height="6" transform="translate(115 85)"/>
  <rect id="Rectangle_1038" data-name="Rectangle 1038" width="6" height="6" transform="translate(121 85)"/>
  <rect id="Rectangle_1039" data-name="Rectangle 1039" width="6" height="6" transform="translate(151 85)"/>
  <rect id="Rectangle_1040" data-name="Rectangle 1040" width="6" height="6" transform="translate(163 85)"/>
  <rect id="Rectangle_1041" data-name="Rectangle 1041" width="6" height="6" transform="translate(169 85)"/>
  <rect id="Rectangle_1042" data-name="Rectangle 1042" width="6" height="6" transform="translate(13 91)"/>
  <rect id="Rectangle_1043" data-name="Rectangle 1043" width="6" height="6" transform="translate(31 91)"/>
  <rect id="Rectangle_1044" data-name="Rectangle 1044" width="6" height="6" transform="translate(37 91)"/>
  <rect id="Rectangle_1045" data-name="Rectangle 1045" width="6" height="6" transform="translate(43 91)"/>
  <rect id="Rectangle_1046" data-name="Rectangle 1046" width="6" height="6" transform="translate(55 91)"/>
  <rect id="Rectangle_1047" data-name="Rectangle 1047" width="6" height="6" transform="translate(61 91)"/>
  <rect id="Rectangle_1048" data-name="Rectangle 1048" width="6" height="6" transform="translate(79 91)"/>
  <rect id="Rectangle_1049" data-name="Rectangle 1049" width="6" height="6" transform="translate(85 91)"/>
  <rect id="Rectangle_1050" data-name="Rectangle 1050" width="6" height="6" transform="translate(91 91)"/>
  <rect id="Rectangle_1051" data-name="Rectangle 1051" width="6" height="6" transform="translate(109 91)"/>
  <rect id="Rectangle_1052" data-name="Rectangle 1052" width="6" height="6" transform="translate(115 91)"/>
  <rect id="Rectangle_1053" data-name="Rectangle 1053" width="6" height="6" transform="translate(121 91)"/>
  <rect id="Rectangle_1054" data-name="Rectangle 1054" width="6" height="6" transform="translate(127 91)"/>
  <rect id="Rectangle_1055" data-name="Rectangle 1055" width="6" height="6" transform="translate(133 91)"/>
  <rect id="Rectangle_1056" data-name="Rectangle 1056" width="6" height="6" transform="translate(139 91)"/>
  <rect id="Rectangle_1057" data-name="Rectangle 1057" width="6" height="6" transform="translate(145 91)"/>
  <rect id="Rectangle_1058" data-name="Rectangle 1058" width="6" height="6" transform="translate(151 91)"/>
  <rect id="Rectangle_1059" data-name="Rectangle 1059" width="6" height="6" transform="translate(157 91)"/>
  <rect id="Rectangle_1060" data-name="Rectangle 1060" width="6" height="6" transform="translate(181 91)"/>
  <rect id="Rectangle_1061" data-name="Rectangle 1061" width="6" height="6" transform="translate(25 97)"/>
  <rect id="Rectangle_1062" data-name="Rectangle 1062" width="6" height="6" transform="translate(49 97)"/>
  <rect id="Rectangle_1063" data-name="Rectangle 1063" width="6" height="6" transform="translate(55 97)"/>
  <rect id="Rectangle_1064" data-name="Rectangle 1064" width="6" height="6" transform="translate(61 97)"/>
  <rect id="Rectangle_1065" data-name="Rectangle 1065" width="6" height="6" transform="translate(67 97)"/>
  <rect id="Rectangle_1066" data-name="Rectangle 1066" width="6" height="6" transform="translate(85 97)"/>
  <rect id="Rectangle_1067" data-name="Rectangle 1067" width="6" height="6" transform="translate(97 97)"/>
  <rect id="Rectangle_1068" data-name="Rectangle 1068" width="6" height="6" transform="translate(103 97)"/>
  <rect id="Rectangle_1069" data-name="Rectangle 1069" width="6" height="6" transform="translate(109 97)"/>
  <rect id="Rectangle_1070" data-name="Rectangle 1070" width="6" height="6" transform="translate(115 97)"/>
  <rect id="Rectangle_1071" data-name="Rectangle 1071" width="6" height="6" transform="translate(139 97)"/>
  <rect id="Rectangle_1072" data-name="Rectangle 1072" width="6" height="6" transform="translate(157 97)"/>
  <rect id="Rectangle_1073" data-name="Rectangle 1073" width="6" height="6" transform="translate(163 97)"/>
  <rect id="Rectangle_1074" data-name="Rectangle 1074" width="6" height="6" transform="translate(169 97)"/>
  <rect id="Rectangle_1075" data-name="Rectangle 1075" width="6" height="6" transform="translate(13 103)"/>
  <rect id="Rectangle_1076" data-name="Rectangle 1076" width="6" height="6" transform="translate(31 103)"/>
  <rect id="Rectangle_1077" data-name="Rectangle 1077" width="6" height="6" transform="translate(37 103)"/>
  <rect id="Rectangle_1078" data-name="Rectangle 1078" width="6" height="6" transform="translate(43 103)"/>
  <rect id="Rectangle_1079" data-name="Rectangle 1079" width="6" height="6" transform="translate(67 103)"/>
  <rect id="Rectangle_1080" data-name="Rectangle 1080" width="6" height="6" transform="translate(73 103)"/>
  <rect id="Rectangle_1081" data-name="Rectangle 1081" width="6" height="6" transform="translate(127 103)"/>
  <rect id="Rectangle_1082" data-name="Rectangle 1082" width="6" height="6" transform="translate(133 103)"/>
  <rect id="Rectangle_1083" data-name="Rectangle 1083" width="6" height="6" transform="translate(157 103)"/>
  <rect id="Rectangle_1084" data-name="Rectangle 1084" width="6" height="6" transform="translate(175 103)"/>
  <rect id="Rectangle_1085" data-name="Rectangle 1085" width="6" height="6" transform="translate(13 109)"/>
  <rect id="Rectangle_1086" data-name="Rectangle 1086" width="6" height="6" transform="translate(19 109)"/>
  <rect id="Rectangle_1087" data-name="Rectangle 1087" width="6" height="6" transform="translate(25 109)"/>
  <rect id="Rectangle_1088" data-name="Rectangle 1088" width="6" height="6" transform="translate(49 109)"/>
  <rect id="Rectangle_1089" data-name="Rectangle 1089" width="6" height="6" transform="translate(67 109)"/>
  <rect id="Rectangle_1090" data-name="Rectangle 1090" width="6" height="6" transform="translate(73 109)"/>
  <rect id="Rectangle_1091" data-name="Rectangle 1091" width="6" height="6" transform="translate(91 109)"/>
  <rect id="Rectangle_1092" data-name="Rectangle 1092" width="6" height="6" transform="translate(103 109)"/>
  <rect id="Rectangle_1093" data-name="Rectangle 1093" width="6" height="6" transform="translate(109 109)"/>
  <rect id="Rectangle_1094" data-name="Rectangle 1094" width="6" height="6" transform="translate(115 109)"/>
  <rect id="Rectangle_1095" data-name="Rectangle 1095" width="6" height="6" transform="translate(127 109)"/>
  <rect id="Rectangle_1096" data-name="Rectangle 1096" width="6" height="6" transform="translate(151 109)"/>
  <rect id="Rectangle_1097" data-name="Rectangle 1097" width="6" height="6" transform="translate(163 109)"/>
  <rect id="Rectangle_1098" data-name="Rectangle 1098" width="6" height="6" transform="translate(169 109)"/>
  <rect id="Rectangle_1099" data-name="Rectangle 1099" width="6" height="6" transform="translate(13 115)"/>
  <rect id="Rectangle_1100" data-name="Rectangle 1100" width="6" height="6" transform="translate(19 115)"/>
  <rect id="Rectangle_1101" data-name="Rectangle 1101" width="6" height="6" transform="translate(37 115)"/>
  <rect id="Rectangle_1102" data-name="Rectangle 1102" width="6" height="6" transform="translate(43 115)"/>
  <rect id="Rectangle_1103" data-name="Rectangle 1103" width="6" height="6" transform="translate(55 115)"/>
  <rect id="Rectangle_1104" data-name="Rectangle 1104" width="6" height="6" transform="translate(61 115)"/>
  <rect id="Rectangle_1105" data-name="Rectangle 1105" width="6" height="6" transform="translate(73 115)"/>
  <rect id="Rectangle_1106" data-name="Rectangle 1106" width="6" height="6" transform="translate(79 115)"/>
  <rect id="Rectangle_1107" data-name="Rectangle 1107" width="6" height="6" transform="translate(85 115)"/>
  <rect id="Rectangle_1108" data-name="Rectangle 1108" width="6" height="6" transform="translate(91 115)"/>
  <rect id="Rectangle_1109" data-name="Rectangle 1109" width="6" height="6" transform="translate(109 115)"/>
  <rect id="Rectangle_1110" data-name="Rectangle 1110" width="6" height="6" transform="translate(121 115)"/>
  <rect id="Rectangle_1111" data-name="Rectangle 1111" width="6" height="6" transform="translate(127 115)"/>
  <rect id="Rectangle_1112" data-name="Rectangle 1112" width="6" height="6" transform="translate(145 115)"/>
  <rect id="Rectangle_1113" data-name="Rectangle 1113" width="6" height="6" transform="translate(151 115)"/>
  <rect id="Rectangle_1114" data-name="Rectangle 1114" width="6" height="6" transform="translate(157 115)"/>
  <rect id="Rectangle_1115" data-name="Rectangle 1115" width="6" height="6" transform="translate(169 115)"/>
  <rect id="Rectangle_1116" data-name="Rectangle 1116" width="6" height="6" transform="translate(181 115)"/>
  <rect id="Rectangle_1117" data-name="Rectangle 1117" width="6" height="6" transform="translate(13 121)"/>
  <rect id="Rectangle_1118" data-name="Rectangle 1118" width="6" height="6" transform="translate(31 121)"/>
  <rect id="Rectangle_1119" data-name="Rectangle 1119" width="6" height="6" transform="translate(37 121)"/>
  <rect id="Rectangle_1120" data-name="Rectangle 1120" width="6" height="6" transform="translate(43 121)"/>
  <rect id="Rectangle_1121" data-name="Rectangle 1121" width="6" height="6" transform="translate(49 121)"/>
  <rect id="Rectangle_1122" data-name="Rectangle 1122" width="6" height="6" transform="translate(55 121)"/>
  <rect id="Rectangle_1123" data-name="Rectangle 1123" width="6" height="6" transform="translate(91 121)"/>
  <rect id="Rectangle_1124" data-name="Rectangle 1124" width="6" height="6" transform="translate(97 121)"/>
  <rect id="Rectangle_1125" data-name="Rectangle 1125" width="6" height="6" transform="translate(103 121)"/>
  <rect id="Rectangle_1126" data-name="Rectangle 1126" width="6" height="6" transform="translate(109 121)"/>
  <rect id="Rectangle_1127" data-name="Rectangle 1127" width="6" height="6" transform="translate(121 121)"/>
  <rect id="Rectangle_1128" data-name="Rectangle 1128" width="6" height="6" transform="translate(133 121)"/>
  <rect id="Rectangle_1129" data-name="Rectangle 1129" width="6" height="6" transform="translate(139 121)"/>
  <rect id="Rectangle_1130" data-name="Rectangle 1130" width="6" height="6" transform="translate(157 121)"/>
  <rect id="Rectangle_1131" data-name="Rectangle 1131" width="6" height="6" transform="translate(169 121)"/>
  <rect id="Rectangle_1132" data-name="Rectangle 1132" width="6" height="6" transform="translate(13 127)"/>
  <rect id="Rectangle_1133" data-name="Rectangle 1133" width="6" height="6" transform="translate(25 127)"/>
  <rect id="Rectangle_1134" data-name="Rectangle 1134" width="6" height="6" transform="translate(31 127)"/>
  <rect id="Rectangle_1135" data-name="Rectangle 1135" width="6" height="6" transform="translate(37 127)"/>
  <rect id="Rectangle_1136" data-name="Rectangle 1136" width="6" height="6" transform="translate(97 127)"/>
  <rect id="Rectangle_1137" data-name="Rectangle 1137" width="6" height="6" transform="translate(103 127)"/>
  <rect id="Rectangle_1138" data-name="Rectangle 1138" width="6" height="6" transform="translate(109 127)"/>
  <rect id="Rectangle_1139" data-name="Rectangle 1139" width="6" height="6" transform="translate(133 127)"/>
  <rect id="Rectangle_1140" data-name="Rectangle 1140" width="6" height="6" transform="translate(139 127)"/>
  <rect id="Rectangle_1141" data-name="Rectangle 1141" width="6" height="6" transform="translate(157 127)"/>
  <rect id="Rectangle_1142" data-name="Rectangle 1142" width="6" height="6" transform="translate(175 127)"/>
  <rect id="Rectangle_1143" data-name="Rectangle 1143" width="6" height="6" transform="translate(13 133)"/>
  <rect id="Rectangle_1144" data-name="Rectangle 1144" width="6" height="6" transform="translate(25 133)"/>
  <rect id="Rectangle_1145" data-name="Rectangle 1145" width="6" height="6" transform="translate(37 133)"/>
  <rect id="Rectangle_1146" data-name="Rectangle 1146" width="6" height="6" transform="translate(43 133)"/>
  <rect id="Rectangle_1147" data-name="Rectangle 1147" width="6" height="6" transform="translate(49 133)"/>
  <rect id="Rectangle_1148" data-name="Rectangle 1148" width="6" height="6" transform="translate(67 133)"/>
  <rect id="Rectangle_1149" data-name="Rectangle 1149" width="6" height="6" transform="translate(73 133)"/>
  <rect id="Rectangle_1150" data-name="Rectangle 1150" width="6" height="6" transform="translate(91 133)"/>
  <rect id="Rectangle_1151" data-name="Rectangle 1151" width="6" height="6" transform="translate(97 133)"/>
  <rect id="Rectangle_1152" data-name="Rectangle 1152" width="6" height="6" transform="translate(103 133)"/>
  <rect id="Rectangle_1153" data-name="Rectangle 1153" width="6" height="6" transform="translate(109 133)"/>
  <rect id="Rectangle_1154" data-name="Rectangle 1154" width="6" height="6" transform="translate(115 133)"/>
  <rect id="Rectangle_1155" data-name="Rectangle 1155" width="6" height="6" transform="translate(133 133)"/>
  <rect id="Rectangle_1156" data-name="Rectangle 1156" width="6" height="6" transform="translate(139 133)"/>
  <rect id="Rectangle_1157" data-name="Rectangle 1157" width="6" height="6" transform="translate(145 133)"/>
  <rect id="Rectangle_1158" data-name="Rectangle 1158" width="6" height="6" transform="translate(151 133)"/>
  <rect id="Rectangle_1159" data-name="Rectangle 1159" width="6" height="6" transform="translate(157 133)"/>
  <rect id="Rectangle_1160" data-name="Rectangle 1160" width="6" height="6" transform="translate(169 133)"/>
  <rect id="Rectangle_1161" data-name="Rectangle 1161" width="6" height="6" transform="translate(175 133)"/>
  <rect id="Rectangle_1162" data-name="Rectangle 1162" width="6" height="6" transform="translate(181 133)"/>
  <rect id="Rectangle_1163" data-name="Rectangle 1163" width="6" height="6" transform="translate(61 139)"/>
  <rect id="Rectangle_1164" data-name="Rectangle 1164" width="6" height="6" transform="translate(73 139)"/>
  <rect id="Rectangle_1165" data-name="Rectangle 1165" width="6" height="6" transform="translate(79 139)"/>
  <rect id="Rectangle_1166" data-name="Rectangle 1166" width="6" height="6" transform="translate(85 139)"/>
  <rect id="Rectangle_1167" data-name="Rectangle 1167" width="6" height="6" transform="translate(91 139)"/>
  <rect id="Rectangle_1168" data-name="Rectangle 1168" width="6" height="6" transform="translate(109 139)"/>
  <rect id="Rectangle_1169" data-name="Rectangle 1169" width="6" height="6" transform="translate(133 139)"/>
  <rect id="Rectangle_1170" data-name="Rectangle 1170" width="6" height="6" transform="translate(157 139)"/>
  <rect id="Rectangle_1171" data-name="Rectangle 1171" width="6" height="6" transform="translate(163 139)"/>
  <rect id="Rectangle_1172" data-name="Rectangle 1172" width="6" height="6" transform="translate(169 139)"/>
  <rect id="Rectangle_1173" data-name="Rectangle 1173" width="6" height="6" transform="translate(175 139)"/>
  <rect id="Rectangle_1174" data-name="Rectangle 1174" width="6" height="6" transform="translate(181 139)"/>
  <rect id="Rectangle_1175" data-name="Rectangle 1175" width="6" height="6" transform="translate(13 145)"/>
  <rect id="Rectangle_1176" data-name="Rectangle 1176" width="6" height="6" transform="translate(19 145)"/>
  <rect id="Rectangle_1177" data-name="Rectangle 1177" width="6" height="6" transform="translate(25 145)"/>
  <rect id="Rectangle_1178" data-name="Rectangle 1178" width="6" height="6" transform="translate(31 145)"/>
  <rect id="Rectangle_1179" data-name="Rectangle 1179" width="6" height="6" transform="translate(37 145)"/>
  <rect id="Rectangle_1180" data-name="Rectangle 1180" width="6" height="6" transform="translate(43 145)"/>
  <rect id="Rectangle_1181" data-name="Rectangle 1181" width="6" height="6" transform="translate(49 145)"/>
  <rect id="Rectangle_1182" data-name="Rectangle 1182" width="6" height="6" transform="translate(61 145)"/>
  <rect id="Rectangle_1183" data-name="Rectangle 1183" width="6" height="6" transform="translate(85 145)"/>
  <rect id="Rectangle_1184" data-name="Rectangle 1184" width="6" height="6" transform="translate(103 145)"/>
  <rect id="Rectangle_1185" data-name="Rectangle 1185" width="6" height="6" transform="translate(109 145)"/>
  <rect id="Rectangle_1186" data-name="Rectangle 1186" width="6" height="6" transform="translate(121 145)"/>
  <rect id="Rectangle_1187" data-name="Rectangle 1187" width="6" height="6" transform="translate(127 145)"/>
  <rect id="Rectangle_1188" data-name="Rectangle 1188" width="6" height="6" transform="translate(133 145)"/>
  <rect id="Rectangle_1189" data-name="Rectangle 1189" width="6" height="6" transform="translate(145 145)"/>
  <rect id="Rectangle_1190" data-name="Rectangle 1190" width="6" height="6" transform="translate(157 145)"/>
  <rect id="Rectangle_1191" data-name="Rectangle 1191" width="6" height="6" transform="translate(163 145)"/>
  <rect id="Rectangle_1192" data-name="Rectangle 1192" width="6" height="6" transform="translate(169 145)"/>
  <rect id="Rectangle_1193" data-name="Rectangle 1193" width="6" height="6" transform="translate(13 151)"/>
  <rect id="Rectangle_1194" data-name="Rectangle 1194" width="6" height="6" transform="translate(49 151)"/>
  <rect id="Rectangle_1195" data-name="Rectangle 1195" width="6" height="6" transform="translate(97 151)"/>
  <rect id="Rectangle_1196" data-name="Rectangle 1196" width="6" height="6" transform="translate(103 151)"/>
  <rect id="Rectangle_1197" data-name="Rectangle 1197" width="6" height="6" transform="translate(109 151)"/>
  <rect id="Rectangle_1198" data-name="Rectangle 1198" width="6" height="6" transform="translate(121 151)"/>
  <rect id="Rectangle_1199" data-name="Rectangle 1199" width="6" height="6" transform="translate(127 151)"/>
  <rect id="Rectangle_1200" data-name="Rectangle 1200" width="6" height="6" transform="translate(133 151)"/>
  <rect id="Rectangle_1201" data-name="Rectangle 1201" width="6" height="6" transform="translate(157 151)"/>
  <rect id="Rectangle_1202" data-name="Rectangle 1202" width="6" height="6" transform="translate(13 157)"/>
  <rect id="Rectangle_1203" data-name="Rectangle 1203" width="6" height="6" transform="translate(25 157)"/>
  <rect id="Rectangle_1204" data-name="Rectangle 1204" width="6" height="6" transform="translate(31 157)"/>
  <rect id="Rectangle_1205" data-name="Rectangle 1205" width="6" height="6" transform="translate(37 157)"/>
  <rect id="Rectangle_1206" data-name="Rectangle 1206" width="6" height="6" transform="translate(49 157)"/>
  <rect id="Rectangle_1207" data-name="Rectangle 1207" width="6" height="6" transform="translate(61 157)"/>
  <rect id="Rectangle_1208" data-name="Rectangle 1208" width="6" height="6" transform="translate(67 157)"/>
  <rect id="Rectangle_1209" data-name="Rectangle 1209" width="6" height="6" transform="translate(73 157)"/>
  <rect id="Rectangle_1210" data-name="Rectangle 1210" width="6" height="6" transform="translate(91 157)"/>
  <rect id="Rectangle_1211" data-name="Rectangle 1211" width="6" height="6" transform="translate(97 157)"/>
  <rect id="Rectangle_1212" data-name="Rectangle 1212" width="6" height="6" transform="translate(115 157)"/>
  <rect id="Rectangle_1213" data-name="Rectangle 1213" width="6" height="6" transform="translate(133 157)"/>
  <rect id="Rectangle_1214" data-name="Rectangle 1214" width="6" height="6" transform="translate(139 157)"/>
  <rect id="Rectangle_1215" data-name="Rectangle 1215" width="6" height="6" transform="translate(145 157)"/>
  <rect id="Rectangle_1216" data-name="Rectangle 1216" width="6" height="6" transform="translate(151 157)"/>
  <rect id="Rectangle_1217" data-name="Rectangle 1217" width="6" height="6" transform="translate(157 157)"/>
  <rect id="Rectangle_1218" data-name="Rectangle 1218" width="6" height="6" transform="translate(169 157)"/>
  <rect id="Rectangle_1219" data-name="Rectangle 1219" width="6" height="6" transform="translate(13 163)"/>
  <rect id="Rectangle_1220" data-name="Rectangle 1220" width="6" height="6" transform="translate(25 163)"/>
  <rect id="Rectangle_1221" data-name="Rectangle 1221" width="6" height="6" transform="translate(31 163)"/>
  <rect id="Rectangle_1222" data-name="Rectangle 1222" width="6" height="6" transform="translate(37 163)"/>
  <rect id="Rectangle_1223" data-name="Rectangle 1223" width="6" height="6" transform="translate(49 163)"/>
  <rect id="Rectangle_1224" data-name="Rectangle 1224" width="6" height="6" transform="translate(61 163)"/>
  <rect id="Rectangle_1225" data-name="Rectangle 1225" width="6" height="6" transform="translate(79 163)"/>
  <rect id="Rectangle_1226" data-name="Rectangle 1226" width="6" height="6" transform="translate(85 163)"/>
  <rect id="Rectangle_1227" data-name="Rectangle 1227" width="6" height="6" transform="translate(109 163)"/>
  <rect id="Rectangle_1228" data-name="Rectangle 1228" width="6" height="6" transform="translate(151 163)"/>
  <rect id="Rectangle_1229" data-name="Rectangle 1229" width="6" height="6" transform="translate(163 163)"/>
  <rect id="Rectangle_1230" data-name="Rectangle 1230" width="6" height="6" transform="translate(169 163)"/>
  <rect id="Rectangle_1231" data-name="Rectangle 1231" width="6" height="6" transform="translate(181 163)"/>
  <rect id="Rectangle_1232" data-name="Rectangle 1232" width="6" height="6" transform="translate(13 169)"/>
  <rect id="Rectangle_1233" data-name="Rectangle 1233" width="6" height="6" transform="translate(25 169)"/>
  <rect id="Rectangle_1234" data-name="Rectangle 1234" width="6" height="6" transform="translate(31 169)"/>
  <rect id="Rectangle_1235" data-name="Rectangle 1235" width="6" height="6" transform="translate(37 169)"/>
  <rect id="Rectangle_1236" data-name="Rectangle 1236" width="6" height="6" transform="translate(49 169)"/>
  <rect id="Rectangle_1237" data-name="Rectangle 1237" width="6" height="6" transform="translate(61 169)"/>
  <rect id="Rectangle_1238" data-name="Rectangle 1238" width="6" height="6" transform="translate(67 169)"/>
  <rect id="Rectangle_1239" data-name="Rectangle 1239" width="6" height="6" transform="translate(97 169)"/>
  <rect id="Rectangle_1240" data-name="Rectangle 1240" width="6" height="6" transform="translate(103 169)"/>
  <rect id="Rectangle_1241" data-name="Rectangle 1241" width="6" height="6" transform="translate(109 169)"/>
  <rect id="Rectangle_1242" data-name="Rectangle 1242" width="6" height="6" transform="translate(121 169)"/>
  <rect id="Rectangle_1243" data-name="Rectangle 1243" width="6" height="6" transform="translate(127 169)"/>
  <rect id="Rectangle_1244" data-name="Rectangle 1244" width="6" height="6" transform="translate(133 169)"/>
  <rect id="Rectangle_1245" data-name="Rectangle 1245" width="6" height="6" transform="translate(145 169)"/>
  <rect id="Rectangle_1246" data-name="Rectangle 1246" width="6" height="6" transform="translate(151 169)"/>
  <rect id="Rectangle_1247" data-name="Rectangle 1247" width="6" height="6" transform="translate(157 169)"/>
  <rect id="Rectangle_1248" data-name="Rectangle 1248" width="6" height="6" transform="translate(163 169)"/>
  <rect id="Rectangle_1249" data-name="Rectangle 1249" width="6" height="6" transform="translate(169 169)"/>
  <rect id="Rectangle_1250" data-name="Rectangle 1250" width="6" height="6" transform="translate(175 169)"/>
  <rect id="Rectangle_1251" data-name="Rectangle 1251" width="6" height="6" transform="translate(13 175)"/>
  <rect id="Rectangle_1252" data-name="Rectangle 1252" width="6" height="6" transform="translate(49 175)"/>
  <rect id="Rectangle_1253" data-name="Rectangle 1253" width="6" height="6" transform="translate(61 175)"/>
  <rect id="Rectangle_1254" data-name="Rectangle 1254" width="6" height="6" transform="translate(67 175)"/>
  <rect id="Rectangle_1255" data-name="Rectangle 1255" width="6" height="6" transform="translate(73 175)"/>
  <rect id="Rectangle_1256" data-name="Rectangle 1256" width="6" height="6" transform="translate(85 175)"/>
  <rect id="Rectangle_1257" data-name="Rectangle 1257" width="6" height="6" transform="translate(109 175)"/>
  <rect id="Rectangle_1258" data-name="Rectangle 1258" width="6" height="6" transform="translate(121 175)"/>
  <rect id="Rectangle_1259" data-name="Rectangle 1259" width="6" height="6" transform="translate(133 175)"/>
  <rect id="Rectangle_1260" data-name="Rectangle 1260" width="6" height="6" transform="translate(139 175)"/>
  <rect id="Rectangle_1261" data-name="Rectangle 1261" width="6" height="6" transform="translate(151 175)"/>
  <rect id="Rectangle_1262" data-name="Rectangle 1262" width="6" height="6" transform="translate(157 175)"/>
  <rect id="Rectangle_1263" data-name="Rectangle 1263" width="6" height="6" transform="translate(163 175)"/>
  <rect id="Rectangle_1264" data-name="Rectangle 1264" width="6" height="6" transform="translate(175 175)"/>
  <rect id="Rectangle_1265" data-name="Rectangle 1265" width="6" height="6" transform="translate(13 181)"/>
  <rect id="Rectangle_1266" data-name="Rectangle 1266" width="6" height="6" transform="translate(19 181)"/>
  <rect id="Rectangle_1267" data-name="Rectangle 1267" width="6" height="6" transform="translate(25 181)"/>
  <rect id="Rectangle_1268" data-name="Rectangle 1268" width="6" height="6" transform="translate(31 181)"/>
  <rect id="Rectangle_1269" data-name="Rectangle 1269" width="6" height="6" transform="translate(37 181)"/>
  <rect id="Rectangle_1270" data-name="Rectangle 1270" width="6" height="6" transform="translate(43 181)"/>
  <rect id="Rectangle_1271" data-name="Rectangle 1271" width="6" height="6" transform="translate(49 181)"/>
  <rect id="Rectangle_1272" data-name="Rectangle 1272" width="6" height="6" transform="translate(61 181)"/>
  <rect id="Rectangle_1273" data-name="Rectangle 1273" width="6" height="6" transform="translate(67 181)"/>
  <rect id="Rectangle_1274" data-name="Rectangle 1274" width="6" height="6" transform="translate(73 181)"/>
  <rect id="Rectangle_1275" data-name="Rectangle 1275" width="6" height="6" transform="translate(91 181)"/>
  <rect id="Rectangle_1276" data-name="Rectangle 1276" width="6" height="6" transform="translate(115 181)"/>
  <rect id="Rectangle_1277" data-name="Rectangle 1277" width="6" height="6" transform="translate(121 181)"/>
  <rect id="Rectangle_1278" data-name="Rectangle 1278" width="6" height="6" transform="translate(127 181)"/>
  <rect id="Rectangle_1279" data-name="Rectangle 1279" width="6" height="6" transform="translate(139 181)"/>
  <rect id="Rectangle_1280" data-name="Rectangle 1280" width="6" height="6" transform="translate(157 181)"/>
  <rect id="Rectangle_1281" data-name="Rectangle 1281" width="6" height="6" transform="translate(169 181)"/>
</svg>
