<svg xmlns="http://www.w3.org/2000/svg" width="122.392" height="95" viewBox="0 0 122.392 95">
  <g id="flat" transform="translate(-23.283 -79.999)">
    <g id="Group_524" data-name="Group 524" transform="translate(23.283 79.998)">
      <path id="Path_662" data-name="Path 662" d="M216.314,81.129l2.728,8.395h8.826a1.636,1.636,0,0,1,.962,2.96l-7.141,5.189,2.728,8.395A1.636,1.636,0,0,1,221.9,107.9l-7.141-5.188-7.141,5.188a1.636,1.636,0,0,1-2.518-1.829l2.728-8.4-7.141-5.188a1.636,1.636,0,0,1,.962-2.96h8.826l2.728-8.395a1.636,1.636,0,0,1,3.112,0Z" transform="translate(-153.466 -79.998)" fill="#fbb540"/>
      <path id="Path_663" data-name="Path 663" d="M100.917,140.009l2.16,6.65h6.992A1.3,1.3,0,0,1,110.83,149l-5.657,4.109,2.16,6.65a1.3,1.3,0,0,1-1.995,1.449l-5.657-4.11-5.657,4.11a1.3,1.3,0,0,1-1.994-1.449l2.16-6.65L88.534,149a1.3,1.3,0,0,1,.762-2.344h6.992l2.16-6.65a1.3,1.3,0,0,1,2.469,0Z" transform="translate(-70.955 -123.539)" fill="#fbb540"/>
      <path id="Path_664" data-name="Path 664" d="M36.2,244.026l2.16,6.65h6.993a1.3,1.3,0,0,1,.762,2.344l-5.657,4.109,2.16,6.65a1.3,1.3,0,0,1-1.994,1.449l-5.656-4.108-5.657,4.11a1.3,1.3,0,0,1-1.995-1.449l2.16-6.65-5.657-4.109a1.3,1.3,0,0,1,.762-2.344h6.993l2.16-6.65a1.3,1.3,0,0,1,2.466,0Z" transform="translate(-23.283 -200.165)" fill="#fbb540"/>
      <path id="Path_665" data-name="Path 665" d="M412.2,244.021l2.16,6.65h6.993a1.3,1.3,0,0,1,.762,2.344l-5.657,4.109,2.16,6.65a1.3,1.3,0,0,1-1.994,1.449l-5.657-4.11-5.656,4.112a1.3,1.3,0,0,1-1.995-1.449l2.16-6.65-5.657-4.109a1.3,1.3,0,0,1,.762-2.344h6.992l2.16-6.65a1.3,1.3,0,0,1,2.467,0Z" transform="translate(-300.254 -200.161)" fill="#fbb540"/>
      <path id="Path_666" data-name="Path 666" d="M348.2,140.021l2.16,6.65h6.993a1.3,1.3,0,0,1,.762,2.344l-5.657,4.109,2.16,6.65a1.3,1.3,0,0,1-1.994,1.449l-5.657-4.11-5.656,4.112a1.3,1.3,0,0,1-1.995-1.449l2.16-6.65-5.657-4.109a1.3,1.3,0,0,1,.762-2.344h6.992l2.16-6.65a1.3,1.3,0,0,1,2.467,0Z" transform="translate(-253.11 -123.552)" fill="#fbb540"/>
    </g>
    <path id="Path_667" data-name="Path 667" d="M144,312.7h16.856v29.5H144Z" transform="translate(-88.923 -171.41)" fill="#0296e5"/>
    <path id="Path_668" data-name="Path 668" d="M245.926,259.663H229.07V247.021a6.321,6.321,0,0,0-6.321-6.321h-4.214l-.774,5.421A17.984,17.984,0,0,1,208,259.663v29.5l1.91,1.273a17.508,17.508,0,0,0,9.712,2.941h24.2a4.214,4.214,0,0,0,0-8.428,4.214,4.214,0,0,0,0-8.428,4.214,4.214,0,1,0,0-8.428h2.107a4.214,4.214,0,1,0,0-8.428Z" transform="translate(-136.067 -118.377)" fill="#fdc9a6"/>
  </g>
</svg>
