<svg xmlns="http://www.w3.org/2000/svg" width="96.351" height="95" viewBox="0 0 96.351 95">
  <g id="report_2_" data-name="report (2)" transform="translate(0 -0.387)">
    <path id="Path_618" data-name="Path 618" d="M58.857,11.019a4.8,4.8,0,0,0-8.557,0L8.525,93.219a4.8,4.8,0,0,0,4.279,6.974H96.353a4.8,4.8,0,0,0,4.279-6.974ZM54.578,93.794a4.8,4.8,0,1,1,4.8-4.8A4.8,4.8,0,0,1,54.578,93.794Zm3.4-18.986a3.2,3.2,0,0,1-3.2,2.987h-.412a3.2,3.2,0,0,1-3.192-2.987L48.6,36.179a5.989,5.989,0,1,1,11.953,0Zm0,0" transform="translate(-6.404 -6.406)" fill="#46f8ff"/>
    <path id="Path_619" data-name="Path 619" d="M216.949,115.41a5.984,5.984,0,0,0-5.971,6.383l2.576,38.629a3.2,3.2,0,0,0,3.189,2.987h.412a3.2,3.2,0,0,0,3.2-2.987l2.576-38.629a5.984,5.984,0,0,0-5.983-6.383Zm0,0" transform="translate(-168.774 -92.019)" fill="#ff3051"/>
    <path id="Path_620" data-name="Path 620" d="M226.487,392.21a4.8,4.8,0,1,1-4.8-4.8A4.8,4.8,0,0,1,226.487,392.21Zm0,0" transform="translate(-173.512 -309.622)" fill="#ff3051"/>
    <path id="Path_621" data-name="Path 621" d="M95.656,86.088,53.88,3.888a6.4,6.4,0,0,0-11.41,0L.694,86.088a6.4,6.4,0,0,0,5.707,9.3H89.95a6.4,6.4,0,0,0,5.707-9.3Zm-2.981,4.572a3.17,3.17,0,0,1-2.719,1.526H6.4a3.2,3.2,0,0,1-2.855-4.649l41.776-82.2a3.2,3.2,0,0,1,5.705,0L92.8,87.538a3.171,3.171,0,0,1-.128,3.123Zm0,0" transform="translate(0)" fill="none"/>
    <path id="Path_622" data-name="Path 622" d="M210.547,107.409a7.582,7.582,0,0,0-7.568,8.089l2.573,38.629a4.809,4.809,0,0,0,4.789,4.479h.413a4.809,4.809,0,0,0,4.789-4.479l2.576-38.627a7.581,7.581,0,0,0-7.571-8.091Zm1.8,46.5a1.6,1.6,0,0,1-1.6,1.493h-.412a1.6,1.6,0,0,1-1.6-1.494l-2.576-38.626a4.387,4.387,0,1,1,8.754,0Zm0,0" transform="translate(-162.372 -85.619)" fill="none"/>
    <path id="Path_623" data-name="Path 623" d="M215.287,379.41a6.4,6.4,0,1,0,6.4,6.4A6.4,6.4,0,0,0,215.287,379.41Zm0,9.6a3.2,3.2,0,1,1,3.2-3.2A3.2,3.2,0,0,1,215.287,389.01Zm0,0" transform="translate(-167.112 -303.222)" fill="none"/>
  </g>
</svg>
