<?xml version="1.0" encoding="utf-8"?>
<!-- Generator: Adobe Illustrator 25.0.0, SVG Export Plug-In . SVG Version: 6.00 Build 0)  -->
<svg version="1.1" id="Layer_2_1_" xmlns="http://www.w3.org/2000/svg" xmlns:xlink="http://www.w3.org/1999/xlink" x="0px" y="0px"
	 viewBox="0 0 512 512" style="enable-background:new 0 0 512 512;" xml:space="preserve">
<style type="text/css">
	.st0{fill:none;stroke:#C5251C;stroke-width:15;stroke-linecap:round;stroke-linejoin:round;stroke-miterlimit:10;}
</style>
<g>
	<g>
		<g>
			<g>
				<path class="st0" d="M146.2,114.6c0,0-39.6-68.5-82.5-83.9c0,0,3.6,5.8,5.7,18.8c3,18,1.8,65.8,25.6,82.9
					c18.4,13.3,35.7,14.1,35.7,14.1"/>
				<path class="st0" d="M175.3,112c0,0,26.8-74.4,66.4-97.2c0,0-2.5,6.3-2.3,19.5c0.2,18.2,9.9,65.1-10.6,86.1
					c-15.8,16.3-32.7,20.2-32.7,20.2"/>
				<path class="st0" d="M148,164.1l8.7-25.1c2.1-6.1,10.4-6.9,13.7-1.4l13.6,23.2c2.8,4.8-0.3,10.9-5.9,11.4l-22.3,2
					C150.4,174.6,146.2,169.3,148,164.1z"/>
			</g>
			<path class="st0" d="M122.1,178.2c0,0-22.8-7.6-56.7-36.1c-6.1-5.1-15.3-0.2-14.3,7.7c5,42.1,15.8,84.1,37.1,116.7"/>
			<path class="st0" d="M212.1,170.7c0,0,22.3-12.1,50.7-46.2c5.1-6.1,15-2.9,15.5,5c3,50.3-7.1,114.3-30.8,153.2"/>
			<path class="st0" d="M55.7,143.9c0,0,28.4,86.2,134.1,119.7"/>
		</g>
		<path class="st0" d="M439.4,239.3c36,8.9,57.7,20.4,57.7,33.1c0,28-107,50.8-239.1,50.8S19,300.5,19,272.4
			c0-11.3,17.4-21.7,46.7-30.2"/>
		<path class="st0" d="M298.9,222.4c33.3,1.2,58.7,3.1,85.7,6.9"/>
		<path class="st0" d="M497.1,274.9C481.3,383,438,407.2,424.6,423.1c-2.3,2.7-4.4,5.5-6.5,8.3c-18.5,25.1-74.5,42.3-160.1,42.3
			c-84,0-145.4-20.4-160.2-41.7c-2.8-4-6-7.8-9.2-11.5C72.4,402.1,32.1,381.2,19,274.9"/>
		<path class="st0" d="M111.1,447v16.1c0,19.3,65.3,34.9,145.9,34.9s145.9-15.6,145.9-34.9V447"/>
		<path class="st0" d="M251.8,173.9c0,0-22.5,47.1-80.4,79.3"/>
		<path class="st0" d="M127.5,168.6c0,0-13.9,30,1.1,65.4"/>
		<path class="st0" d="M206.5,164.3c0,0,14.2,26.8,1.3,63.2"/>
		<path class="st0" d="M131.9,282c-1.2-0.1-2.3-0.2-3.4-0.3"/>
		<path class="st0" d="M175.4,286c-5.3-0.3-10.2-0.7-17.2-1.3"/>
		<path class="st0" d="M286,282.1c-22.1,2-48.4,3.2-76.5,3.2"/>
		<path class="st0" d="M292.8,252.7c37.9,1.1,58.6,5.5,58.6,12.2c0,4.9-11.8,9.3-31.6,12.8"/>
	</g>
	<path class="st0" d="M398.6,269.5l53.2-160.9c3.7-11.2,16.1-17.1,27.1-12.8l0,0c11,4.3,16.2,17,11.3,27.8L420,277.9"/>
</g>
</svg>
