<svg xmlns="http://www.w3.org/2000/svg" width="24.007" height="18.187" viewBox="0 0 24.007 18.187">
  <g id="nachos" transform="translate(0 -62.061)">
    <g id="Group_445" data-name="Group 445" transform="translate(0 62.061)">
      <g id="Group_444" data-name="Group 444" transform="translate(0 0)">
        <path id="Path_442" data-name="Path 442" d="M23.636,70.532a1.773,1.773,0,0,0-1.214-.7l-1.593-2.76-.253-3.87a1.22,1.22,0,0,0-1.9-.935l-2.931,1.958a1.23,1.23,0,0,0-.54-.317,1.216,1.216,0,0,0-1,.155,1.211,1.211,0,0,0-.644-.423l-5.1-1.367a1.22,1.22,0,0,0-1.495,1.495l.128.477L4.787,62.707a1.22,1.22,0,0,0-1.894.939l-.168,2.66L2.7,66.3A1.22,1.22,0,0,0,1.2,67.794l.543,2.028a1.775,1.775,0,0,0-1.376.711,1.8,1.8,0,0,0-.3,1.592,9.461,9.461,0,0,0,4.887,5.6,2.719,2.719,0,0,0,.841,1.76,2.752,2.752,0,0,0,1.906.765h8.6a2.752,2.752,0,0,0,1.906-.765,2.719,2.719,0,0,0,.841-1.759,9.465,9.465,0,0,0,4.885-5.59A1.813,1.813,0,0,0,23.636,70.532ZM20.16,67.37l1.415,2.451H19.13a.364.364,0,1,0-.456,0h-.386l.39-1.411a1.207,1.207,0,0,0-.218-1.081,1.23,1.23,0,0,0-.427-.342l.526-.911a.493.493,0,0,1,.854,0l.746,1.293Zm-1.076-4.5a.493.493,0,0,1,.766.378l.157,2.4a1.22,1.22,0,0,0-2.078.058l-.681,1.179-.053.012-.953.247L16.1,65a1.24,1.24,0,0,0-.015-.126ZM16,67.964h0l1.372-.356a.517.517,0,0,1,.109-.016.5.5,0,0,1,.4.189.481.481,0,0,1,.087.436l-.443,1.6h-.683a.364.364,0,1,0-.455,0H13.226a1.217,1.217,0,0,0-.164-.581l-.257-.445ZM14.274,64.9h0l.331-.221a.482.482,0,0,1,.4-.066.489.489,0,0,1,.362.443l.152,2.286-3.1.8-.836-1.448ZM12.5,69.821H6.231A.487.487,0,0,1,6.3,69.6l2.64-4.573a.493.493,0,0,1,.854,0l2.64,4.573A.486.486,0,0,1,12.5,69.821ZM7.8,63.1a.488.488,0,0,1,.476-.128l5.1,1.367a.49.49,0,0,1,.223.128l-2.376,1.591-.806-1.4a1.22,1.22,0,0,0-2.114,0l-.159.275-.132-.088L7.676,63.58A.488.488,0,0,1,7.8,63.1Zm-4.184.588a.493.493,0,0,1,.765-.379l3.4,2.26L6.74,67.382l-3.3-.884ZM2.032,67.129A.488.488,0,0,1,2.508,67l.455.122h0l3.4.91-.7,1.205a1.216,1.216,0,0,0-.164.581H2.5L1.9,67.605A.488.488,0,0,1,2.032,67.129Zm21.2,4.806a8.761,8.761,0,0,1-4.554,5.16H8.608a.364.364,0,1,0,0,.727h9.7a2.044,2.044,0,0,1-2,1.7H7.7a2.044,2.044,0,0,1-2-1.7H7.153a.364.364,0,0,0,0-.727H5.327A8.758,8.758,0,0,1,.769,71.927a1.083,1.083,0,0,1,.18-.955,1.054,1.054,0,0,1,.846-.424H22.212a1.051,1.051,0,0,1,.844.423A1.092,1.092,0,0,1,23.235,71.935Z" transform="translate(0 -62.061)" fill="#c5251c"/>
      </g>
    </g>
    <g id="Group_447" data-name="Group 447" transform="translate(16.502 65.706)">
      <g id="Group_446" data-name="Group 446" transform="translate(0 0)">
        <circle id="Ellipse_23" data-name="Ellipse 23" cx="0.364" cy="0.364" r="0.364" fill="#c5251c"/>
      </g>
    </g>
    <g id="Group_449" data-name="Group 449" transform="translate(17.375 64.324)">
      <g id="Group_448" data-name="Group 448" transform="translate(0 0)">
        <circle id="Ellipse_24" data-name="Ellipse 24" cx="0.364" cy="0.364" r="0.364" fill="#c5251c"/>
      </g>
    </g>
    <g id="Group_451" data-name="Group 451" transform="translate(18.733 63.645)">
      <g id="Group_450" data-name="Group 450" transform="translate(0 0)">
        <circle id="Ellipse_25" data-name="Ellipse 25" cx="0.364" cy="0.364" r="0.364" fill="#c5251c"/>
      </g>
    </g>
    <g id="Group_453" data-name="Group 453" transform="translate(7.918 63.305)">
      <g id="Group_452" data-name="Group 452" transform="translate(0 0)">
        <circle id="Ellipse_26" data-name="Ellipse 26" cx="0.364" cy="0.364" r="0.364" fill="#c5251c"/>
      </g>
    </g>
    <g id="Group_455" data-name="Group 455" transform="translate(11.022 64.469)">
      <g id="Group_454" data-name="Group 454" transform="translate(0 0)">
        <circle id="Ellipse_27" data-name="Ellipse 27" cx="0.364" cy="0.364" r="0.364" fill="#c5251c"/>
      </g>
    </g>
    <g id="Group_457" data-name="Group 457" transform="translate(12.719 67.04)">
      <g id="Group_456" data-name="Group 456">
        <circle id="Ellipse_28" data-name="Ellipse 28" cx="0.364" cy="0.364" r="0.364" fill="#c5251c"/>
      </g>
    </g>
    <g id="Group_459" data-name="Group 459" transform="translate(14.174 66.555)">
      <g id="Group_458" data-name="Group 458" transform="translate(0 0)">
        <circle id="Ellipse_29" data-name="Ellipse 29" cx="0.364" cy="0.364" r="0.364" fill="#c5251c"/>
      </g>
    </g>
    <g id="Group_461" data-name="Group 461" transform="translate(13.107 65.924)">
      <g id="Group_460" data-name="Group 460" transform="translate(0 0)">
        <circle id="Ellipse_30" data-name="Ellipse 30" cx="0.364" cy="0.364" r="0.364" fill="#c5251c"/>
      </g>
    </g>
    <g id="Group_463" data-name="Group 463" transform="translate(5.496 66.168)">
      <g id="Group_462" data-name="Group 462">
        <circle id="Ellipse_31" data-name="Ellipse 31" cx="0.364" cy="0.364" r="0.364" fill="#c5251c"/>
      </g>
    </g>
    <g id="Group_465" data-name="Group 465" transform="translate(4.039 65.639)">
      <g id="Group_464" data-name="Group 464">
        <circle id="Ellipse_32" data-name="Ellipse 32" cx="0.364" cy="0.364" r="0.364" fill="#c5251c"/>
      </g>
    </g>
    <g id="Group_467" data-name="Group 467" transform="translate(4.033 64.33)">
      <g id="Group_466" data-name="Group 466" transform="translate(0 0)">
        <circle id="Ellipse_33" data-name="Ellipse 33" cx="0.364" cy="0.364" r="0.364" fill="#c5251c"/>
      </g>
    </g>
    <g id="Group_469" data-name="Group 469" transform="translate(5.49 65.052)">
      <g id="Group_468" data-name="Group 468" transform="translate(0 0)">
        <circle id="Ellipse_34" data-name="Ellipse 34" cx="0.364" cy="0.364" r="0.364" fill="#c5251c"/>
      </g>
    </g>
    <g id="Group_471" data-name="Group 471" transform="translate(4.863 68.688)">
      <g id="Group_470" data-name="Group 470" transform="translate(0 0)">
        <circle id="Ellipse_35" data-name="Ellipse 35" cx="0.364" cy="0.364" r="0.364" fill="#c5251c"/>
      </g>
    </g>
    <g id="Group_473" data-name="Group 473" transform="translate(3.893 67.718)">
      <g id="Group_472" data-name="Group 472" transform="translate(0 0)">
        <circle id="Ellipse_36" data-name="Ellipse 36" cx="0.364" cy="0.364" r="0.364" fill="#c5251c"/>
      </g>
    </g>
    <g id="Group_475" data-name="Group 475" transform="translate(19.654 68.397)">
      <g id="Group_474" data-name="Group 474">
        <circle id="Ellipse_37" data-name="Ellipse 37" cx="0.364" cy="0.364" r="0.364" fill="#c5251c"/>
      </g>
    </g>
    <g id="Group_477" data-name="Group 477" transform="translate(18.733 67.234)">
      <g id="Group_476" data-name="Group 476">
        <circle id="Ellipse_38" data-name="Ellipse 38" cx="0.364" cy="0.364" r="0.364" fill="#c5251c"/>
      </g>
    </g>
    <g id="Group_479" data-name="Group 479" transform="translate(13.835 68.882)">
      <g id="Group_478" data-name="Group 478" transform="translate(0 0)">
        <circle id="Ellipse_39" data-name="Ellipse 39" cx="0.364" cy="0.364" r="0.364" fill="#c5251c"/>
      </g>
    </g>
    <g id="Group_481" data-name="Group 481" transform="translate(15.289 68.349)">
      <g id="Group_480" data-name="Group 480" transform="translate(0 0)">
        <circle id="Ellipse_40" data-name="Ellipse 40" cx="0.364" cy="0.364" r="0.364" fill="#c5251c"/>
      </g>
    </g>
    <g id="Group_483" data-name="Group 483" transform="translate(7.773 67.913)">
      <g id="Group_482" data-name="Group 482" transform="translate(0 0)">
        <circle id="Ellipse_41" data-name="Ellipse 41" cx="0.364" cy="0.364" r="0.364" fill="#c5251c"/>
      </g>
    </g>
    <g id="Group_485" data-name="Group 485" transform="translate(8.936 66.07)">
      <g id="Group_484" data-name="Group 484" transform="translate(0 0)">
        <circle id="Ellipse_42" data-name="Ellipse 42" cx="0.364" cy="0.364" r="0.364" fill="#c5251c"/>
      </g>
    </g>
    <g id="Group_487" data-name="Group 487" transform="translate(9.227 68.882)">
      <g id="Group_486" data-name="Group 486" transform="translate(0 0)">
        <circle id="Ellipse_43" data-name="Ellipse 43" cx="0.364" cy="0.364" r="0.364" fill="#c5251c"/>
      </g>
    </g>
    <g id="Group_489" data-name="Group 489" transform="translate(9.712 67.428)">
      <g id="Group_488" data-name="Group 488" transform="translate(0 0)">
        <circle id="Ellipse_44" data-name="Ellipse 44" cx="0.364" cy="0.364" r="0.364" fill="#c5251c"/>
      </g>
    </g>
    <g id="Group_491" data-name="Group 491" transform="translate(10.682 68.882)">
      <g id="Group_490" data-name="Group 490" transform="translate(0 0)">
        <circle id="Ellipse_45" data-name="Ellipse 45" cx="0.364" cy="0.364" r="0.364" fill="#c5251c"/>
      </g>
    </g>
  </g>
</svg>
