<?xml version="1.0" encoding="utf-8"?>
<!-- Generator: Adobe Illustrator 25.0.0, SVG Export Plug-In . SVG Version: 6.00 Build 0)  -->
<svg version="1.1" id="Layer_1" xmlns="http://www.w3.org/2000/svg" xmlns:xlink="http://www.w3.org/1999/xlink" x="0px" y="0px"
	 viewBox="0 0 56.7 56.7" style="enable-background:new 0 0 56.7 56.7;" xml:space="preserve">
<style type="text/css">
	.st0{fill:#FFFFFF;}
</style>
<path class="st0" d="M28.7,51.7c-0.1,0-0.3,0-0.4,0h0c-0.1,0-0.2,0-0.2,0c-2.9,0-4.8-1.3-6.7-2.6c-1.3-0.9-2.5-1.7-3.9-2
	c-0.7-0.1-1.4-0.2-2-0.2c-1.2,0-2.1,0.2-2.8,0.3c-0.4,0.1-0.8,0.2-1,0.2c-0.3,0-0.6-0.1-0.7-0.5c-0.1-0.4-0.2-0.8-0.3-1.2
	c-0.2-1-0.4-1.5-0.8-1.6c-4.7-0.7-6-1.7-6.3-2.4c0-0.1-0.1-0.2-0.1-0.3c0-0.3,0.2-0.5,0.4-0.5c7.2-1.2,10.4-8.5,10.5-8.8
	c0,0,0,0,0,0c0.4-0.9,0.5-1.7,0.3-2.3c-0.5-1.2-2.1-1.7-3.2-2c-0.3-0.1-0.5-0.2-0.7-0.2c-2.1-0.8-2.3-1.7-2.2-2.1
	c0.1-0.7,1.1-1.3,1.9-1.3c0.2,0,0.4,0,0.6,0.1c1,0.4,1.8,0.7,2.6,0.7c1,0,1.5-0.4,1.5-0.5c0-0.5-0.1-1-0.1-1.5
	c-0.2-3.4-0.5-7.6,0.6-10C19,5.6,25.8,5,27.8,5c0.1,0,0.9,0,0.9,0l0.1,0c2,0,8.9,0.6,12.1,7.8c1.1,2.4,0.8,6.6,0.6,10l0,0.1
	c0,0.5-0.1,0.9-0.1,1.4c0.1,0.1,0.5,0.4,1.4,0.5h0c0.7,0,1.5-0.3,2.4-0.7C45.5,24,45.8,24,46,24c0.3,0,0.6,0.1,0.9,0.2l0,0
	c0.7,0.3,1.2,0.8,1.2,1.3c0,0.5-0.4,1.2-2.2,2c-0.2,0.1-0.4,0.2-0.7,0.2c-1.1,0.3-2.7,0.8-3.2,2c-0.3,0.6-0.2,1.4,0.3,2.3
	c0,0,0,0,0,0c0.1,0.3,3.3,7.6,10.5,8.8c0.3,0,0.5,0.3,0.4,0.5c0,0.1,0,0.2-0.1,0.3c-0.3,0.7-1.6,1.7-6.3,2.4
	c-0.4,0.1-0.5,0.6-0.8,1.6c-0.1,0.4-0.2,0.8-0.3,1.1c-0.1,0.3-0.3,0.5-0.7,0.5h-0.1c-0.2,0-0.6,0-1-0.1c-0.8-0.2-1.7-0.3-2.8-0.3
	c-0.7,0-1.3,0.1-2,0.2c-1.4,0.2-2.6,1.1-3.9,2C33.5,50.3,31.6,51.7,28.7,51.7z"/>
</svg>
