<svg xmlns="http://www.w3.org/2000/svg" width="16.33" height="18.187" viewBox="0 0 16.33 18.187">
  <g id="Group_492" data-name="Group 492" transform="translate(-1041.264 -229.717)">
    <path id="Path_443" data-name="Path 443" d="M1048.863,338.528c-.327-.046-.66-.067-.979-.145a10.069,10.069,0,0,1-1.372-.41,1.641,1.641,0,0,1-1.078-1.6.276.276,0,0,0-.148-.267,8.054,8.054,0,0,1-3.957-6.1,3.687,3.687,0,0,1,.055-1.637,3.489,3.489,0,0,1,1.363-1.725,8.459,8.459,0,0,1,2.946-1.317,15.246,15.246,0,0,1,7-.116,1.128,1.128,0,0,1,.138.035.261.261,0,0,1,.183.32.248.248,0,0,1-.3.19c-.3-.052-.6-.124-.906-.169a14.209,14.209,0,0,0-6.917.55,6.159,6.159,0,0,0-2.326,1.358,2.336,2.336,0,0,0-.736,1.306,2.008,2.008,0,0,0,.584,1.7,5.56,5.56,0,0,0,2.023,1.345c.049.021.1.039.147.063a.272.272,0,0,1,.152.365.257.257,0,0,1-.361.118c-.48-.241-.967-.471-1.425-.75a9.244,9.244,0,0,1-.891-.693,7.6,7.6,0,0,0,14.744.013c-.319.245-.645.531-1,.764a9.484,9.484,0,0,1-3.432,1.29,15.46,15.46,0,0,1-6.309-.095c-.144-.032-.288-.067-.429-.11a.264.264,0,0,1-.2-.327.27.27,0,0,1,.335-.184c.715.128,1.427.286,2.147.373a13.97,13.97,0,0,0,3.612-.058,10.95,10.95,0,0,0,3.277-.94,4.858,4.858,0,0,0,1.743-1.285,1.937,1.937,0,0,0-.056-2.691,5.407,5.407,0,0,0-1.976-1.351c-.205-.09-.418-.164-.625-.25a.265.265,0,0,1-.175-.353.262.262,0,0,1,.353-.144,7.015,7.015,0,0,1,2.591,1.5,2.888,2.888,0,0,1,.926,2.428,8.118,8.118,0,0,1-4.035,6.6.221.221,0,0,0-.118.212,1.705,1.705,0,0,1-1.141,1.675,6.982,6.982,0,0,1-2.081.486c-.07.006-.138.022-.208.033Zm-2.891-2.046c.015.09.02.148.034.2a1.273,1.273,0,0,0,.909.887,7.546,7.546,0,0,0,4.125.257,7.015,7.015,0,0,0,1.162-.369,1.048,1.048,0,0,0,.666-.968A8.292,8.292,0,0,1,1045.972,336.482Z" transform="translate(0 -90.624)" fill="#c5251c"/>
    <path id="Path_444" data-name="Path 444" d="M1064.6,351.257a4.522,4.522,0,0,1,2.3-1.7,11.227,11.227,0,0,1,4.808-.695,10.322,10.322,0,0,1,3.546.8,4.564,4.564,0,0,1,1.9,1.382c.05.066.094.135.142.2a.686.686,0,0,0,.164-.726,1.649,1.649,0,0,0-.513-.69,5.566,5.566,0,0,0-1.871-1.024,12.513,12.513,0,0,0-4.506-.644,11.586,11.586,0,0,0-4.352.888.276.276,0,0,1-.4-.124c-.059-.149.009-.284.19-.365a10.54,10.54,0,0,1,2.757-.776,14.141,14.141,0,0,1,5.567.239,7.124,7.124,0,0,1,2.748,1.229,3.715,3.715,0,0,1,.725.769,1.252,1.252,0,0,1,.009,1.467,3.065,3.065,0,0,1-.942.927,8.148,8.148,0,0,1-2.933,1.161,13.842,13.842,0,0,1-7.048-.293,6.006,6.006,0,0,1-2.23-1.169,3.18,3.18,0,0,1-.586-.682,1.186,1.186,0,0,1,.012-1.372,5.883,5.883,0,0,1,.74-.8.244.244,0,0,1,.364.029.274.274,0,0,1-.035.382,6.063,6.063,0,0,0-.609.661A.717.717,0,0,0,1064.6,351.257Zm.389.452c.089.069.17.137.257.2a7.871,7.871,0,0,0,3.047,1.194,13.724,13.724,0,0,0,4.486.139,9.934,9.934,0,0,0,3.061-.852,4.552,4.552,0,0,0,1.1-.706,5.113,5.113,0,0,0-.374-.517,4.761,4.761,0,0,0-2.051-1.222,11.273,11.273,0,0,0-6.383-.224,6.281,6.281,0,0,0-2.433,1.113A2.037,2.037,0,0,0,1064.991,351.709Z" transform="translate(-21.523 -112.304)" fill="#c5251c"/>
    <path id="Path_445" data-name="Path 445" d="M1205.484,230.042a4.005,4.005,0,0,1-.214.515.567.567,0,0,0,.005.647,1,1,0,0,1,0,1.152.576.576,0,0,0,0,.647,1.724,1.724,0,0,1,.17.531.252.252,0,0,1-.231.3c-.146.016-.251-.083-.292-.247a1.6,1.6,0,0,0-.139-.376.994.994,0,0,1,.009-1.076.614.614,0,0,0,0-.724,1,1,0,0,1,0-1.076,1.439,1.439,0,0,0,.133-.359c.041-.168.138-.268.283-.258S1205.452,229.849,1205.484,230.042Z" transform="translate(-155.609)" fill="#c5251c"/>
    <path id="Path_446" data-name="Path 446" d="M1247.069,249.735a3.9,3.9,0,0,1-.22.556.608.608,0,0,0,0,.664,1.668,1.668,0,0,1,.17.548.248.248,0,0,1-.25.282.282.282,0,0,1-.278-.247,1.54,1.54,0,0,0-.135-.376,1,1,0,0,1,.007-1.076.618.618,0,0,0,0-.725,1.394,1.394,0,0,1-.153-.517.254.254,0,0,1,.252-.284.286.286,0,0,1,.277.249,3.7,3.7,0,0,0,.133.377Z" transform="translate(-195.21 -17.95)" fill="#c5251c"/>
    <path id="Path_447" data-name="Path 447" d="M1161.534,250.657a2.7,2.7,0,0,1,.2-.534.632.632,0,0,0,0-.741,1.316,1.316,0,0,1-.145-.5.252.252,0,0,1,.244-.289.289.289,0,0,1,.283.243,1.829,1.829,0,0,0,.142.391.993.993,0,0,1-.011,1.06.627.627,0,0,0,0,.739,1.353,1.353,0,0,1,.147.518.247.247,0,0,1-.246.27.28.28,0,0,1-.281-.242,3.738,3.738,0,0,0-.132-.377C1161.666,251.02,1161.6,250.845,1161.534,250.657Z" transform="translate(-114.562 -17.979)" fill="#c5251c"/>
    <path id="Path_448" data-name="Path 448" d="M1121.156,398.87c.019-.024.057-.076.1-.123a.257.257,0,0,1,.364-.051.239.239,0,0,1,.067.346,4.414,4.414,0,0,1-.334.362.6.6,0,0,0-.141.2,1.252,1.252,0,0,1-.814.829,3.244,3.244,0,0,1-1.536.193,7.946,7.946,0,0,1-1.108-.221,1.063,1.063,0,0,1-.383-.216.688.688,0,0,1,.132-1.2,4.256,4.256,0,0,1,.78-.225c.458-.115.916-.234,1.379-.327a1.51,1.51,0,0,1,.959.077A4.379,4.379,0,0,1,1121.156,398.87Zm-2.052,1.292.011-.039c.189-.015.379-.019.566-.047a1.491,1.491,0,0,0,.844-.334.471.471,0,0,0,.169-.46.385.385,0,0,0-.358-.3,2.094,2.094,0,0,0-.632-.007c-.452.085-.9.208-1.345.316a4.7,4.7,0,0,0-.532.134c-.083.031-.189.12-.2.193s.1.155.162.22a.335.335,0,0,0,.158.077C1118.333,400,1118.719,400.08,1119.1,400.162Z" transform="translate(-72.212 -160.672)" fill="#c5251c"/>
    <path id="Path_449" data-name="Path 449" d="M1277.538,413.4a1.135,1.135,0,0,1-.794-.3.6.6,0,0,1,0-.87,1.213,1.213,0,0,1,1.6.008.592.592,0,0,1,0,.857A1.127,1.127,0,0,1,1277.538,413.4Zm-.013-.52a2.622,2.622,0,0,0,.329-.09.221.221,0,0,0,.12-.133c.007-.03-.064-.094-.112-.117a.717.717,0,0,0-.646,0c-.047.023-.115.087-.108.119a.222.222,0,0,0,.118.133A2.1,2.1,0,0,0,1277.526,412.883Z" transform="translate(-224.124 -173.569)" fill="#c5251c"/>
    <path id="Path_450" data-name="Path 450" d="M1206.485,430.155a1.107,1.107,0,0,1,.715.22.614.614,0,0,1,.007,1.015,1.243,1.243,0,0,1-1.444-.007.61.61,0,0,1,.008-1A1.1,1.1,0,0,1,1206.485,430.155Zm.016.5a3.374,3.374,0,0,0-.379.127c-.1.044-.1.12-.011.192a.74.74,0,0,0,.754,0c.09-.07.092-.142-.006-.19A3.311,3.311,0,0,0,1206.5,430.66Z" transform="translate(-156.447 -190.926)" fill="#c5251c"/>
    <path id="Path_451" data-name="Path 451" d="M1229.941,399.019a1.133,1.133,0,0,1-.776-.265.606.606,0,0,1,.01-.946,1.236,1.236,0,0,1,1.5,0,.607.607,0,0,1,0,.958A1.1,1.1,0,0,1,1229.941,399.019Zm-.018-.507a3.043,3.043,0,0,0,.369-.128c.109-.054.1-.13,0-.2a.753.753,0,0,0-.74.006c-.091.069-.093.143,0,.191A3.232,3.232,0,0,0,1229.923,398.512Z" transform="translate(-178.772 -159.872)" fill="#c5251c"/>
  </g>
</svg>
