<?xml version="1.0" encoding="utf-8"?>
<!-- Generator: Adobe Illustrator 25.0.0, SVG Export Plug-In . SVG Version: 6.00 Build 0)  -->
<svg version="1.1" id="Layer_1" xmlns="http://www.w3.org/2000/svg" xmlns:xlink="http://www.w3.org/1999/xlink" x="0px" y="0px"
	 viewBox="0 0 56.7 56.7" style="enable-background:new 0 0 56.7 56.7;" xml:space="preserve">
<style type="text/css">
	.st0{fill-rule:evenodd;clip-rule:evenodd;fill:#FFFFFF;}
</style>
<g>
	<path class="st0" d="M46.4,10.7C41.7,6.1,35.5,3.5,29,3.5C15.4,3.5,4.3,14.5,4.3,28.1c0,4.3,1.1,8.6,3.3,12.3L4.1,53.2l13.1-3.4
		c3.6,2,7.6,3,11.8,3h0c0,0,0,0,0,0c13.6,0,24.6-11.1,24.6-24.6C53.6,21.6,51,15.4,46.4,10.7z M29,48.6L29,48.6
		c-3.7,0-7.3-1-10.4-2.9l-0.7-0.4l-7.7,2l2.1-7.6L11.6,39c-2-3.3-3.1-7-3.1-10.9C8.5,16.8,17.7,7.6,29,7.6c5.5,0,10.6,2.1,14.5,6
		c3.9,3.9,6,9,6,14.5C49.4,39.4,40.2,48.6,29,48.6z"/>
	<path class="st0" d="M40.2,33.3c-0.6-0.3-3.6-1.8-4.2-2c-0.6-0.2-1-0.3-1.4,0.3c-0.4,0.6-1.6,2-1.9,2.4c-0.4,0.4-0.7,0.5-1.3,0.2
		c-0.6-0.3-2.6-1-5-3.1c-1.8-1.6-3.1-3.6-3.4-4.3c-0.4-0.6,0-0.9,0.3-1.3c0.3-0.3,0.6-0.7,0.9-1.1c0.3-0.4,0.4-0.6,0.6-1
		c0.2-0.4,0.1-0.8-0.1-1.1c-0.2-0.3-1.4-3.3-1.9-4.6c-0.5-1.2-1-1-1.4-1.1c-0.4,0-0.8,0-1.2,0s-1.1,0.2-1.6,0.8
		c-0.6,0.6-2.2,2.1-2.2,5.1c0,3,2.2,6,2.5,6.4c0.3,0.4,4.3,6.6,10.5,9.3c1.5,0.6,2.6,1,3.5,1.3c1.5,0.5,2.8,0.4,3.9,0.2
		c1.2-0.2,3.6-1.5,4.2-2.9c0.5-1.4,0.5-2.7,0.4-2.9C41.2,33.7,40.8,33.6,40.2,33.3z"/>
</g>
</svg>
